<svg xmlns="http://www.w3.org/2000/svg" viewBox="0 0 3017.133 1890.443"><defs><style>.a{opacity:0.063;}.b{fill:none;}.c{fill:#afafaf;}</style></defs><g class="a" transform="translate(0 0.01)"><path class="b" d="M2086.1,963.9l7.386-54.374,11.032,57.448c-.232,2.024-3.8,34.333-8.066,72.915Z" transform="translate(455.066 505.349)"/><path class="b" d="M2100.97,425.768l19.16-63.428c-1.19,35.507-2.117,63.567-2.117,63.567l4.728,209.135-15.5,45.643c-4.635-26.685-6.274-45.783-6.274-45.783V425.768Z" transform="translate(463.173 201.782)"/><path class="b" d="M2080.71,880.919l10.306-39.432,1.916-84.427,18.742,80.826-16.24,119.687Z" transform="translate(452.128 420.967)"/><path class="b" d="M2082.94,652.3l7.448-21.957c-1.081,15.482-2.071,29.852-2.89,41.518Z" transform="translate(453.344 349.909)"/><path class="b" d="M2097.443,1023.99l11.867,87.192-23.95,139.063c.989-60.183,2.24-137.271,2.24-137.271Z" transform="translate(454.663 570.069)"/><path class="b" d="M2107.584,591.975l-14.184,41.8c2.6-37.346,5.083-73.163,6.134-88.181Z" transform="translate(459.046 303.006)"/><path class="b" d="M2084.08,734.25c1.237-13.335,2.4-25.819,3.384-36.45l-1.066,46.463Z" transform="translate(453.965 387.376)"/><path class="b" d="M1974.886,1082.828l-.186,3.523-.371-5.346c.046-.324.154-1.159.34-2.4C1974.809,1081.314,1974.886,1082.828,1974.886,1082.828Z" transform="translate(394.135 599.845)"/><path class="b" d="M2049.649,153.27,2030.489,333.5s14.215,126.841,20.52,182.991L1994.58,330.436Z" transform="translate(405.174 83.56)"/><path class="b" d="M2108.62,926.967l-9.75,71.9,13.5,99.245c-5.377,48.548-11,99.368-12.176,110.061l-48.039-206.6,40.807-156.137Z" transform="translate(436.564 472.728)"/><path class="b" d="M1913.37,290.465c-6.891-56.8-14.54-119.98-14.54-119.98L1918.469,64.41l23.44,108.948Z" transform="translate(487.73 35.118)"/><path class="b" d="M2091.566,679.594c-.433,6.242-.68,9.873-.68,9.873l-4.867,52.612-12.979-56,11.882-35.013Z" transform="translate(447.947 361.596)"/><path class="b" d="M2090.434,747.744l-2.441,106.723-7.03,26.886-5.223-27.195c.263-2.889,6.057-65.344,11.233-121.278Z" transform="translate(449.419 407.281)"/><path class="b" d="M2125.552,808.38v-.125l-4.728-210.842s1.375-41.636,2.9-87.865l33.591-122.836-.015-.156s-29.868-209.876-29.868-209.736V55.37l36.218,121.077-.015.125,18.573,82.228-2.441,127.6,16.378,53.563-44.516,156.843V807.835l22.822,210.515L2196.72,1229.3c-.34,3.316-21.555,210.7-21.555,210.7s-18.789,100.321-30.439,162.588c-9.255-62.329-23.78-162.4-23.78-162.4v-210.92l11.712-210.951s-15.606-90.512-26.329-152.763Z" transform="translate(466.094 30.19)"/><path class="b" d="M2363.151,1252.258l.016-.14-8.529-420.943-14.2-210.588-11.28-210.51c.757-4.821,32.85-210.775,32.865-211.008L2338.12,17.53l74.77,188.413-46.107,208.706.016.093s7.664,208.831,7.664,208.737l-19.716,209.406s30.81,210,30.81,209.9l5.763,209.546c-.834,3.9-44.685,209.624-44.7,209.733l-17.6,410.026c-2.766-39.545-14-200-14-199.858,0,0,10.183-209.717,10.167-209.53Z" transform="translate(579.86 9.562)"/><path class="b" d="M1788.739,543.97l-.139-4.945.34-1.035C1788.816,540.8,1788.739,542.95,1788.739,543.97Z" transform="translate(465.374 298.544)"/><path class="b" d="M1811.009,622.927S1775.3,413.483,1775.3,413.606V204.193L1829.874,6.26l-12.438,280.475-23.842,123.3,65.7,209.985L1803.7,787.7Z" transform="translate(450.209 3.418)"/><path class="b" d="M1911.082,295.588l-1.761-21.138,2.148-12.67c.726,6.026,1.159,9.472,1.159,9.472S1912.04,280.723,1911.082,295.588Z" transform="translate(496.348 145.31)"/><path class="b" d="M1876.03,536.16c.556,2.6.865,4.033.865,4.033s.077,2.7.2,7.463l-1.916-7.772C1875.257,539.436,1875.566,538.153,1876.03,536.16Z" transform="translate(487.674 297.544)"/><path class="b" d="M2184.427,1082.224l-22.281-209.506L2139.34,663.892v-209.1l41.812-146.078,28.075,91.148c-3.091,33-5.47,58.345-5.47,58.345s.757,28.446,1.73,64.355l-43,141.272,50.835,209.1c-.34,7.293-9.857,209.043-9.827,208.811L2167.354,1248Z" transform="translate(484.09 174.31)"/><path class="b" d="M2134.421,1085.338l-6.52,22.435c1.05-13.86,1.7-22.544,1.7-22.544s1-5.3,2.673-14.2Z" transform="translate(477.853 595.712)"/><path class="b" d="M2240.947,222.69c-1.916,38.49-3.492,69.933-3.492,69.933l-5.393,32.232-8.962-29.126Z" transform="translate(529.751 123.697)"/><path class="b" d="M2186.345,397.966l.047-.185-24.181-106.259,1.978-102.366L2205.845,30.5l-23.795,160.51,28.863,209.444c-.231,2.395-6.273,66.889-11.6,123.689l-25.371-82.372Z" transform="translate(496.556 16.632)"/><path class="b" d="M2201.377,417.557l-15.39,50.542c-.742-27.334-1.267-47.034-1.267-47.034l4.141-44.145Z" transform="translate(508.828 209.339)"/><path class="b" d="M2171.654,331.626l-10.754-34.92,1.592-82.155,18.851,82.851Z" transform="translate(495.843 119.195)"/><path class="b" d="M1834.825,872.693c-.185,4.527-8.591,209.2-8.576,209.089l-19.407,96.989c.541-48.487-2.333-303.08-2.333-303.08s-7.633-125.775-11.079-182.281Z" transform="translate(460.895 387.12)"/><path class="b" d="M863.389,1098.091l-1.082,47.621-12.238-48.255,11.944-46.447C862.8,1078.344,863.389,1098.091,863.389,1098.091Z" transform="translate(220.326 584.799)"/><path class="b" d="M852.693,540.443l-.031.139,32.355,208.131-23.7,193.9c-2.843-45.829-12.145-195.569-12.145-195.476,0,0,2.395-209.29,2.395-209.135l26.669-209.583S865.765,223.812,858.441,162.47l38.026,170.769Z" transform="translate(217.834 88.575)"/><path class="b" d="M866.611,1160l-2.951,23.44c.232-10.337.479-21.23.726-32.17Z" transform="translate(224.541 639.455)"/><path class="b" d="M896.9,882.549l8.56,164.094c-.711,26.051-1.221,44.624-1.221,44.624s.232,4.033.618,10.97l-23.687,92.091c-1.53-51.809-3.044-103.324-3.059-103.463l-46.4-208.656,38.3-200.7C874.943,718.284,896.9,882.549,896.9,882.549Z" transform="translate(211.603 380.656)"/><path class="b" d="M885.633,1049.561l.031-.108s-.973-18.557-2.318-44.485c1.684-61.389,4.5-164.28,4.5-164.28s5.346-38.675,11.465-82.789l22.2,79.652c-.093,2.534-2.194,56.784-4.234,109.4-4.744,50.588-9.348,99.585-9.348,99.693,0,0,.047,10.43.124,26.607-4.852,24-12.268,60.662-19.175,94.872-2.38-41.92-4.945-86.976-6.088-107.357Z" transform="translate(227.055 422.614)"/><path class="b" d="M866.613,1144.581s-1.174-40.035-2.5-85.029L888.245,965.7c1.638,28.755,4.172,73.626,6.32,111.235-7.37,36.5-13.257,65.622-13.257,65.622L868.3,1245.943l-3.662-14.4C865.671,1185.852,866.613,1144.581,866.613,1144.581Z" transform="translate(222.811 538.292)"/><path class="b" d="M785.2,870.981l-18.6,163.553L735.37,867.952,765.578,701.88Z" transform="translate(188.494 390.938)"/><path class="b" d="M773.961,662.738c-.4,44.114-.742,82.9-.742,82.9l2.4,20.659L742.378,949.069,712.85,745.62l52.38-197.3Z" transform="translate(181.989 305.707)"/><path class="b" d="M624.915,32.02l16.131,74.167L623.71,188.574l16.579,92.044L605.74,188.141Z" transform="translate(155.96 17.461)"/><path class="b" d="M632.906,478.9c-4.419,47.961-8.514,92.461-8.514,92.461s-1.19,6.706-3.121,17.692l-2.951-17.707C618.645,569.245,625.52,525.718,632.906,478.9Z" transform="translate(160.199 266.03)"/><path class="b" d="M757.624,946.3c-.031.448-.232,3.508-.587,8.622l-1.1-5.671.834-7.4Z" transform="translate(196.609 522.687)"/><path class="b" d="M755.62,681.52s.046-5.918.139-15.73l.943,12.284-.912,4.96C755.682,682.045,755.62,681.52,755.62,681.52Z" transform="translate(196.561 369.501)"/><path class="b" d="M754.458,840.641,749.73,778.6,777.172,569.19,762.972,360.3l8.344-208.409L768.658,98.74l25.371,54.884c-.4,5.841-14.493,209.491-14.493,209.491s5.393,209.351,5.408,209.212L754.968,781.848C754.984,781.848,754.752,807.4,754.458,840.641Z" transform="translate(192.502 53.833)"/><path class="b" d="M894.71,826.118c7.587-54.868,15.606-112.765,15.606-112.765s-2.658-53.307-5.3-106.043L921.8,710.294c-.031,6.876-.742,209.058-.726,208.873,0,0-.2,2.179-.572,6.042l.216-5.748Z" transform="translate(230.937 338.197)"/><path class="b" d="M900.469,332.452s22.173-126.377,31.969-182.172l21.524,181.972c-2.04,9.209-46.277,208.563-46.323,208.811l-3.832,36.125c.7-19.67,1.159-32.819,1.159-32.819s-2.534-20.581-6-48.842C899.526,434.03,900.469,332.452,900.469,332.452Z" transform="translate(230.061 81.93)"/><path class="b" d="M1053.863,276.241l-8.127,44.438s2.9,47.111,5.949,96.571l-14.725,109.613L1065.2,740.232l-22.188,105.626c-9.626-52.967-19.392-106.739-19.392-106.739l-17.506-209.151L998.33,320.8l28.755-144.023Z" transform="translate(254.544 96.376)"/><path class="b" d="M1044.839,744.273s-7.54-41.518-15.869-87.332l22.4-106.661,41.039,194.039c-.031,3.168-1.7,209.2-1.7,209.089,0,0-6.938,47.776-14.2,97.669l4-100.99-47.884-144.394Z" transform="translate(262.638 307.295)"/><path class="b" d="M1032.71,281.2l5.825-31.83,7.772,28.817-9.456,70.273Z" transform="translate(267.641 138.512)"/><path class="b" d="M1037.825,351.36c2.735,44.407,5.145,83.515,5.145,83.515s2.472,80.981,4.342,142.215L1027.04,431.677Z" transform="translate(265.639 195.437)"/><path class="b" d="M969.4,425.087c0-1.406-.077-28.307-.17-62.377l14.015,62.918-6.381,27.905Z" transform="translate(251.158 201.447)"/><path class="b" d="M1040.152,696.776l-8.128,40.854L1017.5,693.84l11.867-56.49Z" transform="translate(262.983 354.01)"/><path class="b" d="M896.174,682.408,878.111,891.172l32.417,116.3c-6.845,49.429-13.335,96.432-13.335,96.432s-1.221,44.454-2.519,92.384c-2.488-47.791-4.805-92.152-4.805-92.152L862.026,895.885l25.479-208.44L855.15,479.361,898.337,274.83c2.967,24.182,12.454,101.3,18.789,152.877-.247,26.577-.417,45.6-.417,45.6Z" transform="translate(218.371 155.081)"/><path class="b" d="M908.969,521.117l-9.781,92.338,9.008,55.254c3.09,61.821,7.834,156.708,7.834,156.616,0,0-6.737,48.672-13.705,99.075L873.74,821.817c.495-5.624,18.047-208.486,18.047-208.486s20.535-210,20.55-211.561c.448,3.569.68,5.563.68,5.563S910.916,465.924,908.969,521.117Z" transform="translate(224.482 224.449)"/><path class="b" d="M971.413,677.408c-.216,1-1.885,8.359-4.373,19.762V677.238l2.719-9.858Z" transform="translate(251.313 370.428)"/><path class="b" d="M951.14,594.227,987.126,436.7l41.348,157.543L979.88,767.33Z" transform="translate(241.715 243.232)"/><path class="b" d="M983.826,1276.9,940.84,1067.1c.077-3.338,4.852-209.259,4.836-209.1L975.93,719.83c.324,60.647.726,138,.726,138l-8.483,209.46,57.958,209.521-68.975,206.276Z" transform="translate(238.495 404.258)"/><path class="b" d="M398.53,460.109s.7-99.677,1.128-161.359L439.09,463.462c-.726,4.682-18.773,120.861-27.658,178.093C407.384,584.663,398.53,460.109,398.53,460.109Z" transform="translate(217.256 166.426)"/><path class="b" d="M262.111,1087.907l-2.5,37.346-3.168-37.964,3.322-17.6C261.215,1081,262.111,1087.907,262.111,1087.907Z" transform="translate(139.797 594.982)"/><path class="b" d="M295.393,1006.527l-29.126,154.19L246.52,1006.851,277.747,836.36Z" transform="translate(134.389 467.784)"/><path class="b" d="M317.687,754.6s6.567-208.718,6.551-208.579c0,0,.7-7.757,1.808-20.257.046,14.262.093,23.285.093,23.285S317.7,757.825,317.7,757.933l22.08,209.213V1176.08l-28.6,136.065L289.72,1172.866c.417-7.54,11.542-209,11.542-209S317.672,754.689,317.687,754.6Z" transform="translate(157.939 298.462)"/><path class="b" d="M337.1,1260.558V1051.392s-22.08-209.274-22.08-209.182c0,0,8.3-248.567,8.127-293.438,5.269-58.715,11.434-127.613,11.45-127.706,0,0,.386-21.169.912-50.016,2.04,28.786,3.538,49.877,3.538,49.877s-1.669,209.228-1.653,209.367L376.134,838.92c-.788,4.929-33.607,209.12-33.607,209.259,0,0,5.516,209.352,5.516,209.228l-31.49,209.522-5.609,99.986-.587-3.137,3.229-97.1-8.436-54.791Z" transform="translate(166.351 214.123)"/><path class="b" d="M300.851,1083.663l-.618,18.727-3.183-17,2.4-10.893Z" transform="translate(161.935 597.604)"/><path class="b" d="M308.2,1160.6l-.433,7.556.294-8.313Z" transform="translate(167.779 644.127)"/><path class="b" d="M180.42,687.3c-.17,1.607-2.75,24.969-6.1,55.563-3.09-29.929-5.377-52.056-5.377-52.056l3.368-41.966Z" transform="translate(92.097 360.369)"/><path class="b" d="M27.672,997.992s1.5-209.259,1.5-209.367L16.64,580,46.276,463.11,68.835,580c-.433,4.2-21.74,208.718-21.74,208.718s2.41,209.259,2.426,209.4l33.128,167.8c-.34,24.274-.587,41.317-.587,41.317s.556,9.286,1.452,23.919l-48.78,159.412c4.218-56.29,13.736-183.007,13.721-183.208C48.455,1207.344,27.657,997.838,27.672,997.992Z" transform="translate(9.071 264.309)"/><path class="b" d="M106.068,1027.908,93.83,819.206l48.61-209.182-.015-.124L119.279,400.889,115.632,192.6,145.453,23.92c2.426,47.467,15.838,170.46,15.838,170.46l-5.423,209.583L169.8,613.253l4.635,209.212s-8.406,208.811-8.406,208.718l-26.885,167.957C127.5,1138.788,106.068,1027.908,106.068,1027.908Z" transform="translate(51.151 13.045)"/><path class="b" d="M124.022,805.58l.9,5.686v56.861l-2.349-53.493C122.632,814.264,123.157,811.034,124.022,805.58Z" transform="translate(66.818 447.279)"/><path class="b" d="M28,436.564c.216-2.07,4.883-46.741,9.858-94.254l14.061,94.455L38.368,490.242Z" transform="translate(15.264 190.233)"/><path class="b" d="M317.17,137.005V126.56l1.993,11.944-1.684,7.015C317.324,140.111,317.17,137.005,317.17,137.005Z" transform="translate(172.903 68.999)"/><path class="b" d="M578.233,852.955l7.509,208.224-24.413,129.885c1.777-58.994,3.894-129.576,3.894-129.576L556.74,852.522s1.3-60.616,2.488-116.612C568.313,791.952,578.233,853.109,578.233,852.955Z" transform="translate(143.619 410.642)"/><path class="b" d="M470.885,1075.843s-.185-13.474-.448-33.468c2.719-59.905,7.865-172.593,7.865-172.593l8.977-165.732c5.686,61.729,14.972,162.642,14.972,162.642s29.96,209.537,29.96,209.274c0,0-8.606,209.444-8.56,209.166l-36.095,153.324c-.525-61.512-1.3-151.5-1.3-151.5s-14.586-173.906-17.089-203.774Z" transform="translate(119.768 395.656)"/><path class="b" d="M404.03,881.109c.943-45.566,1.808-86.466,1.808-86.466s-8.1-209.29-8.112-209.444L368.77,376.233c.587-6.536,18.712-207.976,18.7-207.868l16.579-98.9c2.21,50,2.766,98.271,2.766,98.271V379.323l-1.514.247c-.185,27.287-1.422,205.52-1.422,205.628L418.74,794.333Z" transform="translate(201.033 37.871)"/><path class="b" d="M622.255,865.08l22.173,123.349L638.9,1197.688l-55.841,150.157c-.633-61.3-1.514-148.226-1.514-148.226S616.29,923.456,622.255,865.08Z" transform="translate(148.46 483.44)"/><path class="b" d="M399.53,364.967s.973-66.8,1.823-124.77c2.41-43.588,4.5-81.475,4.5-81.475L418.211,89.9l-1.931,67.353,39.54,208.038c-.263,3.538-11.681,152.629-15.065,196.82L399.36,389.21C399.468,374.376,399.53,364.967,399.53,364.967Z" transform="translate(217.709 49.014)"/><path class="b" d="M604.478,1449.228s-7.525-210.129-7.556-210.409l-33.514-209.554V819.774l47.1-209.6L553.89,401.008c.742-9.519,16.224-208.4,16.224-208.4L590.062,41.88l9.379,29.383L586.987,185.637,607.97,396.653l34.549,210.6L583.294,817.985l46.849,164.321-7.432,42.449s-.912,210.674-.912,210.8l11.836,66.294c-6.289,61.986-14.942,147.3-14.942,147.3s-26.994,209.756-27.009,209.865V1823.4l.417,1.12L565.37,1658.347Z" transform="translate(140.257 22.836)"/><path class="b" d="M326.309,511.1,289.55,326.334,328.07,166.35c1.051,35.863,2.441,83.191,3.43,116.535C330.435,306.881,327.267,457.934,326.309,511.1Z" transform="translate(157.846 90.69)"/><path class="b" d="M1945.761,184.89l19.871,63.1-21.694,143.482.015.108s32.865,208.764,32.85,208.656V809.422l-36.79,173.86,20.071-170.615-.062-.309S1924.87,603.207,1924.9,603.393L1912.54,454.533c2.256-35.415,4.033-63.4,4.033-63.4s-1.391-11.511-3.523-29.126l30.115-177.382L1916.82,49.443l1.5-7.633,44.207,67.971Z" transform="translate(488.039 22.798)"/><path class="b" d="M1018.52,246.832l10.646-53.323v-.185L1064.411,25.66l8.684,167.787-27.905,152.4Z" transform="translate(260.689 13.994)"/><path class="b" d="M316.84,91.12l5.532,50.835-5.532-31.706Z" transform="translate(172.723 49.679)"/><path class="b" d="M391.047,735.192s.433-20.643,1.02-48.935L413.2,561.58c1.545,58.5,4.666,176.811,4.666,176.9l42.507,208.95-33.035,150.2L433,944.127l-45.087-192C389.857,741.62,391.047,735.192,391.047,735.192Z" transform="translate(211.467 313.801)"/><path class="b" d="M317.78,160.534l5.393-22.374c-.633,14.215-2.07,47.1-3.631,82.233C318.877,198.158,318.259,176.819,317.78,160.534Z" transform="translate(173.236 75.323)"/><path class="b" d="M601.56,893.549s.912-209.274.912-209.151c0,0,2.086-11.867,5.269-29.9l9.549,33.252c-.077,4.666-3.2,209.1-3.2,209.1s-1.777,17.46-4.311,42.275C604.975,912.539,601.56,893.549,601.56,893.549Z" transform="translate(155.803 364.315)"/><path class="b" d="M1512.093,1002.735c-5.547-61.729-13.2-146.789-13.2-146.789l-6.938-132.5,29.327,135.957C1521.133,861.941,1515.956,942.412,1512.093,1002.735Z" transform="translate(384.834 402.666)"/><path class="b" d="M1411.28,980.65l24.151,154.02-29.4,141.5-23.486-139.851Z" transform="translate(354.045 546.442)"/><path class="b" d="M1292.388,724.046s-13.381,209.182-13.381,209.336l21.215,418.78-47.034,188.2c-6.227-53.214-22.018-188.075-22.018-188.075l-8.7-209.4V933.722c1.5-6.428,49.383-209.073,49.414-209.336l8.606-143.1C1285.589,642.493,1292.388,724.185,1292.388,724.046Z" transform="translate(310.627 328.734)"/><path class="b" d="M1518.339,371.87l-18.109-208.3,18.6-85.879c4.852,46.045,9.224,87.5,9.224,87.5l8.019,209.367-11.249,43.032C1521.059,390.952,1518.339,371.87,1518.339,371.87Z" transform="translate(386.2 42.358)"/><path class="b" d="M1245.3,295.272c-.247,2.07-5.949,49.63-11.836,98.843.788-50.387,1.545-99.121,1.545-99.121l-2.024-76.284Z" transform="translate(319.667 121.584)"/><path class="b" d="M1330.424,157.971l13.891-69.331c-.139,38.721-.247,70.381-.247,70.381s-7.154,58.113-13.937,113.151C1330.269,216.933,1330.424,157.971,1330.424,157.971Z" transform="translate(344.662 48.327)"/><path class="b" d="M1399.2,950.724c.031-.448.479-6.876,1.19-17.244l5.81,20.087-3.538,19.16Z" transform="translate(363.338 518.172)"/><path class="b" d="M1485.857,674.96c.062,1.1.139,2.642.247,4.62l-.664-3.059Z" transform="translate(386.458 374.546)"/><path class="b" d="M1484.59,1268.611c3.291-60.848,9.1-168.791,9.1-168.791l7.4-55.27C1498.79,1076.937,1484.59,1268.611,1484.59,1268.611Z" transform="translate(384.418 581.277)"/><path class="b" d="M1152.839,1067.24l1.592,21.941-3.94,17.97Z" transform="translate(299.026 593.646)"/><path class="b" d="M1484.016,831.507,1460.7,623.546l47.39-207.327V208.628L1501.029,10.34l22.034,38.876L1538.5,96.528l-22.467,103.679,26.638,268.33-39.772,152.2,41.333,185.433c-1.329,12.717-2.148,20.6-2.148,20.6l-26.515,129.05-9.3,34.426C1497.629,928.542,1484.016,831.507,1484.016,831.507Z" transform="translate(370.482 5.642)"/><path class="b" d="M1465.949,1120.395l-28.879-118.559,38.752-156.276c2.627,61.759,6.629,155.936,6.629,155.843Z" transform="translate(368.862 470.604)"/><path class="b" d="M1468.257,815.276l-3.291,13.3-.556-12.917,2.6-11.542Z" transform="translate(380.628 446.302)"/><path class="b" d="M1491.75,454.054l36.033-137.9,19.191,134.984c-.34,3.214-11.62,111.281-17.831,170.692Z" transform="translate(381.735 176.03)"/><path class="b" d="M1491.91,680.4l-1.87,8.313-.68-13.025c.077-.386.479-2.3,1.128-5.47Z" transform="translate(387.262 371.965)"/><path class="b" d="M1368.42,867.712l37.439-159.752c7.432,62.038,18.758,156.461,18.758,156.369l-10.955,159.861Z" transform="translate(350.07 394.237)"/><path class="b" d="M1474.688,1102.625v196.6l-23.208-197.361c.17-1.282,3.678-26.484,8.174-58.947Z" transform="translate(375.087 580.388)"/><path class="b" d="M1392.25,679.4l5.315-16.116,1.205,19.283-4.064,17.306Z" transform="translate(361.585 368.177)"/><path class="b" d="M1520.3,536.72l1.422,6.366-9.966,36.883C1516.6,556.421,1520.3,536.72,1520.3,536.72Z" transform="translate(392.22 297.946)"/><path class="b" d="M1877.086,926.78v27.735l-3.569,12.856-4.156-13.041Z" transform="translate(485.322 514.46)"/><path class="b" d="M1886.357,726.493s-2.271-87.409-3.878-149.153l36.3,149.075V872.988l-9.008,66.163,3.353,13.628-34.858,123.04c.34-60.956.772-140.067.772-140.067Z" transform="translate(482.826 322.393)"/><path class="b" d="M1801.622,1046.83c-.34,30.625-.587,53.493-.587,53.493l-5.361,28.74-4.372-30.609C1791.656,1096.6,1795.936,1075.245,1801.622,1046.83Z" transform="translate(464.696 582.52)"/><path class="b" d="M1845.012,1072.02l2.132,12.809-6.474,25.464.927-25.65Z" transform="translate(478.051 596.252)"/><path class="b" d="M1924.952,831.24l-42.832-175.1c-.525-20.071-.88-33.591-.88-33.591l-3.57-16.765c11.511-49.661,44.608-192.386,44.639-192.479,0,0,.711-11.28,1.823-28.57,1.607,19.33,37.779,241.089,37.779,241.089-1,8.467-24.537,208.533-24.537,208.533l-12.408,97.607V831.24Z" transform="translate(476.132 215.032)"/><path class="b" d="M1973.276,732.488s.262-209.321.262-209.444L1940.565,314.4,1960.4,183.22l42.152,133.825c-.618,6.443-20.18,209.305-20.18,209.444l17.661,209.166,9.425,208.672-9.039,209.29s-4.821,83.531-8.359,145.012c-6.4-61.775-15.374-148.349-15.374-148.349l-47.42-208.826Z" transform="translate(369.572 104.28)"/><path class="b" d="M1679.533,1208.325c-1.082-12.315-2.287-25.928-3.523-39.849,2.086-11.758,4.218-23.733,6.273-35.276Z" transform="translate(435.313 629.604)"/><path class="b" d="M1135.972,535.5s30.686-209.413,30.7-209.552c0,0-3.986-97.035-6.536-159.026,11.851,60.879,31.923,163.971,31.907,163.878,0,0,.4,130.24.572,184.3l-5.068,20.21s.278,25.912.634,59.411c-4.914,61.589-12.1,151.517-12.1,151.517l-4.6,208.563s17.553,208.316,17.553,208.208l-11.527,208.44-5.856,99.492c-3.662-50.4-7.216-99.214-7.216-99.214l7.587-209.151-54.822-196.4.757-15.946-3.106-12.809c3.693-48.966,14.555-192.726,14.555-192.726Z" transform="translate(283.28 91.001)"/><path class="b" d="M1937.78,155.767l13.551-60.647,10.383,58.824-7.958,52.55Z" transform="translate(374.21 51.86)"/><path class="b" d="M1053.048,951.978c-.062-2.673-.108-4.141-.108-4.141s.17-1.174.479-3.307C1053.419,944.53,1053.28,947.312,1053.048,951.978Z" transform="translate(273.952 524.146)"/><path class="b" d="M1050.16,1098.139s1.082-21.447,2.534-50.619c.757,30.038,1.329,52.334,1.329,52.334l-3.477,119.857C1050.361,1162.386,1050.16,1098.139,1050.16,1098.139Z" transform="translate(272.955 582.896)"/><path class="b" d="M1974.4,1054.262l-5.408,38.783c.8-19.577,2.04-49.089,3.26-78.9C1972.992,1027.84,1973.719,1041.515,1974.4,1054.262Z" transform="translate(391.224 564.705)"/><path class="c" d="M3.677,1890.21l5.1.171h6.351c.556-4.432,10.677-84.135,18.279-144.138L28.2,1890.381h5.732s7.911-210.873,7.973-211.76L93.512,1508.86c3.677,61.154,27.643,381.506,27.643,381.506h14.076l3.106-.062s-1.483-17.026-3.492-41.391v-169.2L193.3,1478.959l36.249,202.492-36,208.93h5.748l36-208.93-.015-.124s-37.578-209.505-37.562-209.412v-213.8s-1.684-8.443-4.28-21.908c8.931-56.131,29.45-185.233,29.45-185.233s6.49-162.128,8.066-201.575l29.28,139.691c-2.781,34.8-4.944,62.024-4.944,62.024s3.755,36.7,8.143,79.439c-6.443,58.961-33.437,338.56-33.437,338.56l22.76,210.671,4.326,210.609h5.732c-.062-2.752-4.342-210.7-4.342-210.7L235.727,1469.1c.278-2.97,19.469-210.733,19.469-210.733l11-100.741c5.346,52.166,10.646,103.82,10.646,103.82l-18.31,210.531,60.292,209.4v51.467l-27.457,157.183,7.648.358h3.214L320.6,1790.247v99.995H327v-130.1l12.469-80.418-40.653-210.92,70.35-210.22s-16.039-210.982-16.039-211.091L320.6,837.554l65.36-210.143-.015-.264S373.43,416.771,373.415,416.973l15.1-227.277c1.406,11.895,19.685,138.12,19.685,138.12h.7c7.278,47.8,15.9,91.754,15.9,91.754V840.788L375.81,1051.024l31.984,179.061c.2,19.125.34,31.844.34,31.844l1.885,18.332-34.859,191.717s14.416,113.009,22.08,173.058l-6.737,35.871,6.351,76.594L388,1890.365l1.313.031h4.419c.108-1.524,3.106-46.662,6.3-94.6l7.849,94.6h1.622l4.11-.093L402.6,1757.454c2.735-41.127,5.053-75.91,5.053-75.91l-4.682-36.477,30.007-159.78L459,1655.2l-5.763,26.449,8.05,43.366-5.547,165.362h21.184c.108-1.866,1.591-28.594,3.461-62.444l11.589,62.444h3.075l2.658-.124L481.714,1804.1c3.229-58.152,6.891-124.236,6.891-124.236s31.49-210.78,31.49-210.9c0,0-5.516-210.671-5.516-210.531l33.638-210.687-.031-.124s-37.918-210.081-37.9-209.925V627.085s-3.353-59.194-7.278-114.766c.881-49.072,1.715-95.237,1.715-95.237l9.348-209.863V0H502.62l-3.4,1.866L497.8,0h-5.871l-7.973,161.055c.278,26.915.819,58.106,1.344,76.127L441.664,419.617l.031.155s41.657,210.687,41.642,210.547c0,0-18.279,207.142-18.294,207.266,0,0-6.567,210.034-6.567,209.925L432.146,1438.7c-4.6-44.641-12.67-122.867-16.332-158.38l3.415-18.752-5.655-31.657c-.618-58.65-1.87-177.646-1.87-177.552l62.949-419.119L437.384,424.359,472.15,215.678,477.017,0H455.8l10.615,215.631L431.636,424.39,468.9,633.273s-62.918,418.886-62.918,418.995c0,0,.865,82.145,1.5,143.609L381.62,1051.07,432.47,840.959s-3.832-421.389-3.832-421.5c0,0-7.432-49.725-15.22-100.865V0h-5.346V285.29c-6.32-41.515-11.511-76.547-11.511-76.547L383.2,96.107,393.7,0h-5.748L374.527,97.367S378.7,207.39,378.7,207.235c0,0-16.1,209.536-16.1,209.723l12.5,210.112L309.693,837.352l.046.327s32.572,210.267,32.572,210.158L358.3,1258.228l-70.4,210.391,40.7,211.137-4.218,23v-21.6l-60.075-209.318c.479-5.52,18.279-210.267,18.279-210.407,0,0-7.309-71.291-13.412-130.874l9.07-83.062-12.268-58.526L277.8,840.819,243.453,630.443,289.9,419.555s-2.364-29.823-5.006-66.938L326.752,236.3V0H321.39V236.669L284.152,341.9c-4.187-60.081-8.591-133.114-5.223-133.036L302.277,0H291.383c-2.735,24.971-23.9,208.712-23.9,208.836l16.688,210.609L237.7,630.4l34.364,210.485c-.17,2.13-5.593,70.188-10.229,128.309L234.259,837.663c0-3.032,1.437-210.485,1.437-210.485V416.833l-6.443-209.49L262.783,0h-5.64c-1.53,22.53-33.607,207.313-33.607,207.313l6.351,209.536V724.2c-1.066-48.637-3.214-94.024-3.214-94.024L212.72,419.617l5.423-210.889L199.293,0h-5.64l-32.6,206.893,3.662,209.754,23.146,210.267-48.61,210.454S151.5,1047.6,151.5,1047.7l36.2,188.529-4.033,25.391,6.814,207.219-61.373,210.671v99.077c-4.156-50.518-8.112-99.046-8.112-99.046s-11.218-210.889-11.218-210.718v-210.5l41.147-210.578-44.407-210.2,68.249-210.049-.077-.544s-33.36-210.5-33.329-210.314l5.022-209.5L138.368,0H121.217l10.09,206.924s-7.108,210.034-7.092,210.22L157.481,627.1l-68.3,210.174,44.469,210.516L94.084,1257.87s-1.128,80.574-1.993,142.07c-12.052-61.449-29-141.65-29-141.65V1047.805l20.55-210.158L58.607,707.115l20.071-79.657S66.9,547.879,57.85,486.679c4-38.437,7.247-69.768,7.247-69.768L35.26,197.641V0H28.245c.015,4.276.464,195.558.464,195.464L59.4,416.818l-4.9,47.113c-4.048-27.366-6.969-47.02-6.969-47.02L14.03,207.126V0H3.693L0,207.484l49.754,301.99L37.516,627.147l12.84,66.922L14.231,837.429l.015.233s12.547,210.158,12.547,210.065c0,0-1.5,210.578-1.5,210.734,0,0,20.8,210.842,20.8,210.578L30.378,1679.664ZM489.347,375.924c-1.066,24.147-4.218,176.153-5.192,229.656L447.4,419.648l38.52-160.993C486.967,294.759,488.358,342.37,489.347,375.924ZM495.1,192.837l-5.532-31.922V141.681Zm-3.029,15.969-1.684,7.059c-.155-5.458-.309-19.078-.309-19.078Zm4.326,6.017c-.634,14.3-2.07,47.393-3.631,82.751-.649-22.375-1.282-43.848-1.761-60.236ZM475.549,1811.782l.278-8.381.139.762ZM471.5,1624.341l31.938-152.285V1261.571s-22.08-210.594-22.08-210.5c0,0,8.3-250.134,8.128-295.288,5.269-59.086,11.434-128.418,11.449-128.511,0,0,.386-21.3.912-50.332,2.04,28.968,3.538,50.192,3.538,50.192s-1.669,210.547-1.653,210.687l38.737,209.94c-.788,4.96-33.607,210.438-33.607,210.578,0,0,5.516,210.671,5.516,210.547l-31.49,210.842-5.593,100.617-.587-3.157,3.229-97.709Zm-10.121,46.382,1.406,9.236-.633,18.845-3.183-17.1Zm-13.721-202.057c.417-7.588,11.542-210.314,11.542-210.314s16.394-210.485,16.409-210.578c0,0,6.567-210.034,6.551-209.894,0,0,.7-7.806,1.808-20.385.046,14.352.093,23.432.093,23.432s-8.436,210.1-8.436,210.2l22.08,210.531v210.251l-28.6,136.923Zm-48.1,194.578c1.452,11.381,2.349,18.332,2.349,18.332l-2.5,37.581-3.168-38.2Zm12.577-362.8,17.646,171.24L400.64,1626.844l-19.747-154.835Zm-151.1-249.357,3.368-42.231,8.112,38.7c-.17,1.617-2.75,25.127-6.1,55.914C263.323,1073.368,261.037,1051.086,261.037,1051.086Zm-70.721,168.751c-11.666-60.734-33.1-172.328-33.1-172.328L144.981,837.492l48.61-210.5-.015-.124L170.429,416.538l-3.647-209.6L196.6,37.193c2.426,47.766,15.838,171.535,15.838,171.535l-5.423,210.9,13.937,210.609,4.635,210.531s-8.406,210.127-8.406,210.034Zm1.437,95.688L189.4,1261.7c.062-.373.572-3.623,1.452-9.111l.9,5.722v57.22ZM53.616,681.117,43.264,627.1c.216-2.083,4.883-47.035,9.858-94.848L67.183,627.3ZM43.8,1653.386c4.218-56.644,13.736-184.16,13.721-184.363L36.744,1258.352s1.5-210.578,1.5-210.687L25.711,837.725,55.347,720.1,77.906,837.725c-.433,4.229-21.74,210.034-21.74,210.034s2.41,210.578,2.426,210.718l33.128,168.86c-.34,24.427-.587,41.578-.587,41.578s.556,9.345,1.452,24.069Z" transform="translate(0 0.005)"/><path class="c" d="M394.2,1890.086l6.258.3h4.62c1.313-7.23,38.18-210.422,38.2-210.562L454.9,1527.471c7.2,62.087,17.862,154.1,17.862,154.1l12.763,208.805h3.507l2.225-.031-12.778-208.9-21.308-183.8c1.329-17.353,2.179-28.657,2.179-28.657l.912-24.723L500.2,1261.477l-.031-.155s-42.538-210.422-42.522-210.282c0,0-4.79-182.777-5.439-207.22l1.051-6.219s-.077-1.011-.185-2.581l28.168-182.543c2.519,55.883,8.344,185.42,8.344,185.42s38.227,209.847,38.211,209.754l12.9,210.484s.834,215.274,1.066,217.995l-48.008,203.736,22.76,210.531h5.732l-22.76-210.438,43.774-185.746c4.5,53.985,16.348,187.177,16.348,187.177v176l-6.876,32.559,7.278.436H563.6l2.766-.016s-.031-4.2-.093-11.413c10.322-44.143,46.524-198.854,46.555-199.087,0,0,8.606-210.765,8.591-211.029l-29.96-210.78-19.253-210.5,38.876-209.925-.031-.234S580.9,626.649,580.92,626.882V416.756c1.514-5.878,42.723-160.962,52.828-200.347,3.6,37.457,19.546,203.332,19.546,203.332L684.274,630.3c-.139,2.55-13.474,212.164-13.474,212.164v210.189s4,26.293,9.472,60.236c-1.313,62.133-3.152,148.74-3.152,148.74l8.467,210.267s-3.152,105.592-4.991,166.87l-7.88,42.184,3.337,20.742-30.5,188.591,1.962.078h3.77c.757-4.634,18.109-111.967,27.627-170.866L704.67,1879.59l-3.786,10.247,5.439.529h10.414l.8-.031,5.732.031v-.28l.325-.015s-.572-23.6-.773-43.848l61.4-166.155,5.547-210.967s-14.787-82.735-25.819-144.542c3.569-35.249,7.988-62.942,7.988-62.942V1050.946l-11.465-45.822c5.872-33.539,14.076-80.356,20.319-115.948l26.329,158.614c-.17,3.156-10.986,210.5-10.986,210.625,0,0,16.549,140.173,22.652,191.764-.819,11.537-1.313,18.674-1.313,18.674s.958,10.262,2.441,26.247c-2.349,56.427-7.679,184.58-7.679,184.58l-34.256,210.7.711.031h5.022c1.174-7.2,34.225-210.485,34.24-210.578,0,0,3.353-80.714,5.918-142.272,5.748,61.574,33.885,352.834,33.885,352.834h11.45l-20.644-210.889s-19.67-210.936-19.67-210.687c0,0,41.734-841.705,41.734-841.814L860.112,416.724V207.111l9.194-100.632V0H857.84c-.046,2.13-1.437,59.91-3.909,106.121-2.735,51.062-5.269,101.021-5.269,101.021V416.8S859.2,627.147,859.185,627.054l-4.141,210.485-11.233,210-11.434,210.5s-7.046,99.5-11.449,161.786c-7.355-62.242-19.067-161.444-19.067-161.444l11-210.656-29.11-175.36c3.6-20.571,6.041-34.456,6.041-34.456l21.23-210.7,11.187-210.36L782.283,207.344l17.352-83L779.98,31.331,783.8,0H778L751.72,207.126,807.87,382.47l6.227,34.767c-.185,3.638-10.77,210.08-10.77,210.08l-31.089,210.36,5.748,34.643c-5.733,32.684-14.416,82.222-21.076,120.317L713.647,840.943l59.179-210.562-.031-.171L738.231,419.57,717.263,208.821,729.717,94.475,716.228,52.882l7-52.882H700.761c-.355,3.343-39.556,424.546-39.556,424.546L717.742,633.3,680.6,799.4l9.395-169.156L659,419.57s-20.257-210.78-20.257-210.656L651.332,0H645.6c-2.04,22.033-20.4,207.095-20.365,206.893l-11.249,43.8L566.5,115.232V0H552.829V114.875l56.846,152.068.541-1.555L571.432,416.382s-2.8,210.469-2.781,210.687l31.505,210.516L564.139,1032.07C553.586,980.743,524.815,840.8,524.815,840.9l-11.3-210.453,45.226-210.967-.031-.156s-44.763-210.593-19.639-210.127L522.281,0H516.5c-.278,6.9-8.251,208.945-8.236,209.039L553,419.477,507.788,630.319s11.311,210.64,11.326,210.749L561.4,1046.779l-.124.622s-11.944,248.735-13.814,289.986c-.572-42.7-13.953-289.861-13.968-289.955,0,0-38.227-209.831-38.211-209.738,0,0-9.472-210.516-9.472-210.422l16.023-210.485L462.3,207.421l10.2-105.872,22.358-35.171L491.255,0h-5.362V65.274L459.61,101.41c-6.86,38.53-13.814,77.4-17.136,96.061l-6.2-141.2L405.113,0H394.189l31.088,53.364-25.6,153.794L380.932,416.787l.015.171S409.919,627.427,409.9,627.271L418,837.787s-2.132,102.762-3.4,164.445l-7.648,45.356,3.755,16.062c-9.07,49.15-35.863,194.3-35.878,194.407,0,0-20.968,210.547-20.968,210.764l10.492,210.7-38.922,210.3,11.4.544,38.984-210.64-.015-.171s-10.507-210.873-10.507-210.655c0,0,20.968-210.547,20.952-210.422,0,0,19.515-105.7,30.872-167.321L456.165,1258.4c-.247,6.841-7.695,210.422-7.695,210.422s-16.085,210.765-16.054,210.624ZM793.1,299.953l-34.549-93.06L777.724,49.787l16.131,74.634-17.336,82.906ZM777.972,837.678c.34-2.13,7.2-45.931,14.6-93.044-4.419,48.264-8.514,93.044-8.514,93.044s-1.19,6.748-3.121,17.8ZM760.3,1304.112c-4.79-26.759-8.2-45.884-8.2-45.884s.912-210.594.912-210.469c0,0,2.086-11.942,5.269-30.087l9.549,33.461c-.077,4.7-3.2,210.422-3.2,210.422S762.829,1279.141,760.3,1304.112Zm-39.139,377.65s34.75-277.9,40.715-336.648l22.173,124.126-5.532,210.578-55.842,151.1C722.053,1769.225,721.157,1681.762,721.157,1681.762Zm-31.2-.762,39.061-209.07s-7.525-210.049-7.556-210.329l-33.514-209.474V842.716l47.1-209.521L678.434,424.11c.742-9.516,16.224-208.323,16.224-208.323L714.605,65.119l9.379,29.372L711.53,208.821l20.983,210.936,34.549,210.516L707.838,840.928l46.849,164.258-7.432,42.433s-.912,210.594-.912,210.718l11.836,66.269c-6.289,61.962-14.942,147.248-14.942,147.248s-26.994,209.676-27.009,209.785v164.32l.417,1.12Zm-7.123-419.4s1.3-61,2.488-117.347c9.085,56.4,19.005,117.922,18.99,117.767l7.509,209.536-24.413,130.7c1.777-59.365,3.894-130.393,3.894-130.393ZM547.5,1476.253l1.746-7.385s-.185-13.559-.448-33.679c2.719-60.283,7.865-173.68,7.865-173.68l8.977-166.777c5.686,62.118,14.972,163.667,14.972,163.667s29.96,210.858,29.96,210.594c0,0-8.606,210.765-8.56,210.485l-36.095,154.291c-.525-61.9-1.3-152.456-1.3-152.456S550.017,1506.309,547.5,1476.253Zm-120-849.262,14.864,210.453-14.71,87.322c.943-45.853,1.808-87.011,1.808-87.011s-8.1-210.609-8.112-210.764L392.4,416.709c.587-6.577,18.712-209.287,18.7-209.178L427.672,108c2.21,50.316,2.766,98.891,2.766,98.891V419.819l-1.514.249C428.738,447.527,427.5,626.9,427.5,626.991Zm53.555-12.035L439.663,440.965c.108-14.911,1.143-91.614,1.993-149.937,2.41-43.863,4.5-81.989,4.5-81.989l12.361-69.255-1.931,67.777,39.54,209.35C495.859,420.456,484.441,570.471,481.057,614.957ZM451.282,809.5c-4.048-57.251-12.9-182.606-12.9-182.606s.7-100.305,1.128-162.376L478.94,630.272C478.214,634.984,460.167,751.9,451.282,809.5ZM421.971,1064.94c1.947-10.573,3.137-17.042,3.137-17.042s.433-20.773,1.02-49.243l21.138-125.464c1.545,58.868,4.666,177.925,4.666,178.019l42.507,210.267L461.4,1412.628l5.655-154.478Z" transform="translate(177.406 0.005)"/><path class="c" d="M675.06,1679.664l16.162,210.718h2.7l3.013-.062s-16.162-210.765-16.162-210.625l21.431-210.842V1258.228s19.979-210.562,19.979-210.687L706.643,837.4,688.92,626.836l4.033-210.22,57.139-200,5.841,202.866-47.2,211,74.414,210.3-55.455,210.22.015.155s30.347,210.469,30.347,210.376c0,0,4.682,210.3,4.682,210.2l-24.475,209.894L755.7,1890.366h4.883l.85-.016-17.445-208.774c.4-3.452,24.475-209.676,24.475-209.769,0,0-3.909-175.718-4.589-205.96L797.3,1445.3l-3.013,26.651,5.331,27.879c-3.971,58.6-13.01,179.947-13.01,179.947V1890.35h4.914c.046-6.624,1.622-210.531,1.622-210.531l10.692-157.883,30.439,159.454-8.823,188.545-7.077,19.685,6.119.575v.14h5.733l.062-1.477,75.063-208.992-67.755-211.418,6.057-210.236L899.8,1047.9v-.218l-4.774-210.049s3.94-210.547,3.925-210.827L864.124,416.538c1.205-7.619,33.205-209.194,33.236-209.427L828.014,82.735,829.3,36.2l55.409,55.649L937.271,208.93l24.954,210.594c-.834,6.608-26.623,210.562-26.638,210.733,0,0-2.4,210.609-2.4,210.718l12.964,209.909-39.973,210.765.062.3s46.463,210.267,46.432,210c0,0,2.349,80.7,4.141,141.945l-17.136,67.016,17.537,69.565-3.168,139.847h10.878c0-.109.108-4.463.263-11.88,1.7-13.621,4.713-37.644,8.05-64.388l19.237,76.3h4.033l1.715-.109-23.069-91.489c7.108-56.8,14.88-119,14.88-119s3.662-18.208,8.823-43.91c1.5,26.682,1.082,45.776,1.082,45.776V1890.35h4.218c.015-.855,3.013-208.758,3.013-208.758s-1.715-30.382-3.832-68.011c5.81-28.905,12.531-62.366,18.032-89.826.278,62.46,4.481,366.595,4.481,366.595h17.182c-.046-2.254-3.8-210.624-3.8-210.624s-.927-210.8-.943-210.578c0,0,20.01-210.656,20.01-210.858v-210.9L1024.68,837.6c.881-8.381,22.142-210.22,22.1-209.971l46.462-210.609-.046-.373s-24.63-209.583-24.614-209.35L1043.067,0H1025.9c.34,21.488,25.51,207.359,25.526,207.577l.757,6.391c-6.181,35.482-35.368,202.757-35.368,202.866,0,0-.587,63.47-1.112,120.659-6.907-56.52-14.4-117.938-14.4-117.938s-18.681-210.811-18.681-210.7L1004.238,0H992.494C991.073,21.5,976.9,208.79,976.9,208.9c0,0,15.853,178.889,18.356,207.111L950.884,215.445,964.929,0h-10.94L942.818,203.115,895.459,92.251l-65.947-63.89L830.3,0H818.279c-.015,8.412-.294,83.14-.294,83.14s67.94,123.909,67.955,123.769l-33.3,209.676.031.233s34.858,210.5,34.843,210.22l-3.94,210.609,4.774,209.894-56.135,210.252-6.088,211.091,67.6,210.936-61.7,171.783L840,1681.3,805.331,1499.7l2.1-30.88-4.4-23.619,20.767-183.74s-15.714-136.317-21.864-189.509l4.4-24.334-6.072-80.045c.525-58.635,1.128-126.568,1.128-126.568s29.96-210.734,29.976-210.873l-5.408-210.594,14.509-211.013L795.489,105.359,791.533,0h-5.671c.324,9.174,1.715,84.259,1.715,84.259L761.511,0h-5.748l34.009,105.965C804.512,157.059,806.3,207,806.3,207L797.961,416.74l14.2,210.127L785.553,831.086l-71.015-200.7,47.142-210.749s-6.072-210.873-6.088-211L697.047,0h-5.81l55.842,207L687.236,416.4,683.2,626.9l17.723,210.625s15.56,210.127,15.56,210l-19.979,210.64v210.609C696.491,1468.775,675.06,1679.54,675.06,1679.664ZM1015.3,581.169c-.247,26.744-.417,45.885-.417,45.885l-38.6,420.5,32.417,117.036c-6.845,49.741-13.335,97.04-13.335,97.04s-1.221,44.734-2.519,92.967c-2.487-48.092-4.805-92.733-4.805-92.733L960.2,1052.3,985.68,842.545l-32.355-209.4,43.187-205.82C999.479,451.647,1008.95,529.252,1015.3,581.169Zm5.315,43.537c.448,3.592.68,5.6.68,5.6s-2.071,58.961-4.033,114.5l-9.781,92.92,9.008,55.6c3.09,62.211,7.834,157.7,7.834,157.6,0,0-6.737,48.979-13.705,99.7L982.034,1047.4c.494-5.66,18.047-209.8,18.047-209.8S1020.6,626.276,1020.616,624.706Zm6.4,5.535s-2.534-20.711-6-49.15c.572-61.869,1.514-164.1,1.514-164.1S1044.7,289.815,1054.5,233.668l21.524,183.119c-2.04,9.267-46.277,209.878-46.323,210.127l-3.832,36.353C1026.565,643.473,1027.013,630.241,1027.013,630.241Zm13.443,628.158-26.02-93.93c7.587-55.214,15.606-113.475,15.606-113.475s-2.657-53.644-5.3-106.712l16.78,103.633c-.031,6.919-.742,210.376-.726,210.189,0,0-.2,2.193-.572,6.08ZM995.986,1483.2l2.9-11.366s-.974-18.674-2.318-44.765c1.684-61.776,4.5-165.315,4.5-165.315s5.346-38.919,11.465-83.311l22.2,80.154c-.093,2.55-2.194,57.142-4.234,110.086-4.744,50.907-9.348,100.213-9.348,100.321,0,0,.046,10.5.124,26.775-4.852,24.147-12.268,61.045-19.175,95.47C999.71,1549.054,997.145,1503.7,995.986,1483.2Zm-24.645,300.373-3.662-14.492c1.035-45.978,1.978-87.509,1.978-87.509s-1.174-40.287-2.5-85.565l24.135-94.443c1.638,28.936,4.172,74.09,6.32,111.936-7.37,36.726-13.257,66.036-13.257,66.036Zm-4.867,38.888c.232-10.4.479-21.364.726-32.373l2.21,8.785ZM957.4,1634.2c.8,27.521,1.391,47.377,1.391,47.377l-1.082,47.922-12.237-48.559Zm-1.978-574.514c4.914,36.991,26.886,202.291,26.886,202.291l8.56,165.129c-.711,26.215-1.221,44.905-1.221,44.905s.232,4.058.618,11.04l-23.687,92.671c-1.53-52.135-3.044-103.975-3.059-104.115l-46.4-209.972ZM953.34,252.591l38.026,171.846L947.592,633.1l32.355,209.443-23.7,195.123C953.4,991.55,944.1,840.866,944.1,840.959c0,0,2.4-210.609,2.4-210.454l26.669-210.9C973.118,419.586,960.649,314.32,953.34,252.591ZM795.689,840.944s-.232,25.718-.525,59.163l-4.728-62.429,27.442-210.733-14.2-210.2,8.344-209.723-2.658-53.488,25.371,55.23c-.4,5.877-14.493,210.811-14.493,210.811s5.392,210.671,5.408,210.531C825.665,630.1,795.705,840.835,795.689,840.944Zm4.914,206.628-.912,4.991c-.108-.98-.17-1.524-.17-1.524s.046-5.955.139-15.829Zm-.572,424.344.834-7.448.834,4.494c-.031.451-.232,3.53-.587,8.676Zm-31.784-213.455,30.192-167.119,19.623,170.167-18.6,164.584Zm17.584-405.9,8.73,115.139c-.4,44.392-.742,83.419-.742,83.419l2.395,20.789-33.236,183.927L733.451,1051.1Z" transform="translate(151.147 0.005)"/><path class="c" d="M953.11,1890.3l2.117.078h3.616l.031-.264,3.137.264h2.009L1034,1679.757l-58.02-211.06c.2-4.913,8.035-210.594,8.035-210.594V1093.535l9.5-45.7-3.8-23.074,52.226-187.208L997.5,667.169l9.054-39.9L986.7,537.586c-.154-57.313-.34-121-.34-121L1014.282,207l22.173-131.077,6,131.605,11.743,43.863-33.36,168.161,7.8,210.889s17.506,210.531,17.522,210.671L1070.541,976.2l-14.973,71.711,18.125,55-31.366,158.629,36.064,210.3c-.232,6.25-8.066,209.536-8.05,209.365l-33.931,209.054,2.967.124h7.927c1.421-8.754,33.885-208.728,33.9-208.9l8.081-209.832-36.033-210.065,27.272-137.934,44.33,134.513c-.155,3.9-3.724,94.817-6.134,155.908-4.728,32.761-8.344,57.795-8.344,57.795s.942,37.348,2.024,80.527c-2.936,58.884-6,127.283-6,127.283v210.7h8.962c.155-5.582,6.011-208.93,6.011-208.93s-1.762-69.939-3.245-129.009c2.21-44.516,6.319-138.292,6.319-138.292,9.008-62.3,22.915-152.752,22.915-152.752V1050.729s-39.818-193.537-43.048-208.837l.9-4.323-14.432-320.633,13.4-100.29L1093.007,374.9l30.238-166.17-.031-.14L1115.473,0h-8.684l.448,8.614-50.557,230.372L1048.2,207.3,1041,49.243,1047.348,0h-10.909c-.587,4.307-1.19,49.181-1.19,49.181-10.445,61.791-54.466,367.217-54.466,367.31V511.4l-20.844-94.786c.124-4.043,6.629-209.381,6.629-209.381L947.1,70.016,964.049,0H953.094L937.04,70.016l23.8,137.11-6.644,209.63,26.9,121v89.157l10.631,40.271L953.079,837.476l30.872,187.193L977.6,1047.4s.108,19.234.247,45.962c-13.458,61.869-35.8,164.615-35.816,164.725l-4.852,210.733,42.955,211.06Zm162.58-208.852-3.477,120.612c-.185-57.686-.386-122.338-.386-122.338s1.082-21.582,2.534-50.938C1115.118,1659,1115.69,1681.452,1115.69,1681.452Zm.911-212.817s-.139,2.783-.371,7.495c-.062-2.69-.108-4.167-.108-4.167S1116.292,1470.781,1116.6,1468.635ZM1089.608,362.1l-26.669-99.637,10.646-53.659-.015-.187,35.26-168.72,8.684,168.829Zm-.6,125.355-4.141-67.684,5.825-32.031,7.757,28.983Zm7.37,286.037L1076.1,627.163l10.8-80.838c2.735,44.687,5.145,84.041,5.145,84.041S1094.505,711.857,1096.375,773.493Zm-13.644,339.167,12.222-61.822s-7.54-41.78-15.869-87.882l22.4-107.334,41.039,195.263c-.031,3.187-1.7,210.516-1.7,210.407,0,0-6.937,48.077-14.2,98.284l4-101.627Zm-9.5-121.654,10.8,59.785L1075.9,1091.9l-14.524-44.066Zm-12.748-716.133,26.793,100.088-8.128,44.718s2.9,47.408,5.949,97.18l-14.725,110.3,28.245,214.714-22.188,106.292c-9.626-53.3-19.392-107.411-19.392-107.411l-17.506-210.469L1031.742,419.8Zm-66.07,380.5-7.463-28.625c0-1.415-.077-28.485-.17-62.771l14.015,63.315Zm-6.845,356.364-28.74-174.193L994.8,679.018l41.348,158.536Zm-4.172,35.887,2.719-9.92,1.669,10.091c-.216,1.011-1.885,8.412-4.373,19.887v-20.058ZM959.228,1887.3l26.654-207.468L942.9,1468.713c.077-3.359,4.852-210.578,4.836-210.422l30.254-139.038c.324,61.029.726,138.867.726,138.867L970.23,1468.9l57.958,210.842Z" transform="translate(227.737 0.005)"/><path class="c" d="M1062.836,1679.741l57.619,210.64h5.748l-57.665-210.9c.68-6.017,23.842-210.469,23.842-210.469s43.944-210.438,43.959-210.562l8.39-176.806,49.924,180.009c-.17,4.587-7.571,210.329-7.571,210.329l10.368,143.625-7,119.866-33.715,154.773,2.287.125h3.446l25.881-118.793-6.907,118.731,4.388.063h1.329l9.008-154.7,11.774-54.063s-2.117-29.372-4.759-66.02c0,0,19.948-353.627,19.948-353.736L1205.577,1052.3l4.6-209.754s3.353-42.277,7.046-88.831c.494,45.978.927,87.214.927,87.214l8.406,210.08v210.64s11.913,210.345,11.913,210.2c0,0-25.819,209.676-25.819,209.832l14.154,208.665h3.353l2.364-.047s-14.154-208.728-14.154-208.588c0,0,25.819-209.676,25.819-209.816l-11.913-210.313V1051.008l-9.209-210.08V690.058c2.565-32.264,3.708-56.831,3.708-56.831s-.031-8.941-.077-23.121l47.482-190.489-46.447-210.889.788-34.083,25.062-34.907.664-.933-.525-.093L1268.912,0H1263.2l-14.6,137.763-19.824,27.568L1232.57,0h-5.717l-4,173.572-.309.42.294.047-.8,34.767,46.4,210.842-41.781,167.585c-.185-61.48-.51-162.843-.525-162.936l-39.169-202.43c-.34-8.225.263-221.866.263-221.866h-5.578V182.823l-31.428-119.6L1162.5,0h-5.7l-13.273,62.973s35.894,125.2,36.96,142.1l-.464,10.511s.464,2.363,1.236,6.406c1.885,46.1,8.081,197.61,8.081,197.486l-30.7,210.827-6.567,210.578-13.211,175.92L1094.11,837.4V626.992c.572-2.861,40.653-210.08,40.653-210.08l20.5-209.63L1126.218,0H1120.5l29.018,207.359c-.464,4.773-20.473,209.318-20.473,209.318l-40.668,210.158V837.585l49.1,197.439-1.205,16.124,3.57,12.859c-2.333,49.29-9.225,194.345-9.209,194.252l-43.959,210.516L1062.791,1679.6ZM1198.3,1699.6l2.349-40.162,1.592,22.079Zm-55.069-664.7c3.693-49.274,14.555-193.941,14.555-193.941l6.551-210.531s30.687-210.733,30.7-210.873c0,0-3.986-97.647-6.536-160.029,11.851,61.262,31.923,165,31.907,164.911,0,0,.4,131.061.572,185.467l-5.068,20.338s.278,26.076.634,59.785c-4.914,61.978-12.1,152.472-12.1,152.472l-4.6,209.878S1217.4,1262.006,1217.4,1261.9l-11.527,209.754-5.856,100.119c-3.662-50.721-7.216-99.839-7.216-99.839l7.587-210.469-54.822-197.641.757-16.046Z" transform="translate(258.201 0.005)"/><path class="c" d="M1192.5,1890.226l5.717.155c.015-.155,21.879-210.578,21.879-210.671l-5.887-210.811,4.929-210.562,29.481-210.5L1208.8,837.492c.927-4.96,28.075-150.062,36.7-196.226l43.82,196.553c-.417,6.966-12.531,209.847-12.5,209.6l-49.46,210.718v210.9s8.7,210.8,8.715,210.9l24.49,210.453h9.039l2.411-.093h0l1.947.093h1.221l52.288-210.516-.016-.218-12.284-210.858s-8.931-210.749-8.931-210.594c0,0,13.381-210.5,13.381-210.718,0,0-17.383-210.189-17.383-210.049,0,0,2.488-210.531,2.472-210.36,0,0,29.157-210.08,29.172-210.314l-12.346-210.345,3.446-165.688,31.243,91.3-6.428,74.837s-3.847,209.661-3.847,209.769l25.325,190.162-2.781,23.665s.68,4.68,1.808,12.47l-44.237,194.5,59.519,210.329c.016,4.385.51,210.485.51,210.485l-6.536,210.593-59.5,421.4,4.728.171h.989l62.516-421.436V1047.525l-56.46-210.142,40.715-179c8.313,57.189,26.561,182.575,26.561,182.575l10.507,210.018s-.417,210.594-.417,210.687l28.925,210.1-34.673,209.8,39.525,208.821h1.329l4.388-.218-39.494-208.634,34.657-209.754-.015-.109s-28.74-210.2-28.724-210.1V1050.93L1404.818,840.8,1376.047,642.96l3.647-16.015s-1.035-7.805-2.689-20.2c6.474-55.105,21.972-187.021,21.972-187.021s.093-.793.278-2.255l50.619,209.583-32.185,210.718,25.217,209.94-24.413,210.8,47.7,210.391-27.164,210.982,52.689,210.5h.618l3.477-.233,4.234.233h1.221l7.726-37.4,6.243,37.4,5.7-.233-8.761-52.539,32.587-157.774-26.808-171.923,6.66-36.307-10.461-36.431c4.048-59.506,12.052-176.93,12.052-177.039l-20.674-173.6,7.849-33.679s-.85-13.823-2.117-34.238l58.592-178.75L1563.1,627.054,1513.411,416.6l55.115-188.3,37.624,191.36c-.371,4.307-18.511,210.671-18.511,210.671l-5.979,210.671,11.31,210.127,20.334,182.015-6.412,28.672s.556,13.248,1.391,32.948L1564.6,1472.024l32.556,134.5-10.26,74.417,25,209.474h2.379l2.117-.062,5.207.046V1681.545l-18.7-75.086c8.282-60.112,18.573-134.793,18.573-134.793l-7.463-176.728,8.2-33.275s-1.267-11.273-3.183-28.423l29.25-130.8c3.245,62.429,8.112,155.893,8.112,155.893l16.517,185.016c-1.112,17.321-1.823,28.61-1.823,28.61s-1.854,26.184-4.249,60.034c-8.267,62.056-19.654,147.667-19.654,147.667l-11.295,210.656,5.732.078,1.592.016h3.307c.2-2.752,34.441-421.3,34.441-421.3s-.9-10.091-2.3-25.733l11.6-181.766-37.331-179.947,6.536-29.216s-1.483-10.682-3.77-27.039c3-14.725,7.216-35.342,11.743-57.562L1701.5,840.974l-5.346-24.148,19.67-189.416s-12.423-87.944-21.215-150.124l14.942-57.531-10.646-254.41,11.48,41.811,6.057,209.863,25.6,210.158-33.56,210.516,22.791,210.08c-.386,3.436-23.254,210.547-23.254,210.547l-6.891,210.733s14.972,210.8,14.988,210.671L1696.773,1890.4h5.732c.6-6.562,19.33-210.531,19.33-210.656l-14.972-210.718,6.891-210.609,23.254-210.64-22.791-210.049,33.56-210.531-.015-.109-25.618-210.2s-6.505-209.567-6.52-209.661l-30.3-128.325L1702.537,0h-5.779L1680.75,76.827l-2.4-22.857L1646.633,2.006,1646.556,0h-10.63c.185,2.939,12.655,215.616,12.655,215.616V424.343l-47.405,208.728,47.544,383.17-9.333,34.783,7.185,33.492-29.42,131.528c-6.922-61.9-18.434-165.051-18.434-165.051l-11.31-210.018,5.98-210.578,18.526-210.827L1572,216.549l.757-18.161L1622.127,0h-10.213l-42.059,185.093L1521.013,0h-5.748l49.259,193.754,1.715,22.717-58.576,200.082,49.754,210.671,6.737,210.422L1510.367,1001.7c-3.817-62.071-9.92-160.993-9.92-160.993s-9.843-210.547-9.843-210.64l-34.688-210.438c.417-4.556,24.475-311.677,24.475-311.677L1501.313,0h-9.58l-17.074,108.189L1469.3,208.7l-19.1,211,.015.093L1484.9,630.226l20.658,386.186-10.151,30.958s1.808,15.113,4.419,37.053L1458.574,1261.6l49.893,173.7-2.287,33.539,6.088,39.012-31.845,173.587,26.067,156.141-10.013,48.5-51.639-206.287L1472,1468.821l-47.7-210.407,24.4-210.7L1423.484,837.8l32.2-210.811-50.727-210.034c0-1.182.046-20.307.124-46.584,7.633-62.335,19.963-161.646,19.963-161.646V108.562l40.514-35.887L1448.793,0h-5.779l15.328,71.229-38.891,37.208-19.917,99V370.28c-3.492,28.5-25.557,213.594-25.557,213.594-8.189-61.527-22.3-167.352-22.3-167.352l3.847-209.614,6.459-75.148L1325.352,23.6l.479-23.6h-5.748c-1.576,22.484-2.766,207.064-2.766,207.2,0,0,5.686,209.614,5.7,209.381,0,0-29.157,210.08-29.188,210.267,0,0-1.3,109.386-2.024,170.524l-37.995-170.384c.031-2.146.386-25.034.85-54.981l18.418-154.929L1253.9,297.06,1275.273,0h-14.741C1260.455,2.317,1244,416.849,1244,416.849v210.3l-40.962,210.329,39.818,210.391c-.757,5.364-29.45,210.345-29.45,210.345l-4.929,210.686s5.887,210.858,5.887,210.749Zm64.572-1473.392-2.024-76.765,12.315,77.044c-.247,2.084-5.949,49.943-11.836,99.466C1256.314,465.89,1257.072,416.833,1257.072,416.833ZM1405.158,322.5c.139-55.571.294-114.906.294-114.906l13.891-69.768c-.139,38.965-.247,70.825-.247,70.825S1411.941,267.114,1405.158,322.5Zm240.641,731.62-.665-3.079.417-1.555C1645.613,1050.573,1645.691,1052.143,1645.8,1054.118Zm14.54,570.036c-2.318,32.59-16.518,225.473-16.518,225.473,3.292-61.231,9.1-169.855,9.1-169.855Zm-5.13-499.289,29.327,136.814c-.17,2.566-5.331,83.529-9.209,144.231-5.547-62.118-13.2-147.714-13.2-147.714ZM1692.6,462.842c-3.785-26.806-6.5-46.009-6.5-46.009l-18.109-209.614,18.6-86.42c4.852,46.336,9.224,88.053,9.224,88.053l8.02,210.687Zm-.325,336.352L1654.884,630.35l36.033-138.773,19.191,135.835C1709.783,630.661,1698.488,739.409,1692.277,799.195Zm-6.474,78.848c4.836-23.681,8.545-43.521,8.545-43.521l1.422,6.406Zm-33.313,124.111c-8.653-62.086-22.266-159.733-22.266-159.733l-23.316-209.272,47.39-208.634v-208.9l-7.062-199.538L1669.27,55.2l15.436,47.611-22.466,104.333,26.638,270.021-39.772,153.156,41.333,186.6c-1.329,12.8-2.148,20.727-2.148,20.727l-26.515,129.864Zm-1.3,45.465c.077-.389.479-2.317,1.128-5.5l1.437,10.247-1.869,8.365ZM1600.835,1621.6l15.034,60.1v197.844l-23.208-198.605C1592.831,1679.647,1596.339,1654.288,1600.835,1621.6Zm8.313-306.857c2.627,62.149,6.629,156.919,6.629,156.825l-16.517,119.742-28.879-119.306Zm6.088-64.434,1.252,11.211-3.307,13.4-.556-13ZM1503.6,1068.143l-2.457-20.6,5.315-16.218,1.19,19.4Zm5.949,350.875-45.226-157.463,37.439-160.76c7.432,62.429,18.758,157.448,18.758,157.354Zm5.794,71.929-3.446-22.142c.031-.451.479-6.919,1.19-17.352l5.81,20.214Zm-29.2,190.5,28.74-156.655,24.151,154.991-29.4,142.4ZM1296.828,903.838c5.1,61.573,11.9,143.78,11.9,143.656,0,0-13.381,210.5-13.381,210.656l21.215,421.42-47.034,189.385c-6.227-53.55-22.018-189.26-22.018-189.26l-8.7-210.718V1258.492c1.5-6.468,49.383-210.391,49.414-210.655Z" transform="translate(250.298 0.005)"/><path class="c" d="M1528.666,1468.713l-.016-.093,20.257-210.64c.015-.109,51.932-205.043,53.246-210.236l-16.8-210.065-6.49-210.64L1597.625,416.8c0,.093-10.028-209.552-10.028-209.552l7.494-43.646L1587.5,0h5.733l8.529,166.046L1593.3,207.3c.015-.109,10.012,209.552,10.012,209.552,0,.093-18.758,210.251-18.758,210.251l6.49,210.516,16.811,210.142v.125l-53.277,210.36c.016-.109-19.793,205.96-20.21,210.329,0,0,58.623,420.1,58.87,421.809h-5.748Z" transform="translate(388.249 0.005)"/><path class="c" d="M1560.49,1679.9l45.721,210.485h6.3l4.589-.264-45.752-210.656c.417-7.044,12.346-210.578,12.361-210.734l-9.781-210.516L1611.6,1074.7c.448,54.981,1.53,187.006,1.545,187.146,0,0,27.241,210.22,27.225,210.018,0,0-3.384,209.661-3.369,209.879l28.477,208.619h5.006l5.872-.2s-28.492-208.805-28.477-208.588c0,0,3.384-209.66,3.369-209.878,0,0-28.091-210.221-28.075-210.05l-1.051-210.547V841.13l42.63-210.765-5.362-210.873s-10.662-210.765-10.662-210.578l13.443-148.834,40.436,147.045c.062,3.669,2.364,209.474,2.364,209.474V626.852l-21.462,210.671-26.808,210.391,57.356,210.2-44.237,210.966.046.171L1722.9,1679.6l10.352,117.829-16.409,92.873,1.267.062h4.481c.479-2.69,5.964-33.772,12.577-71.183l5.671,64.621-.232,6.453,17.182.109c.077-2.208,7.649-210.64,7.633-210.516l37.269-421.638L1759.3,1047.4c1.1-9.267,24.908-209.583,24.923-209.863,0,0-1.406-210.578-1.422-210.314l23.842-210.407-21.076-209.6,32.108-135.073c4.6,60.718,10.368,136.659,10.368,136.659s.278,210.811.293,210.656l-22.605,210.967,47.606,210.5c-1.221,8.1-31.814,209.878-31.83,210.034,0,0-8.405,210.609-8.39,210.874l29.867,210.018-41.534,209.676v208.837h11.45V1681.84l41.58-209.863-.031-.249s-29.914-210.3-29.9-210.018c0,0,8.406-210.609,8.39-210.438l31.892-210.438-47.621-210.562c.819-7.65,22.543-210.485,22.559-210.64,0,0-.278-210.811-.293-210.92l-12.1-154.742L1814.048,0H1802.6l10.924,52.99-45.165,153.934,21.107,209.909c-.9,7.93-23.8,209.909-23.811,210.174,0,0,1.39,210.578,1.421,210.3l-24.985,210.314,43.4,210.873c-.726,8.723-17.692,210.251-17.692,210.251s-4.311,46.507-8.885,95.828c-.247-48.17-.479-93-.479-93l-20.473-210.251s-29.667-210.438-29.651-210.3l9.673-210.08s24.321-210.718,24.321-210.842l-25.448-434.388.942,2.55,38.042-49.71h.293v-.4l.464-.591.371-.093V0h-16.394V147.061L1715.592,180.3l-4.744-57.8L1722.591,0h-5.763l-11.712,122.509,7.077,86.281,12.439,210.749s11.928,210.64,11.944,210.516l-24.321,210.764s-9.642,210.158-9.642,210.3l29.62,210.392,20.473,210.143s.464,89.437.773,151.43c-2.982,32.109-5.238,56.489-5.238,56.489l-1.514,41.453-9.673,54.732c-4.342-49.492-8.483-96.387-8.483-96.387l-53.014-210.3,44.237-210.983-57.387-210.251c.742-5.815,46.37-420.892,46.37-420.892V206.94L1661.172,36.991,1676.3,0h-10.831l-11.5,30.289c-5.331,59.117-16.116,178.439-16.116,178.594l10.661,210.733,5.362,210.516-43.635,210.749s.371,67.917.7,126.474l-10.028-129.771c1.3-6.608,41.379-210.329,41.41-210.562,0,0,5.485-210.329,5.47-210.562L1617.1,206.909l6.289-62.226L1617.212.031h-10.955l6.289,144.184-6.335,62.74.031.171s30.717,209.738,30.7,209.505c0,0-5.485,210.329-5.454,210.08L1590.033,837.4l16.255,210.127-43.218,210.484.015.171s9.781,210.718,9.781,210.562l-12.376,210.982Zm178.495,117.6c2.086-11.832,4.218-23.883,6.273-35.5l-2.75,75.6C1741.411,1825.216,1740.206,1811.5,1738.985,1797.493Z" transform="translate(366.204 0.005)"/><path class="c" d="M1743.07,1680.892l48.873-209.194V1261.975c.016.124-36.094-209.552-36.094-209.552l-.015-.093L1775.8,842.561l-27.89-209.334c-.015-.124,6.073-208.9,6.073-208.9s1-190.007,1.1-207.5h-.494V0h5.624V182.528C1769.369,123.722,1787.678,6.406,1788.667,0h5.748l-33.623,215.678c.016-.124-1.081,208.681-1.081,208.681l-6.073,208.79c0-.124,27.905,209.288,27.905,209.288L1761.6,1052.268l35.817,209.567c.016.125.556,210,.556,210l-49.12,209.178,11.388,209.319-3.708.047H1754.5Z" transform="translate(446.092 0.005)"/><path class="c" d="M1773.207,1890.257l2.658.124h3.075c.711-3.825,15.714-84.881,26.823-144.822l20.6,144.822h11.2l33.251-131.9-4.666,131.637,5.732.046,5.594-158.131,13.164-52.229-4.311-26.169,41.024-152.052,56.506,178.19-41.131,210.454,2.889.14h2.843l41.178-210.671-59.627-187.986,6.1-22.592s.108-20.618.263-48.839l37.655-133.8,45.427,185.591,6.011,209.194L1991.335,1890.1l6.552.28h10.646l34.133-208.821-6.026-210.081-51.391-209.941c1.143-8.8,22.065-170.788,26.391-204.265,9.147,40.551,45.365,200.984,45.365,200.984s13.242,128.6,19.036,184.751c-1,17.43-1.653,28.827-1.653,28.827s.973,18.394,2.349,44.283c-2.565,62.18-6.737,163.527-6.737,163.527L2078.682,1809l-4.342,81.367h5.733c.062-1.026.772-14.352,1.808-33.819l2.271,33.741,3.909-.062.015.155,11.449-.187-10.955-158.536c1.545-28.983,2.688-50.3,2.688-50.3s-.726-13.73-1.808-34.145c8.189-59.1,23.594-178.221,23.594-178.392V1258.259l39.061-210.516-44.995-210.22,68.234-197.548-5.562,201.109,27.627,210.065v210.236l-42.121,210.609,34.982,209.692-23.439,208.495,7.138.2h10.043l23.471-208.821-34.951-209.536,42.028-210.407V1050.7L2186.95,840.835c.186-6.795,5.825-210.438,5.825-210.749l-23.425-210.407c.788-7.432,22.25-210.547,22.25-210.547l4.4-35.809,7.695,42.168s37.485,209.054,37.47,208.914c0,0-2.766,208.79-2.75,208.7l-28.4,209.412,36.99,159.578-15.3,45.356,17.12,74.308-12.871,139.893,7.633,40.038L2199.481,1471.6l48.394,209.474-34.688,209.147,2.828.124h2.889l32.7-205.571V1856.8l-7.123,33.477,1.885.078h9.023c0-.217.217-13.558.541-33.414l30.3-176.992-15.034-111.174,10.646-96.838-14.386-75.412,18.619-138.12-23.965-104.037,2.318-102.047-2.642-11.4c1.1-15.813,3.322-48.077,5.686-82.207l17.661-52.337,24.4,141.339c-.124,2.192-11.341,210.562-11.341,210.562s-.727,210.671-.727,210.78l26.654,179.138c-3.523,18.767-5.841,31.191-5.841,31.191l-3.724,49.709-46.509,161.117,1.669.124h4.079l38.721-134.156-10.028,133.829,5.732.109s7.386-98.517,12.052-160.775l14.308-49.554s-1.885-12.672-4.7-31.564c8.436-45,23.687-126.365,30.346-161.879,4.728,50.534,18.124,193.412,18.14,193.536l42.1,210.453h7.247l3.662-.187s-42.183-210.827-42.152-210.687l-19.731-210.64c1.592-7.386,45.442-210.36,45.474-210.594l9.889-210.78L2374.113,837.4l32.958-108.8c1.468,54.919,2.967,112.434,2.967,112.434l16.9,209.971v210.687l54.837,210.1c-.093,4.416-2.086,418.575-2.086,418.575h5.732v-.093h1.622s11.99-421.358,11.99-421.467l-24.429-210.531s-21.647-210.469-21.632-210.329c0,0,17.12-210.189,17.12-210.314l-15.622-210.407c.495-2.97,15.374-92.438,25.572-153.763l47.9,156.7c-1.082,6.639-34.5,210.656-34.5,210.656l-18.016,210.3.031.124,49.66,210.267,24.645,184.44c.046,14.072.17,31.658.34,45.558l-29.466,189.867,21.74,208.976,5.717-.14-21.709-208.805,24.135-155.535c.742,62.444,10.925,364.5,10.925,364.5h17.182c-.015-.529-10.352-210.7-10.352-210.7v-210.78s-1.9-210.687-1.916-210.92c0,0-21.895-210.718-21.895-210.423l5.748-209.707,73.255-210.376-34.333-210.671,40.1-209.49L2578.521,0h-17.212l50.526,207.406-40.065,209.318,34.287,210.329L2532.939,837.01s-5.763,210.407-5.748,210.7c0,0,21.895,210.718,21.879,210.5,0,0,.247,82.1.448,143.8-8.189-61.216-18.82-140.733-18.82-140.733l-49.646-210.22c.448-5.162,18-210,18-210l34.55-210.936-51.623-168.876c4.326-25.967,7.385-44.439,7.385-44.439l4.975-100.2,26.175-107.816-9.364-79.937L2548,0h-5.748l-36.805,128.822,9.348,79.859-18.959,78.04,3.955-79.7-27.4-130.19L2486.925,0H2479.6l-12.995,76.563,27.473,130.564c-.093,1.928-2.8,56.365-5.424,109.277l-25.109,103.4,12.7,41.546-27.6,165.875s15.637,210.562,15.637,210.438c0,0-17.12,210.189-17.105,210.329l21.632,210.469s24.429,210.531,24.413,210.423l-5.794,210.842-2.9,78.2c-.757-41.422-1.406-76.5-1.406-76.5l4.3-209.77-54.76-210.127c0-4.649-.17-210.531-.17-210.531l-16.826-209.987s-1.885-70.374-3.477-129.74l25.495-84.29-20.952-68.462,12.948-138.851L2400.83,209.008,2431.346,0h-10.94l-54.049,206.551-1.143,59.179-13.273-58.666L2309.573,68.073h-.927V0H2302.4c-1.19,21.784,2.534,207.282,2.534,207.422l29.188,209.427-27.055,98.766c1.669-50.27,3.26-98.564,3.26-98.564L2273.741,0h-5.794c2.333,21.488,20.6,207.468,20.6,207.468l16.085,209.614s-2.147,64.683-4.048,122.307l-24.012,87.633s-2.317,145.522-3.106,194.718c-5.64-51.871-20.813-191.468-20.813-191.344,0,0,17.939-210.687,17.939-210.811L2255.23,208.852V0h-10.816c-.51,21.426,4.991,208.883,4.991,208.883s15.452,210.811,15.467,210.687c0,0-17.939,210.687-17.939,210.827,0,0,22.9,210.609,22.884,210.469,0,0-4.234,61.2-8.128,117.549l-11.326,33.554-34.657-149.518c.711-5.209,28.369-209.148,28.384-209.241,0,0,2.766-208.79,2.75-208.93l-37.454-208.805-6.521-55.245L2218.873,0h-5.748l-12.716,139.224L2183.984,0H2166.8l21,144.6-56.645,187.379L2099.526,0h-15.405l31.15,378.956-10.646,37.628,63.474,210.64-72.575,210.1,45.057,210.454-40.112,210.236v.156s2.21,210.7,2.225,210.484l-16.456,118.715c-1.313-24.847-2.673-50.5-3.786-71.307,1.128-27.49,1.947-47.362,1.947-47.362s-1.035-10-2.642-25.624c3.307-57.608,19.453-392.266,19.453-392.266l-9.425-210.081s-17.661-210.516-17.661-210.391l20.21-210.936L2048.32,272.385l9.811-65.305-12.9-73.639L2080.057,0h-5.732L2042.7,118.918l-45.273-64.87L2008.563,0h-17.213c-1.144,8.179-28.8,206.986-28.8,206.986s9.564,79.408,16.919,140.468L1967.293,419.6s6.459,78.257,11.5,139.349c-2.379,37.581-4.28,67.808-4.28,67.808l-41.688,180.88L1894.563,626.8c.278-4.1,13.968-210.1,13.953-209.956l53.385-209.4L1937.441,74.4,1948.473,0h-5.763l-11.017,74.386,24.444,133.02c-1.653,6.5-53.307,209.07-53.323,209.21l-14,210.283s30.377,143.562,40.993,193.723l-3.863,16.777,8.359,34.161c1.53,59.412,4.558,176.2,4.558,176.2l-8.22,372.3-13.721,48.715,7.293,22.966-40.1,148.6-28.229-171.395c.232-3.016,16.44-210.593,16.44-210.7l-14.045-210.562-6.752-209.987,36.2-210.594-48.317-210.3c.324-4.307,15.977-209.458,15.961-209.35l24.027-109.682L1871.911,0h-5.717l7.494,97.771-23.965,109.495L1833.73,416.942l48.286,210.251L1845.844,837.71l6.752,210.08s14.03,210.578,14.03,210.469l-16.456,210.749,30.408,184.565-6.953,25.78-1.854,52.478L1832,1889.62l-22.976-161.6c4.991-26.915,8.576-46.335,8.576-46.335s.433-39.65.943-84.461c11.727-58.993,25.449-128.045,25.449-128.045l8.591-210.733-48.379-211-.355-12.19c0-48.839.015-194.283.015-194.283l1.082-24.521L1867.229,627.4l-59.055-210.749,28.786-215.351V0h-10.569l-54.96,208.743s.587,210.889.587,211.013l35.4,210.625c-.124,2.954-5.763,130.75-8.189,185.777l-6.969,21.178,5.872,213.75,14.4,210.563v210.313s.943,66.891.309,125.09l-16.41,82.549,6.876,48.373ZM1798.3,836.512c-.124,2.845-.2,4.991-.2,6.017l-.139-4.976Zm7.51-40.411,7.324-165.813s-35.708-210.765-35.708-210.64V208.914L1832,9.734l-12.438,282.243-23.842,124.08,65.7,211.309Zm10.708,465.486s-7.633-126.568-11.079-183.43l41.364,180.429c-.185,4.556-8.591,210.516-8.576,210.407l-19.407,97.6C1819.392,1517.785,1816.517,1261.586,1816.517,1261.586Zm117.122-416.351-1.916-7.821c.093-.435.4-1.726.865-3.732.556,2.612.865,4.058.865,4.058S1933.516,840.446,1933.639,845.235Zm544.647-396.169-8.962-29.31,17.846-73.5c-1.916,38.732-3.492,70.374-3.492,70.374ZM2374.809,333.6l18.851,83.373-9.688,34.441-10.754-35.14Zm35.214,296.89,4.141-44.423,12.516,40.893-15.389,50.86C2410.564,650.33,2410.023,630.49,2410.023,630.49Zm-23.038-169.218,12.438-44.252-24.181-106.929,1.978-103.011,41.657-159.656-23.795,161.521,28.863,210.765c-.231,2.41-6.273,67.311-11.6,124.469ZM2367.9,1425.207l17.089-166.808-22.281-210.827L2339.9,837.43V627.007l41.812-147,28.075,91.723c-3.091,33.212-5.47,58.712-5.47,58.712s.757,28.626,1.731,64.761l-43,142.163,50.835,210.422c-.34,7.339-9.858,210.36-9.827,210.127Zm-41.3,240.136,2.148,14.4-6.521,22.578c1.051-13.948,1.7-22.686,1.7-22.686S2324.931,1674.284,2326.6,1665.343Zm-37.732-770.2,19.252-57.1v-.125l-4.728-210.547s1.375-41.578,2.9-87.742l33.592-122.665-.015-.155s-29.868-209.583-29.868-209.443V86.094L2346.223,207l-.015.124,18.573,82.113-2.441,127.423,16.379,53.488L2334.2,626.774V837.507l22.822,210.22,22.265,210.656c-.34,3.312-21.554,210.407-21.554,210.407s-18.789,100.181-30.439,162.361c-9.255-62.242-23.78-162.174-23.78-162.174V1258.352l11.712-210.656C2315.2,1047.7,2299.591,957.311,2288.868,895.147Zm-8.251-57.469V627.225l19.16-63.828c-1.19,35.731-2.117,63.968-2.117,63.968l4.728,210.454-15.5,45.931C2282.255,856.9,2280.617,837.678,2280.617,837.678ZM2268.9,937.067c2.6-37.581,5.083-73.624,6.134-88.737l8.066,46.693Zm-8.7,43.039c-1.082,15.58-2.07,30.04-2.89,41.78l-4.558-19.685Zm-2.3,104.877-1.066,46.755-2.318-10.06C2255.755,1108.259,2256.914,1095.7,2257.9,1084.983Zm6.134,293.935-14.725-77.138,10.306-39.681,1.916-84.959,18.743,81.336Zm3.955,166.482-10.337-76.469,7.386-54.716,11.032,57.811C2275.827,1474.062,2272.258,1506.558,2267.993,1545.4Zm-11.511,274.468c.989-60.563,2.24-138.136,2.24-138.136l9.843-89.546,11.866,87.742Zm-10.476-505.322,15.652,82.051-9.75,72.349,13.5,99.87c-5.377,48.854-11,99.995-12.176,110.755l-48.039-207.9Zm6.876-175.018,3.446,14.974-2.442,107.4-7.03,27.055-5.222-27.366C2241.911,1258.679,2247.69,1195.815,2252.882,1139.528Zm-3.539-127.205,6.66,28.719c-.433,6.282-.679,9.936-.679,9.936l-4.867,52.944-12.979-56.349Zm-76.7-408.5L2116.214,416.6,2171.3,238.317l-19.16,181.362S2166.354,547.319,2172.642,603.824Zm-87.7,1075.7c.046-.327.154-1.166.34-2.41.139,2.736.232,4.245.232,4.245l-.185,3.545ZM1987.921,100.166,2011.36,209.8,1982.822,327.63c-6.892-57.158-14.54-120.737-14.54-120.737Zm-1.267,306.872c.726,6.064,1.159,9.532,1.159,9.532s-.6,9.531-1.545,24.489l-1.761-21.271Zm52.828-273.644-16.8,75.6,19.871,63.5L2020.863,416.88l.015.109s32.865,210.08,32.849,209.971v210.5l-36.79,174.955,20.071-171.69-.062-.311s-35.152-210.469-35.121-210.283l-12.361-149.8c2.256-35.638,4.032-63.8,4.032-63.8s-1.391-11.584-3.523-29.31l30.115-178.5L1993.745,72.691l1.5-7.681Zm4.96,126.583-15.977-51.062,13.551-61.029,10.368,59.194Zm35.523,1316.894c.726,13.776,1.468,27.553,2.148,40.365l-5.408,39.027C2077.508,1636.562,2078.729,1606.879,2079.965,1576.87Zm-64.68-528.987,44.052-210.267s.263-210.64.263-210.765L2026.626,416.9l19.839-132.01,42.152,134.669c-.618,6.484-20.179,210.625-20.179,210.764L2086.1,840.8l9.425,209.987-9.039,210.609s-4.821,84.057-8.359,145.926c-6.4-62.164-15.374-149.284-15.374-149.284Zm-32.417,101.036V1047.541l-42.832-176.2c-.525-20.2-.88-33.8-.88-33.8l-3.57-16.871c11.511-49.974,44.608-193.6,44.639-193.692,0,0,.711-11.351,1.823-28.75,1.607,19.452,37.779,242.609,37.779,242.609-1,8.521-24.537,209.847-24.537,209.847Zm-46.37,250.414c.34-61.341.772-140.95.772-140.95l7.309-210.594s-2.271-87.96-3.878-150.093l36.3,150.015v147.5l-9.008,66.58,3.353,13.714Zm-9.6,82.549-4.157-13.107,7.726-27.724v27.895Zm-48.487,223.5.912-25.826,3.43-12.7,2.117,12.89Zm-76.3-25.733c.371-1.866,4.635-23.354,10.322-51.949-.34,30.818-.587,53.83-.587,53.83l-5.362,28.921Z" transform="translate(283.526 0.005)"/><path class="c" d="M2308,1681.778l14.6,208.6h7.308l3.569-.078h0l4.867.031,5.7-209.35s12.129-209.287,12.114-209.163l44.716-209.769s-5.763-209.692-5.763-209.77l-30.795-209.816c.433-4.587,19.7-209.179,19.7-209.287l-7.664-208.712,46.107-208.712-.015-.109L2339.166,6.219,2338.378,0h-15.792c.356,2.3,32.4,208.79,32.417,208.572l-32.9,211.013,11.3,210.842,14.2,210.516,8.514,420.55c-1.159,6.406-37.918,210.251-37.933,210.422C2318.183,1471.916,2307.985,1681.607,2308,1681.778Zm10.863-.031s10.182-209.692,10.167-209.505l37.964-210.547L2358.465,840.8l-14.2-210.562-11.28-210.485c.757-4.82,32.85-210.749,32.865-210.982l-23.9-181.517,74.77,188.39L2370.61,424.328l.015.093s7.664,208.805,7.664,208.712l-19.716,209.381s30.81,209.971,30.81,209.878l5.763,209.521c-.835,3.9-44.686,209.6-44.7,209.708l-17.6,409.976C2330.1,1842.056,2318.863,1681.607,2318.863,1681.747Z" transform="translate(576.033 0.005)"/><path class="c" d="M2409.051,1472l-50.232,209.692,37.624,208.572-2.657.124h-3.059l-37.656-208.743,50.279-209.754,8.158-420.767-55.115-210.158,41.441-210.78c-.015.124,4.527-210.562,4.527-210.562l-4.574-210.78S2391.746,21,2390.71-.01h5.764l11.6,419.617-4.543,210.718c-.015.124-40.05,203.752-41.394,210.547l54.389,207.406Z" transform="translate(600.603 0)"/></g></svg>