<svg xmlns="http://www.w3.org/2000/svg" viewBox="0 0 1203.782 910.498"><defs><style>.a{fill:#b6d131;fill-rule:evenodd;}.b{fill:#ef860f;}.c{fill:#db996b;}.d{fill:#fdd1b0;}.e{fill:#a867a4;}.f{fill:#85538a;}.g{fill:#dd9b67;}.h{fill:#f8f7f9;}.i{fill:#d8d6ea;}.j{fill:#884e83;}.k{fill:#231f20;}</style></defs><g transform="translate(-862 -2787.672)"><g transform="translate(861.999 2798.998)"><path class="a" d="M11.31,594.06c23.86-69.17,73.47-177.37,141.87-280.85S308.77,110.97,368.8,55.53s92.91-67.58,211.94-6.04,324.2,196.77,440.97,276.11,145.14,102.81,162.17,126.55,22.73,47.78-10.61,113.34-105.72,172.65-160.18,243.3-91.01,104.88-258.35,84.6S289.3,798.32,139.3,745.85C-10.68,693.39-12.56,663.24,11.31,594.06"/><path class="b" d="M732.32,859.29c-105.99,0-200.24-3.09-278.03-9.21-196.96-15.49-328.58-51.83-364.23-62.6-69.89-21.11-83.38-35.99-72.15-79.6,12.44-48.33,51.06-122.36,114.77-220.02,68-104.22,186.31-268.14,271.66-366.65l2.54,2.2-2.54-2.2C484.85,28.27,526.51,5.91,564.29.94c21.5-2.83,39.82.63,63.22,11.94C652.79,25.1,685.8,47.7,734.55,86.14c97.88,77.19,258.84,217.68,347.76,300.46,91.82,85.48,106.21,109.25,114.56,129.56,8.57,20.83,10.7,39.23-2.51,76.76-11.53,32.76-36.11,84.12-64.13,134.05-28.65,51.03-52.29,84.75-72.27,103.1-22.13,20.32-40.05,23.55-147.52,26.58C848.25,858.41,788.62,859.29,732.32,859.29ZM578.04,6.7a98.918,98.918,0,0,0-12.87.89C528.9,12.37,488.53,34.27,409.4,125.6h0c-74.74,86.26-191.29,243.58-271.11,365.92C74.98,588.57,36.66,661.93,24.41,709.55c-9.6,37.29-2.27,50.39,67.59,71.5,73.13,22.09,206.84,50.07,362.81,62.33,118.89,9.35,276.38,11.62,455.45,6.56,105.26-2.97,122.66-5.99,143.17-24.82,19.45-17.86,42.66-51.04,70.95-101.44,27.85-49.61,52.24-100.57,63.65-132.99,12.57-35.71,10.75-52.26,2.63-71.98-8.04-19.57-22.1-42.64-112.92-127.2C988.93,308.82,828.16,168.5,730.4,91.41,644.3,23.51,608.99,6.7,578.04,6.7Z"/></g><g transform="translate(1131.999 2787.672)"><g transform="translate(154.026 761.557)"><g transform="translate(133.661 28.57)"><ellipse class="c" cx="18.714" cy="12.763" rx="18.714" ry="12.763"/><path class="d" d="M263.216,636.321a10.348,10.348,0,0,0-2.085-6.1c-3.424-2.995-8.744-4.928-14.746-4.928-10.336,0-18.714,5.712-18.714,12.762,0,5,4.233,9.326,10.387,11.423a27.662,27.662,0,0,0,5.5.556C254.408,650.019,263.216,643.891,263.216,636.321Z" transform="translate(-227.67 -625.29)"/></g><g transform="translate(117.967 26.005)"><ellipse class="c" cx="23.187" cy="15.82" rx="23.187" ry="15.82"/><path class="d" d="M259.287,636.932a12.929,12.929,0,0,0-2.578-7.569c-4.246-3.715-10.842-6.1-18.272-6.1-12.8,0-23.187,7.089-23.187,15.82,0,6.2,5.244,11.562,12.864,14.153a33.89,33.89,0,0,0,6.8.682C248.382,653.915,259.287,646.308,259.287,636.932Z" transform="translate(-215.25 -623.26)"/></g><g transform="translate(101.755 24.678)"><ellipse class="c" cx="26.65" cy="18.183" rx="26.65" ry="18.183" transform="translate(0 0.013)"/><path class="d" d="M253.041,637.942a14.864,14.864,0,0,0-2.97-8.706c-4.878-4.271-12.459-7.026-21-7.026-14.721,0-26.65,8.138-26.65,18.183,0,7.127,6.027,13.293,14.8,16.263a39.274,39.274,0,0,0,7.822.783C240.505,657.465,253.041,648.721,253.041,637.942Z" transform="translate(-202.42 -622.21)"/></g><g transform="translate(64.061 15.606)"><ellipse class="c" cx="37.024" cy="25.26" rx="37.024" ry="25.26" transform="translate(0 0.013)"/><path class="d" d="M242.91,636.878a20.653,20.653,0,0,0-4.119-12.093c-6.773-5.926-17.312-9.755-29.177-9.755-20.445,0-37.024,11.309-37.024,25.26,0,9.907,8.378,18.461,20.546,22.606A55.019,55.019,0,0,0,204,663.983C225.5,664,242.91,651.852,242.91,636.878Z" transform="translate(-172.59 -615.03)"/></g><path class="d" d="M141.5,602.68s65.771,2.363,103.377,32.69c0,0,3.639,19.409-6.672,18.2s-44.757,21.974-73.454,5.888c0,0-16.376-19.409-38.818-20.016C125.945,639.439,109.961,608.227,141.5,602.68Z" transform="translate(-121.893 -602.68)"/></g><g transform="translate(94.038 410.309)"><path class="e" d="M346.2,324.71s-27.661,70.876-120.119,171.637S131.748,634.5,130.813,642.914s-8.416,21.507,17.766,23.377,62.637,10.286,74.794,23.377c0,0-44.871-6.546-40.2,4.675l9.035,14.961a142.765,142.765,0,0,0-21.191,0s5.61,11.221,12.156,23.377a65.556,65.556,0,0,0-34.6-8.416c-19.637.935-68.248.935-72.923-6.546-3.955-6.318.872-77.258,26.182-121.067,2.868-4.966-3.311-10.273-7.8-6.71-4.625,3.665-8.5,7.746-9.97,11.853,0,0-4.675-33.991,31.793-73.088s76.664-54.058,85.079-114.825,29.922-82.274,29.922-82.274Z" transform="translate(-74.417 -324.71)"/><path class="f" d="M238.45,482.624C330.909,381.863,346.2,324.71,346.2,324.71L230.856,331.6s-21.507,21.507-29.922,82.274S152.322,489.6,115.854,528.7s-31.793,73.088-31.793,73.088c1.466-4.107,5.345-8.188,9.97-11.853,4.5-3.563,10.665,1.756,7.8,6.71C76.518,640.463,71.691,711.39,75.646,717.708c4.675,7.481,53.287,7.481,72.923,6.546a65.557,65.557,0,0,1,34.6,8.416c-2.224-4.132-4.334-8.15-6.166-11.663C134.391,691.563,95.333,712,98.542,668.73c2.679-36.165,27.623-85.041,50.368-111.957-9.464,2.868-24.59,8.075-32.273,14.051,0,0,21.785-39.956,59.251-39.842l-.013.013C203.309,507.808,238.235,482.852,238.45,482.624Z" transform="translate(-74.42 -324.71)"/></g><g transform="translate(0.001)"><path class="e" d="M541.182,306.92S460.487,182.2,442.683,164.4c-16.768-16.768-34.509-32.526-50.469-36.165a138.206,138.206,0,0,0,.948-16.136C393.174,50.191,352.574,0,302.5,0s-90.665,50.191-90.665,112.1c0,2.11.063,4.208.152,6.305-30.567,3.349-59.339,10.488-80.745,23.756C52.25,191.084,6.646,323.461,1.086,400.213s10.008,145.72,52.276,162.4,91.208,0,93.432-52.276-34.484-55.612-16.68-142.384,44.492-114.572,44.492-114.572,28.924,46.716,27.812,103.452-10.008,102.34,2.224,135.712,46.716,91.208,46.716,110.124-23.364,107.9,10.008,150.168a63.472,63.472,0,0,1-1.251-11.79c-.177-9.97,13.42-12.977,17.337-3.816,14.835,34.61,44.732,95.845,71.786,99.03,37.82,4.448,41.156-28.924,27.812-43.38s-41.156-40.044-41.156-40.044-52.276-150.168-64.52-272.524c0,0,38.932,35.6,77.864-36.708S408.2,294.549,408.2,294.549s18.916,73.416,34.484,97.892,54.5,75.64,106.788,45.6S603.845,336.843,541.182,306.92Z" transform="translate(-0.001)"/><path class="f" d="M167.64,110.677c0,2.11.063,4.208.152,6.305,0,0,18.575.48,23.453-6.609,0,0-10.64,4.878-11.966-4.208S179.8,34.734,227.194,5.38C192.445,21.061,167.64,62.281,167.64,110.677Z" transform="translate(44.191 1.418)"/><path class="f" d="M155.7,200.14s14.279,20.395,46.905,23.453c0,0-25.31-13.963-38.856-43.873,0,0-4.4,2.072-11.676,8.251a57.217,57.217,0,0,0-13.887,18.019S167.114,252.707,166,309.443c-.733,37.643-4.878,70.346-4.018,97.867,6.887-21.494,17.261-56.7,19.687-83.942C185.272,282.743,155.7,200.14,155.7,200.14Z" transform="translate(36.428 47.377)"/><path class="f" d="M202.472,453.987s.063.152.139.354C202.661,453.532,202.472,453.987,202.472,453.987ZM307.087,657.53s-48.207-3.134-65.733-42.382c-9.338-20.913-11.865-48.75-16.92-76.032a65.092,65.092,0,0,0-10.02,31.666c-4.41-18.247-2.856-52.63-1.39-73.037a96.543,96.543,0,0,0-14.077-24,35.484,35.484,0,0,1,1.643,9.262c0,18.916-23.364,107.9,10.008,150.168a63.474,63.474,0,0,1-1.251-11.79c-.177-9.97,13.42-12.977,17.337-3.816,14.835,34.61,44.732,95.845,71.786,99.03a45.972,45.972,0,0,0,15.454-.518C314.314,706.988,316.336,674.779,307.087,657.53Z" transform="translate(50.781 119.645)"/><path class="f" d="M131.226,112.972C52.25,161.912,6.646,294.289,1.086,371.041-2.97,426.956,4.22,478.727,24.754,509.167c20.521-2.894,38.818-12.207,32.462-37.542,0,0-63.307-81.781-17.615-188.393a20.572,20.572,0,0,0-16.566,11.891S23.149,276.9,48.409,257.9c0,0,6.95-71.559,86.76-147.237Q133.16,111.778,131.226,112.972Z" transform="translate(-0.001 29.172)"/><path class="f" d="M357.534,345.587c15.568,24.476,54.5,75.64,106.788,45.6,28.267-16.237,41.826-44.5,38.439-71.773l-36.569,6.508L394.2,347.735c-31.654,6.8-62.638-69.739-55.814-107.18s-.733-62.865-.733-62.865c4.688,25.8-14.607,70.017-14.607,70.017S341.954,321.111,357.534,345.587Z" transform="translate(85.16 46.842)"/></g><g transform="translate(3.235 432.764)"><path class="d" d="M115.2,398.458s-25.942-16.92-30.453-34.964c0,0-18.044,36.089-9.022,54.133,0,0-20.306-12.409-25.942-40.6,0,0-18.044,34.964-19.169,48.5A345.667,345.667,0,0,1,2.56,385.544c6.419,42.9,22.619,75.918,50.128,86.785,42.268,16.68,91.208,0,93.432-52.276,1.466-34.484-14-47.689-19.6-77.573C117.587,358.781,108.944,380.957,115.2,398.458Z" transform="translate(-2.56 -342.48)"/><path class="c" d="M94.685,400.41a93.148,93.148,0,0,0,26.789,46.109,52.551,52.551,0,0,0,3.664-4.006C109.659,430.13,94.685,400.41,94.685,400.41ZM41.512,455.415c1.188.569,2.363,1.15,3.589,1.643,1.276.505,2.565.973,3.854,1.415C38.517,442.362,31.34,418.24,31.34,418.24A92.656,92.656,0,0,0,41.512,455.415Zm44.934,7.253c2.06-.265,4.107-.581,6.116-1.023C78.6,447.568,66.81,417.633,66.81,417.633A93.245,93.245,0,0,0,86.446,462.668Z" transform="translate(5.027 -327.209)"/></g><g transform="translate(334.42 619.332)"><path class="d" d="M303.632,548.382s-34.851,38.073-38.073,75.5,1.933,75.5,19.043,76.8,25.487,0,40.979-32.917,23.238-47.752,34.206-48.4,42.6,6.457,55.5-20.648,21.292-42.6,16.136-50.343S349.451,508.629,303.632,548.382Z" transform="translate(-264.653 -479.914)"/><path class="g" d="M355.763,601.167c-.013,0-43.936-7.089-57.153,0,0,0,29.392-.657,39.273,8.631,4.284-5.573,8.327-8.39,12.939-8.668C352.175,601.054,353.843,601.091,355.763,601.167Z" transform="translate(-255.702 -461.684)"/><g transform="translate(113.098)"><ellipse class="c" cx="40.158" cy="31.553" rx="40.158" ry="31.553" transform="matrix(0.51, -0.86, 0.86, 0.51, 0, 69.087)"/><path class="d" d="M422.855,551.782c10.779-18.183,8.39-39.64-5.067-49.041-14.873-7.392-35.065.9-45.97,19.3-9.591,16.174-8.871,34.9.708,45.655a24.1,24.1,0,0,0,3.247,2.338C390.583,578.824,411.672,570.648,422.855,551.782Z" transform="translate(-351.306 -487.51)"/></g><g transform="translate(84.162 13.305)"><ellipse class="c" cx="28.81" cy="22.644" rx="28.81" ry="22.644" transform="translate(0 52.383) rotate(-65.385)"/><path class="d" d="M380.123,542.6c6.318-13.786,2.995-28.924-7.316-34.61-11.17-4.157-24.956,3.285-31.35,17.236-5.623,12.27-3.69,25.576,3.955,32.525a17.193,17.193,0,0,0,2.489,1.428C359.147,564.334,373.565,556.917,380.123,542.6Z" transform="translate(-329.423 -499.025)"/></g><g transform="translate(56.918 16.679)"><ellipse class="c" cx="26.372" cy="20.723" rx="26.372" ry="20.723" transform="translate(0 47.949) rotate(-65.385)"/><path class="d" d="M354.422,541.718c5.787-12.623,2.742-26.473-6.7-31.679-10.223-3.8-22.846,3.007-28.7,15.783-5.143,11.234-3.374,23.415,3.614,29.771a16.825,16.825,0,0,0,2.274,1.3C335.215,561.607,348.433,554.822,354.422,541.718Z" transform="translate(-308.018 -501.833)"/></g><g transform="translate(40.082 26.657)"><ellipse class="c" cx="22.821" cy="16.831" rx="22.821" ry="16.831" transform="translate(0 44.546) rotate(-77.431)"/><path class="d" d="M330.764,541.414c3.513-11.461-.139-23.263-8.138-27.029-8.5-2.489-17.994,4.461-21.545,16.048-3.121,10.2-.644,20.66,5.509,25.626a12.456,12.456,0,0,0,1.933.948C317.168,560.28,327.125,553.292,330.764,541.414Z" transform="translate(-295.488 -510.521)"/></g></g><g transform="translate(447.144 274.023)"><ellipse class="d" cx="58.632" cy="69.966" rx="58.632" ry="69.966" transform="translate(0 44.384) rotate(-22.241)"/><path class="c" d="M396.608,346.988c1.769,1.58,3.589,3.071,5.459,4.448,5.888-16.351,63.8-40.587,63.8-40.587C432.406,319.631,399.83,342.49,396.608,346.988Zm-25.727-71.5c-.366,2.325-.632,4.688-.771,7.089,15.29-12.889,67.237-33.8,67.237-33.8C414.539,251.345,381,269.187,370.881,275.493Zm3.854,38.414c.43,1.226.821,2.451,1.314,3.664.3.733.619,1.453.948,2.173,12.409-14.557,73.58-40.9,73.58-40.9C424.635,283.593,383.2,306.755,374.735,313.907Z" transform="translate(-349.577 -208.44)"/></g><g transform="translate(260.347 244.586)"><path class="d" d="M318.15,299.912c-12.826,44.543-35.23,75.476-64.166,71.167s-45.4-40.726-47.7-84.763c-3.361-64.2,27.7-81.39,71.23-73.189C321.157,221.366,333.452,246.739,318.15,299.912Z" transform="translate(-206.033 -188.904)"/><path class="e" d="M241.66,206.74S253.2,231.86,262.4,236.093c0,0-2.275-10.185,6.71-13.976,0,0,8.492,16.225,13.167,20.635,0,0-2.009-30.377,14.254-28.381,7.594.935-9.149-16.553-9.149-16.553l-26.157-4.258Z" transform="translate(-196.641 -193.56)"/></g><g transform="translate(263.979 45.223)"><g transform="translate(9.629 33.184)"><path class="h" d="M230.773,86.832,217.72,78.315,223.242,67.5c2.085-4.069,6.685-5.471,10.286-3.121h0c3.6,2.35,4.84,7.556,2.755,11.625Z" transform="translate(-216.214 -61.737)"/><path class="i" d="M231.087,88.649a1.558,1.558,0,0,1-.821-.24l-13.053-8.517a1.5,1.5,0,0,1-.518-1.946l5.522-10.817a9.227,9.227,0,0,1,5.749-4.8,8.27,8.27,0,0,1,6.71,1.112c4.22,2.755,5.7,8.845,3.273,13.584L232.427,87.84a1.512,1.512,0,0,1-.96.771A1.929,1.929,0,0,1,231.087,88.649ZM219.993,78.111l10.5,6.849,4.764-9.313a7.62,7.62,0,0,0-2.237-9.679,5.28,5.28,0,0,0-4.284-.72,6.1,6.1,0,0,0-3.841,3.26Z" transform="translate(-216.528 -62.05)"/></g><g transform="translate(25.576 44.967)"><path class="h" d="M240.676,88.44,230.34,85.811l1.706-8.567c.644-3.222,3.475-5.244,6.331-4.524h0c2.856.72,4.65,3.93,4.006,7.152Z" transform="translate(-228.834 -71.058)"/><path class="i" d="M240.991,90.26a1.168,1.168,0,0,1-.366-.051l-10.336-2.628a1.515,1.515,0,0,1-1.112-1.756l1.706-8.567a7.532,7.532,0,0,1,3.26-4.89,6.207,6.207,0,0,1,4.915-.8c3.614.922,5.914,4.915,5.118,8.909l-1.706,8.567a1.544,1.544,0,0,1-.67.986A1.568,1.568,0,0,1,240.991,90.26Zm-8.58-5.244,7.4,1.883,1.39-7c.48-2.439-.809-4.865-2.894-5.4a3.24,3.24,0,0,0-2.565.43,4.445,4.445,0,0,0-1.908,2.932Z" transform="translate(-229.148 -71.374)"/></g><path class="j" d="M281.91,105.03c-11.095,0-22.871-2.451-35.1-7.367A143.318,143.318,0,0,1,210.49,76.181a4.526,4.526,0,0,1,5.888-6.874h0c.556.48,56.193,47.221,99.977,15.694a4.527,4.527,0,0,1,5.282,7.354A66.76,66.76,0,0,1,281.91,105.03Z" transform="translate(-208.908 -27.24)"/><path class="k" d="M259.261,44.067a3.23,3.23,0,0,1-1.024-.177c-12.9-4.625-28.583,0-28.735.051a3.022,3.022,0,0,1-1.744-5.787c.72-.215,17.766-5.244,32.526.051a3.021,3.021,0,0,1-1.024,5.863Z" transform="translate(-204.505 -35.789)"/><path class="k" d="M300.914,58.016a2.968,2.968,0,0,1-1.845-.632c-11.158-8.656-27.421-9.4-27.585-9.414a3.021,3.021,0,0,1,.114-6.04h.114c.746.025,18.335.809,31.047,10.678a3.017,3.017,0,0,1,.531,4.233A2.973,2.973,0,0,1,300.914,58.016Z" transform="translate(-193.175 -34.17)"/></g><g transform="translate(26.42 138.391)"><path class="j" d="M59.373,179.62l7.19,18.044-6.141-1.441c3.222-3.045,6.457-6.015,9.768-8.959,1.655-1.466,3.323-2.919,5.029-4.334a65.1,65.1,0,0,1,5.4-4.119,1.524,1.524,0,0,1,2.1.43,1.5,1.5,0,0,1-.227,1.933l-.063.063a106.663,106.663,0,0,0-8.555,9.578c-2.742,3.361-5.459,6.786-8.1,10.223l-.063.076a3.414,3.414,0,0,1-6.078-1.516l-3.172-19.156a1.527,1.527,0,0,1,2.919-.821Z" transform="translate(-11.544 -91.318)"/><path class="j" d="M23.665,302.635c1.858,2.717,3.867,5.408,5.964,7.948a47.814,47.814,0,0,0,6.685,6.849h0l-4.385.9,8.643-15.58v-.013l.013-.013a1.56,1.56,0,0,1,2.123-.607,1.427,1.427,0,0,1,.518.468c1.921,2.7,3.93,5.4,6,7.973,1.036,1.289,2.1,2.552,3.2,3.753a29.2,29.2,0,0,0,3.323,3.222l.013.013-4.233,1.289c1.213-3.715,2.515-7.316,3.98-10.918a58.842,58.842,0,0,1,5.307-10.539,1.506,1.506,0,0,1,2.1-.4,1.533,1.533,0,0,1,.493,1.971l-.038.076A56,56,0,0,0,59.4,309.307c-1.074,3.576-2.009,7.266-2.818,10.88l-.013.076a2.5,2.5,0,0,1-2.982,1.9,2.541,2.541,0,0,1-1.238-.682l-.013-.013a33.608,33.608,0,0,1-3.513-4.2c-1.024-1.415-1.984-2.843-2.906-4.284-1.845-2.894-3.563-5.8-5.231-8.795l2.654-.164v.013l-6.331,16.654a2.66,2.66,0,0,1-3.424,1.542,2.564,2.564,0,0,1-.885-.556l-.088-.088H32.6a52.454,52.454,0,0,1-6.432-8.479c-1.845-2.932-3.525-5.888-5.092-8.959a1.51,1.51,0,0,1,2.59-1.542Z" transform="translate(-20.909 -60.172)"/><path class="j" d="M183.421,310.283a1.513,1.513,0,0,1-.986-.366c-4.044-3.462-15.732-15.707-16.237-16.225a1.51,1.51,0,1,1,2.186-2.085c.1.114,9.187,9.629,14.127,14.3,1.339-5.8,4.688-19.75,7.038-24.388a1.514,1.514,0,0,1,2.7,1.365c-2.755,5.446-7.316,26.005-7.354,26.207a1.53,1.53,0,0,1-1,1.112A2.006,2.006,0,0,1,183.421,310.283Z" transform="translate(17.281 -64.395)"/><path class="j" d="M346.825,237.367c5.358,3.172,11.373,6.091,17.008,6.874h0l-3.551,2.085a44.771,44.771,0,0,0,1.453-4.713,39.142,39.142,0,0,0,.935-4.915,19.228,19.228,0,0,0-.8-9.49h0l-.013-.051a1.552,1.552,0,0,1,.96-1.971,1.58,1.58,0,0,1,1.478.253,48.227,48.227,0,0,0,8.605,5.547c2.982,1.466,6.192,2.451,8.82,2.312h.013l-3.715,2.793c.569-1.946,1.074-4.17,1.478-6.293.4-2.161.708-4.334.922-6.52a48.194,48.194,0,0,0-.366-13.078l-.013-.038a1.519,1.519,0,0,1,2.932-.758,52.216,52.216,0,0,1,2.54,13.963q.19,3.544.076,7.089a71.8,71.8,0,0,1-.581,7.19l-.013.114a3.159,3.159,0,0,1-3.551,2.7l-.152-.025h-.013a24.954,24.954,0,0,1-11.019-5.118,50.6,50.6,0,0,1-8.087-7.759l2.414-1.769h0a22.7,22.7,0,0,1,2.692,11.132,45.868,45.868,0,0,1-.24,5.6,47.869,47.869,0,0,1-.872,5.6l-.013.063a2.757,2.757,0,0,1-3.285,2.1l-.253-.063h0a39.258,39.258,0,0,1-9.452-4.461,71.473,71.473,0,0,1-8.087-5.939,1.519,1.519,0,0,1-.177-2.136,1.5,1.5,0,0,1,1.921-.316Z" transform="translate(64.408 -83.458)"/><path class="j" d="M312.552,132.6a34.222,34.222,0,0,0,7.342,5.7,25.566,25.566,0,0,0,8.125,3.083h0l-5.61,2.527a33.772,33.772,0,0,0,2.072-4.6,33.347,33.347,0,0,0,1.44-4.979,15.914,15.914,0,0,0-.657-9.844l-.038-.1a1.511,1.511,0,0,1,2.54-1.592c2.767,3.349,3.829,7.759,4.069,11.878a37.6,37.6,0,0,1-.152,6.2,41.514,41.514,0,0,1-1.061,6.255l-.038.126a3.84,3.84,0,0,1-4.688,2.755,3.409,3.409,0,0,1-.885-.354h0a32.948,32.948,0,0,1-8.858-6.773,40.011,40.011,0,0,1-3.374-4.119,36.717,36.717,0,0,1-2.755-4.511,1.528,1.528,0,0,1,.657-2.047,1.511,1.511,0,0,1,1.782.291Z" transform="translate(55.264 -106.166)"/><path class="j" d="M169.37,111.264a86.486,86.486,0,0,0-.442,13.281,37.894,37.894,0,0,0,2.35,12.27v.013l-5.522-1.744L186,123.192a1.5,1.5,0,0,1,1.744,2.439l-.1.088-17.627,15.1a3.4,3.4,0,0,1-4.8-.366,3.243,3.243,0,0,1-.657-1.188l-.063-.19v-.013a43.269,43.269,0,0,1-.644-14.671,88.186,88.186,0,0,1,2.565-13.748,1.508,1.508,0,0,1,2.957.556Z" transform="translate(16.687 -109.519)"/><path class="j" d="M138.885,520.377a1.408,1.408,0,0,1-.746-.2c-4.6-2.616-2.047-17.678-.733-24.021a1.491,1.491,0,0,1,1.782-1.175,1.51,1.51,0,0,1,1.175,1.782c-1.946,9.4-2.376,18.461-1.061,20.458,2.477-.594,10.715-2.919,13.331-7.936a1.509,1.509,0,0,1,2.679,1.39c-3.753,7.177-15.631,9.566-16.136,9.667A1.077,1.077,0,0,1,138.885,520.377Z" transform="translate(9.301 -7.916)"/><path class="j" d="M229.626,556.744c5.712,5.143,11.764,10.2,18.2,14h0l-3.677,1.832a124.89,124.89,0,0,0,.9-20.37v-.025a1.512,1.512,0,0,1,3.007-.291,98.742,98.742,0,0,1,.872,10.539c.114,3.513.139,6.988.013,10.551a2.342,2.342,0,0,1-2.414,2.262,2.429,2.429,0,0,1-1.264-.417h0c-6.71-4.7-12.308-10.21-17.779-15.934a1.512,1.512,0,0,1,2.1-2.173Z" transform="translate(33.436 6.754)"/><ellipse class="f" cx="12.522" cy="8.959" rx="12.522" ry="8.959" transform="translate(214.912 103.621) rotate(-6.477)"/><ellipse class="f" cx="8.959" cy="11.992" rx="8.959" ry="11.992" transform="matrix(0.181, -0.984, 0.984, 0.181, 359.566, 125.563)"/><path class="f" d="M218.057,413.025c-.227-1.719-10.147-45.326-1.87-68.425,0,0-1.63,49.281,13.95,65.354Z" transform="translate(29.703 -47.548)"/><path class="j" d="M257.693,371.436a.86.86,0,0,1-.253-.025,1.5,1.5,0,0,1-1.15-.935c-.063-.152-6.078-15.58-8.871-19.447a1.512,1.512,0,1,1,2.451-1.769c2.325,3.222,6.407,13.066,8.264,17.691,3.323-4.347,8.858-12.295,8.921-12.4a1.507,1.507,0,1,1,2.477,1.719c-.329.468-7.961,11.436-10.7,14.633A1.457,1.457,0,0,1,257.693,371.436Z" transform="translate(38.728 -46.484)"/><path class="j" d="M232.244,118.759a66.732,66.732,0,0,0,8.681,10.223,53.141,53.141,0,0,0,10.539,8.037l-2.527.177a60.849,60.849,0,0,0,6.457-5.674,22.651,22.651,0,0,0,4.865-6.583h0l.051-.114a1.551,1.551,0,0,1,2.06-.746,1.646,1.646,0,0,1,.392.265,91.916,91.916,0,0,0,9.123,7.443,45.653,45.653,0,0,0,4.89,3.071,18.461,18.461,0,0,0,4.991,1.971h0l-1.58.265a36.5,36.5,0,0,0,3.627-2.54,45.2,45.2,0,0,0,3.424-2.982,42.812,42.812,0,0,0,5.863-6.95l.013-.025a1.508,1.508,0,0,1,2.552,1.6,46.252,46.252,0,0,1-5.813,7.9,47.623,47.623,0,0,1-3.488,3.475,38.592,38.592,0,0,1-3.93,3.146l-.038.025a1.822,1.822,0,0,1-1.542.24h0a22.347,22.347,0,0,1-6.04-2.7,49.677,49.677,0,0,1-5.105-3.576,94.955,94.955,0,0,1-9.085-8.226l2.5-.594h0a18.066,18.066,0,0,1-2.173,4.4,37.475,37.475,0,0,1-2.805,3.74,66.108,66.108,0,0,1-6.432,6.609,2.059,2.059,0,0,1-2.489.2l-.038-.025a57.76,57.76,0,0,1-10.918-9.224,70.664,70.664,0,0,1-8.605-11.246,1.513,1.513,0,0,1,2.54-1.643Z" transform="translate(34.066 -107.272)"/><path class="j" d="M175.117,401.363a20.478,20.478,0,0,0,2.654,2.06,21.076,21.076,0,0,0,3.02,1.63,17.96,17.96,0,0,0,6.533,1.542h0l-1.63,1.049a33.663,33.663,0,0,0,1.794-6.482,20.559,20.559,0,0,0,.164-6.571v-.038a1.511,1.511,0,0,1,2.982-.493,23.926,23.926,0,0,1,.013,7.594,36.878,36.878,0,0,1-1.832,7.241l-.013.025a1.587,1.587,0,0,1-1.63,1.023h0a21.46,21.46,0,0,1-7.7-2A23.444,23.444,0,0,1,176.052,406a21.232,21.232,0,0,1-3.108-2.54,1.51,1.51,0,0,1,2.1-2.173Z" transform="translate(19.053 -34.838)"/></g></g></g></svg>