<svg xmlns="http://www.w3.org/2000/svg" viewBox="0 0 1210.68 1118.442"><defs><style>.a{fill:#98d0af;fill-rule:evenodd;}.b{fill:#b6d131;}.c{fill:#3b3938;}.d{fill:#242120;}.e{fill:#845941;}.f{fill:#56382b;}.g{fill:#3f3c3a;}.h{fill:#1a1717;}.i{fill:#231f20;}.j{fill:#513529;}.k{fill:#d80d5b;}.l{fill:#941450;}.m{fill:#3b2723;}</style></defs><g transform="translate(-869 -1229.06)"><g transform="translate(868.998 1229.051)"><path class="a" d="M285.716,49.042c-34.056,34.029-69.077,103.4-113.265,238.726S74.908,624.4,64,738.99s20.613,142.482,171.11,187.635,419.968,107.555,570.465,133.3,182.02,14.837,219.493-111.563,80.857-368.274,104.379-507.406,27.154-175.506-100.077-228.942S644.046,88.1,498.455,52.2c-145.618-35.892-178.7-37.192-212.738-3.163" transform="translate(21.107 8.291)"/><path class="b" d="M816.615,1118.45c-25.894,0-59.99-7.72-111.335-24.647-138.77-45.756-374.4-146.865-504.229-216.384C63.956,804.014,29.23,758.767,12.129,720.811c-16.3-36.173-16.177-65.525.415-101.336C28.56,584.937,60.284,544.22,141.61,446.864c91.7-109.78,226.315-267.367,303.9-350.208h0C529.064,7.449,551.084.48,575.155.024c26.081-.469,54.253,9.409,152.735,69.331,97.825,59.521,275.073,175.05,372.992,245.655,45.461,32.783,76.971,57.993,93.6,82.345,12.545,18.375,19.8,38.787,14.381,78.686-9.114,67.254-47.19,170.172-101.846,275.288-58.85,113.131-140.164,235.8-190.812,301.9-27.85,36.348-47.271,56.022-76.14,62.71A103.35,103.35,0,0,1,816.615,1118.45ZM448.26,99.2l2.734,2.56c-77.48,82.734-211.988,240.2-303.621,349.9C66.516,548.455,35.02,588.837,19.353,622.624c-15.574,33.6-15.681,61.156-.389,95.1C46.975,779.916,124.737,828.045,204.589,870.8c129.522,69.345,364.589,170.225,503.037,215.874,66.986,22.087,103.642,28.239,130.742,21.967,26.805-6.205,44.537-24.285,71.878-59.963,50.461-65.846,131.479-188.064,190.1-300.819,54.28-104.392,92.062-206.385,101.068-272.835,4.463-32.97.911-52.886-13.148-73.446-16.016-23.441-46.989-48.182-91.794-80.482C998.7,250.584,821.681,135.215,723.977,75.762,627.1,16.8,599.789,7.033,575.289,7.516c-22.141.415-42.767,7.2-124.295,94.246Z" transform="translate(0 0)"/></g><g transform="translate(955.01 1282.198)"><g transform="translate(-0.01 281.38)"><path class="c" d="M279.9,359.019c-.564-1.946,21.136-90.426-46.906-92.149s-78.172,47.619-124.47,72.781c-25.488,13.858-72.053-6.61-41.827-34.9,34.831-32.617,117.013-78.291,28.5-115.305,0,0,44.916,31.1,8.882,49.313-51.3,25.919-80.905,36.138-99.516,72.38-16.175,31.489,9.937,98.64,88.079,99.709,84.039,1.144,87.738-128.064,177.079-48.6Z" transform="translate(0.01 -189.44)"/><path class="d" d="M209.412,300.126c-93.62,10.828-68.354,108.294-186.719,92.7,14.675,10.531,34.311,17.66,59.324,18,84.039,1.144,87.738-128.064,177.08-48.6l3.015-.951C257.135,339.813,250.258,295.4,209.412,300.126ZM75.451,343.943c-22.072-1.634-41.767-18.255-19.4-39.2,34.831-32.618,117.013-78.291,28.5-115.305,0,0,59.591,26.008,13.442,64.656-15.982,13.4-85.346,36.3-75.038,65.725C30.312,340.809,59.395,343.9,75.451,343.943Z" transform="translate(10.653 -189.44)"/><path class="d" d="M172.668,315.965c-18.6,9.432-34.489,23.26-52.729,33.286-19.666,10.813-42.569,17.467-65.116,16.962-17.334-.4-35.1-6.446-46.891-18.6a77.644,77.644,0,0,0,4.322,7.471c20.586,16.056,53.5,16.041,78.35,9.075,21.2-5.941,39.019-17.408,56.992-29.721,17.69-12.12,36.153-23.631,58.076-25.443,27.166-2.228,54.467,8.7,63.928,35.826.49,1.381,1.218-.371.951-1.159C256.693,302.612,206.8,298.661,172.668,315.965Zm14.467-25.221c-22.265,8.362-39.821,25.4-60.17,37.192-22.755,13.19-49.966,22.4-76.524,18.834C29.424,343.949,8.749,331,.119,312.3c-.074,1.1-.1,2.228-.119,3.357a56.251,56.251,0,0,0,15.878,19.74c19.1,15,44.708,17.438,67.834,12.462,25.117-5.392,46.609-18.418,67.3-33.093,20.379-14.452,42.242-28.711,68.414-25.5,29.335,3.594,51.867,26.557,56.323,55.3l1.055-.327A66.7,66.7,0,0,0,187.135,290.744Zm77.147-2.629A76.859,76.859,0,0,0,221.55,262.82c-16.131-3.416-31.578-1.173-46.149,4.307-3.03,2.109-5.912,4.352-8.689,6.714,13.695-6.728,28.4-10.8,44.589-9.684a77,77,0,0,1,45.065,18.789c6.223,5.481,11.764,12.076,15.254,19.651,4.783,10.368,5.377,22.027,5.986,33.256.074,1.277,1.1,1.277,1.04-.03C277.8,318.475,275.838,301.9,264.282,288.115ZM40.163,322.872c12.135,6.728,25.77,6.788,39.094,4.322a44,44,0,0,1-6.06-1.782c-11.9,1.426-23.765.46-34.415-6.209-11.615-7.278-19.22-22.74-12.105-35.752,5.54-10.115,17.259-17.334,26.914-23.008,9.387-5.525,19.309-9.981,29.231-14.452,7.471-3.357,15.73-7.1,20.2-14.348a21.727,21.727,0,0,0,3.045-9.744c-.564.327-1.114.639-1.738.965a18.079,18.079,0,0,1-4.738,9.877c-7.115,7.575-18.284,10.9-27.449,15.18-10.174,4.738-20.185,9.952-29.32,16.517-7.441,5.347-15.655,11.793-18.849,20.735C18.745,299.731,27.241,315.7,40.163,322.872Z" transform="translate(0.014 -173.687)"/><path class="c" d="M172.693,282.749c-27.137,2.169-60.646,36.346-81.113,69.78,44.456-29.439,61.8-94.288,127.262-41.01h.015S201.419,280.462,172.693,282.749Z" transform="translate(44.46 -144.214)"/></g><g transform="translate(645.951 186.706)"><path class="e" d="M435.931,129l13.457-3.3s11.541,4.486,22.25,18.373,66.126,55.046,66.126,73.538a39.338,39.338,0,0,1-5.629,25.8c-4.441,7.115-12.061,14.3-30,19.562,0,0-25.236,17.467-28.8,16.279s-24.6-28.176-21.819-35.306,19.443-20.631,26.186-16.665,9.8,16.353,13.977,11.66c4.471-5.02,7.842-7.738,6.654-13.68s-2.376-7.9.8-11.868c0,0-56.828-29.632-60.007-34S433.376,136.186,435.931,129Z" transform="translate(-434.888 -125.7)"/><path class="f" d="M483.785,221.194a.872.872,0,0,0-1.144-.446c-9.64,4.233-21.255,14.927-21.79,15.418.371.446.743.906,1.1,1.307.03-.015.059-.015.074-.03.119-.1,11.927-10.991,21.314-15.121A.834.834,0,0,0,483.785,221.194ZM469.3,201.989a.872.872,0,0,0-1.144-.446c-8.125,3.565-17.646,11.719-20.75,14.482.253.52.52,1.069.8,1.619,2.614-2.332,12.536-10.947,20.646-14.512A.877.877,0,0,0,469.3,201.989Zm6.313,10.4a.872.872,0,0,0-1.144-.446c-8.229,3.609-17.883,11.927-20.869,14.586.327.49.668.965,1,1.441,2.718-2.421,12.521-10.917,20.572-14.437A.877.877,0,0,0,475.616,212.387Z" transform="translate(-428.811 -88.927)"/><path class="f" d="M472.6,170.067c-6.045-11.675-15.848-21.76-21.344-22.5-3.639-.49-12.655,11.14-12.67,22.384,3.728,2.852,14.333,8.927,25.547,15.091C451.26,172.845,467.643,169.488,472.6,170.067Z" transform="translate(-433.091 -115.096)"/></g><g transform="translate(407.487 98.894)"><path class="e" d="M522.641,243.526c4.6-11.244,8.244-41.054,8.244-48.733s1.025-32.722-3.58-40.4c0,0-31.771-10.219-39.658-19.428s-12.61-29.32-11.779-35.618S433.744,66.58,433.744,66.58s4.07,47.708-6.164,49.758-38.841-6.431-48.035-4.9-17.9,1.025-35.8,25.562c0,0-27.493,38.633-35.157,47.322s-32.722,47.04-34.251,50.115c0,0,7.664,3.58,7.664,12.269,0,5.421,16.1,47.01,37.029,80.653,12.135,19.487,31.622,40.772,44.233,43.98,3.089.787,5.837-1.842,6.387-4.278a8.721,8.721,0,0,0,2.525.386c4,0,7.233-2.57,7.233-5.748,0-.089-.03-.178-.03-.253a.323.323,0,0,0,.074-.045,8.824,8.824,0,0,0,2.2.3c4,0,7.233-2.57,7.233-5.748v-.015c3.52-.059,6.446-2.169,6.714-5.05.193-1.961-.921-5.184-2.7-6.387-1.975-1.99-9.224-8.006-12.744-12.4-4.085-5.109-3.58-6.654-6.134-7.664s-18.923,4.085-27.612,0-19.116-16.992-22.5-38.856c-5.006-32.35-1.025-55.224-5.629-62.888l55.789-51.3s10.278-1.248,11.689,15.507a55.476,55.476,0,0,0,5.51,20.438c12.937,25.577,36.375,79.123,36.821,97.422.505,21.478,32.083,58.284,47.753,65.443s40.208,12.269,40.208,12.269l14.823-12.789s-2.05-42.436-4.085-50.115-11.244-33.241-10.234-50.115C517.59,252.571,518.036,254.77,522.641,243.526Z" transform="translate(-274.34 -66.58)"/><path class="f" d="M371.221,145.51a85.7,85.7,0,0,1,11.08-1.1c-18.819-24.508-40.8-4.842-40.8-4.842s10.278-1.248,11.689,15.507a55.476,55.476,0,0,0,5.51,20.438c.074.149.163.327.238.49.059.119.119.253.178.371.4.787.8,1.6,1.218,2.436.089.178.178.371.282.564.4.817.817,1.649,1.233,2.5.089.178.178.371.267.55.431.891.876,1.812,1.322,2.748.045.1.1.208.149.312C368.7,180.311,376.9,168.013,371.221,145.51Z" transform="translate(-241.746 -34.78)"/><path class="f" d="M423.677,97.973c.55-4.189-18.21-17.259-30.865-25.562l-10.962-3c.238,3.906.535,10.115.505,16.71,11.66,13.769,28.875,30.895,48.5,40.267C425.8,116.376,423.023,102.919,423.677,97.973Z" transform="translate(-222.163 -65.207)"/><path class="f" d="M390.291,178.719a34.681,34.681,0,0,0,16.665,4.218,33.757,33.757,0,0,0,8.466-1.084,53.839,53.839,0,0,1,27.211,1.827,60.783,60.783,0,0,1,16.145,8.258.884.884,0,0,1,.223,1.233.9.9,0,0,1-1.248.208A53.771,53.771,0,0,0,442,185.745a46.57,46.57,0,0,0-17.259-1.886,62.4,62.4,0,0,0-8.555,1.456,37.121,37.121,0,0,1-26.587-5.54.64.64,0,0,1,.654-1.1Z" transform="translate(-218.544 -12.215)"/><ellipse class="f" cx="4.114" cy="7.531" rx="4.114" ry="7.531" transform="translate(159.509 131.971) rotate(-75.529)"/><ellipse class="f" cx="4.114" cy="5.57" rx="4.114" ry="5.57" transform="matrix(0.135, -0.991, 0.991, 0.135, 236.726, 156.988)"/><path class="f" d="M442.249,266.91a75.087,75.087,0,0,0-2.02-9.476,92.048,92.048,0,0,0-3.075-9.3,56.892,56.892,0,0,0-4.2-8.793,32.3,32.3,0,0,0-5.926-7.545.879.879,0,0,1-.282-.758l1.1-11.511v-.03a.873.873,0,0,1,1.738.163l-1.1,11.585-.282-.758a34,34,0,0,1,6.283,7.946,60.9,60.9,0,0,1,4.337,9.046,93.09,93.09,0,0,1,3.134,9.476,73.592,73.592,0,0,1,2.094,9.877.891.891,0,0,1-1.768.223Z" transform="translate(-200.379 7.25)"/></g><g transform="translate(533.753 -0.002)"><path class="g" d="M395.295,99.636s-1.381,25.1-7.62,32.023a13.812,13.812,0,0,0-1.664-7.783s-.921,1.381-4.129,2.956c0,0-9.922-74.221-22.532-92.817,0,0,.431-16.621,8.882-27.092,0,0-3.312,10.709.208,14.853,0,0,6-13.16,18.136-16.636,0,0-6.1,2.584-3.49,8.125,0,0,43.312-24.671,95.075-6.728,0,0-10.07,1.842-14.586,7.367,0,0,21.062-5.08,30.85,12.759,0,0-19.7-6.8-31.132,26.632Z" transform="translate(-359.35 0.002)"/><path class="h" d="M456.664,13.9c4.515-5.511,14.586-7.367,14.586-7.367C424.105-9.8,383.972,9.209,377.2,12.729,388.666,7.635,449.43,7.1,449.43,7.1c-10.843,3.788-14.556,14.3-14.556,14.3,4.59-5.466,21.908,0,21.908,0-12.209,3.372-14.036,26.676-14.036,26.676l1.5,13.472,12.135-8.273c11.437-33.434,31.132-26.632,31.132-26.632C477.725,8.823,456.664,13.9,456.664,13.9ZM379.68,5.139a22.787,22.787,0,0,0-6.12,2.792,16.256,16.256,0,0,0,2.629,5.347C373.56,7.739,379.68,5.139,379.68,5.139Z" transform="translate(-352.454 0.004)"/><path class="e" d="M386.939,92.029s25.206,52.179,67.938,35.425c0,0-3.862-28.117,9.714-55.789l-.327-43.847S452.471,36.2,448.3,37.295c0,0-18.121-14.125-30.167-14.957s-41.767,3.594-25.072,51.006c0,0-4.307,4.278-9.952,2.273,0,0,1.708-17.363-14.3-14.244S368.239,106.511,386.939,92.029Z" transform="translate(-358.005 10.803)"/><path class="f" d="M437.395,69.847,437.068,26s-9.313,6.625-14.318,8.852a44.446,44.446,0,0,1-3.089,17.764c-5.852,14.229,10.085,29.677,10.085,29.677a42.33,42.33,0,0,1-11.036,6.06c1.961,5.169,3.1,24.493-.55,39.955a48.431,48.431,0,0,0,9.521-2.659C427.681,125.635,423.819,97.518,437.395,69.847Z" transform="translate(-330.808 12.622)"/><path class="i" d="M390.521,45.069c.579-.847.787-.7,1.069-.965l.832-.49,1.678-.876c1.129-.564,2.273-1.084,3.446-1.56a45.9,45.9,0,0,1,7.248-2.347c4.931-1.159,10.531-1.649,15.967.832a2.589,2.589,0,0,1-2.154,4.708,3.141,3.141,0,0,1-.312-.163l-.059-.045c-3.372-2.169-8.214-2.659-12.893-2.124a43.092,43.092,0,0,0-7.055,1.337c-1.173.312-2.317.668-3.476,1.055l-1.693.624-.817.342c-.238.045-.609.446-.475.045a.688.688,0,0,1-.847.46A.644.644,0,0,1,390.521,45.069Z" transform="translate(-344.238 18.387)"/><path class="i" d="M436.4,40.03c-4.515-1.352-9.6-2.035-14.779-.193a2.607,2.607,0,0,0-.356.163,2.658,2.658,0,0,0,2.5,4.694l.045-.03c3.431-1.827,8.125-1.931,12.625-1.069Z" transform="translate(-329.989 18.792)"/><circle class="i" cx="4.961" cy="4.961" r="4.961" transform="translate(52.15 59.788)"/><circle class="i" cx="4.961" cy="4.961" r="4.961" transform="translate(92.595 60.872)"/><path class="f" d="M377.424,59.159a30.394,30.394,0,0,0-3.149-2.926,5.955,5.955,0,0,0-3.164-1.53c-.772-.059-1.5.654-2.124,1.723a7.017,7.017,0,0,0-.772,3.639,14.962,14.962,0,0,0,2.614,7.649,17.322,17.322,0,0,0,6.342,5.57.433.433,0,0,1,.208.579.442.442,0,0,1-.52.223,15.686,15.686,0,0,1-7.709-5.124,14.968,14.968,0,0,1-3.594-8.823,9.78,9.78,0,0,1,.951-5.035,6.735,6.735,0,0,1,1.738-2.2,4.364,4.364,0,0,1,3.03-.951,7.187,7.187,0,0,1,4.53,2.674,15.1,15.1,0,0,1,2.481,4,.525.525,0,0,1-.267.668.5.5,0,0,1-.564-.119Z" transform="translate(-356.347 25.211)"/><g transform="translate(62.96 106.635)"><path class="j" d="M403.83,74.26s13.323.758,18.849.758c0,0,1.337,2.347,2.124,1.916a4.193,4.193,0,0,0,1.307-1.916s6.1.505,8.2,1.381C434.309,76.4,422,80.558,403.83,74.26Z" transform="translate(-400.723 -70.591)"/><path class="f" d="M411.36,79.54s7.649,2.985,11.2,0C422.559,79.54,418.935,84.783,411.36,79.54Z" transform="translate(-397.069 -68.029)"/><path class="f" d="M403.984,77.2s-2.213-2.213,2.317-5.407C406.3,71.79,397.82,74.107,403.984,77.2Z" transform="translate(-401.738 -71.79)"/></g></g><g transform="translate(115.033 488.69)"><path class="k" d="M208.057,364.686s-36.034,36.969-41.589,62.948c-3.862,18.106-28.043,60.438-42.346,84.47-5.674,9.506-10.739,19.354-15.447,29.365-3.03,6.446-7.278,13.9-12.12,17.854-15.343,12.536-22.71,16.74-17.393,35.811,11.7,41.9,17.081,102.2,17.081,102.2,35.113,21.255,25.443,81.321,25.443,81.321,7.887,3.7,27.226,0,27.226,0l2.778-13.086,7.4,13.086a20.325,20.325,0,0,1,4.233-.713c1.04-.936,1.961-1.767,3-2.718q.223-1.136.4-2.273c.312-1.961.119-.772-.045.475.46-3.58,1.292-6.387,3.758-9.06a9.216,9.216,0,0,1,1.782-1.456l-2.971-18.091c-6.476-8.318-53.59-52.1-53.59-52.1-32.35-140.466,109.468-185.694,169.1-243.963,44.352-43.342,106.274-107.047,106.274-107.047C320.674,303.164,208.057,364.686,208.057,364.686Z" transform="translate(-77.443 -329.013)"/><path class="l" d="M311.423,388.9c-18.329-23.81-65.087-34.638-110.745-39.346-5.793,2.778-9.15,4.6-9.15,4.6s-36.034,36.97-41.589,62.948c-3.535,16.561-24.047,53.367-38.47,77.9,17.556,9.788,38.5,22.829,38.5,22.829,3.594-1.8,17.274-18.878,54.348-36.851S311.423,388.9,311.423,388.9Z" transform="translate(-60.93 -319.047)"/><path class="m" d="M107.9,611.6a135.5,135.5,0,0,1-.668,30.375c7.887,3.7,26.884,1.649,26.884,1.649l3.119-14.734,6.223,13.917c7.278,0,16.665-2.2,16.665-2.2l-5.095-31.1A369.022,369.022,0,0,1,107.9,611.6Z" transform="translate(-62.987 -192.883)"/></g><g transform="translate(549.554 470.683)"><path class="k" d="M574.668,462.54c-6.892-15.017-10.338-34.935-12.031-49.357a16.845,16.845,0,0,0-22.027-14.036c-40.935,13.576-117.815,51.526-117.815,51.526,14.081-12.61,81.99-133.783,81.99-133.783-66.676,24.151-131.985,123.118-134.6,152.661S392.211,499.2,392.211,499.2c6.045-2.2,15.195-1.069,21.983.327A24.593,24.593,0,0,0,432,496.465c30.093-18.329,112.483-68.7,112.483-68.7l5.912,40.386c-26.2,17.467-54.452,12.61-54.452,12.61-1.8,8.659.728,23.825,3.075,34.712,6.862.059,14.229.253,14.229.253l-12.967,5.317c1.04,4.382,1.842,7.278,1.842,7.278,11.9.965,34.682-12.61,34.682-12.61,3.1-8.1,20.586-22.963,32.722-32.588A17.258,17.258,0,0,0,574.668,462.54Z" transform="translate(-369.988 -316.89)"/><path class="l" d="M370.159,465.816c.045.579.074,1.159.148,1.708a27.737,27.737,0,0,0,.535,2.926c.045.178.074.371.119.564a31.016,31.016,0,0,0,.921,3c18.284-12.447,43-33.509,64.923-53.189,13.754-20.988,33.36-54.377,48.005-79.806-7.946-2.837-19.74-1.04-27.419-.52-45.094,37.311-82.524,92.312-86.846,115.632-.148.847-.282,1.693-.356,2.451-.149,1.708-.193,3.3-.178,4.827C370.026,464.257,370.1,465.029,370.159,465.816Z" transform="translate(-369.978 -305.937)"/><path class="m" d="M455,428.191c-1.8,8.659.728,23.824,3.075,34.712,6.862.059,14.229.253,14.229.253l-12.967,5.317c1.04,4.382,1.842,7.278,1.842,7.278,10.1.817,28-8.823,33.2-11.764-5.674-13.16-6.283-27.835-5.57-38.767A81.671,81.671,0,0,1,455,428.191Z" transform="translate(-329.026 -264.316)"/></g><g transform="translate(216.98 337.035)"><path class="k" d="M490.347,226.91s77,30.88,95.669,58.432c0,0,2.807-41.2-1.4-58.432,0,0,39.361,88.629,29.944,129.5S542.481,471.987,500.7,483.543s-243.533-21.329-306.629-48.882c0,0-43.55-31.1-47.991-63.987,0,0,12.61-23.216,37.608-45.139,35.484-31.1,87.173-36.613,127.633-12.328.327.193.639.386.965.579C344.266,333.348,449.783,351.573,490.347,226.91Z" transform="translate(-146.08 -226.91)"/><path class="l" d="M165.57,351.11a142.928,142.928,0,0,0,9.863,15.967c5.421,4.619,9.179,7.308,9.179,7.308,50.025,21.834,187.15,47.025,262.663,50.783v-50.62S294.065,396.264,165.57,351.11Z" transform="translate(-136.621 -166.634)"/></g><g transform="translate(478.817 396.801)"><path class="k" d="M388.856,545.885c4.486-20.423,67.716-143.541,85.421-171.109S489.5,300.244,489.5,300.244c-92.654-91.882-137.065,33.687-147.269,62.279s13.279,179.694,14.289,200.533-20.423,25.1-30.627,40.43S330.854,750.5,330.854,750.5s10.353,10.2,19.933,16.339,5.748,51.541,5.748,51.541c9.313,7,28.652,6.758,41.529,5.659l1.961-13.68,6.1,12.8c2.867-.371,4.6-.683,4.6-.683s-4.174-32.172-9.283-43.4-49-33.687-57.17-49,37.163-138.847,37.163-138.847S384.37,566.308,388.856,545.885Z" transform="translate(-322.364 -267.148)"/><path class="l" d="M384.614,520.876c4.486-20.423,67.716-143.541,85.421-171.109,5.808-9.046,9.447-20.2,11.7-31.088-30.449,49.743-62,69.394-106.631,183.749-3.03,7.783-6.847,30.018-8.154,44.842S333.891,662.07,331.2,694.6c-1.857,22.295,22.844,32.588,39.138,44.634,11.645,8.615,12.4,42.287,14.734,60.319,3.1-.089,6.075-.282,8.763-.52l1.961-13.68,6.1,12.8c2.867-.371,4.6-.683,4.6-.683s-4.174-32.172-9.283-43.4-49-33.687-57.17-49,37.163-138.848,37.163-138.848S380.129,541.3,384.614,520.876Z" transform="translate(-318.122 -242.139)"/><path class="m" d="M388.85,641.771l6.1,12.8c2.867-.371,4.6-.683,4.6-.683s-2.792-21.507-6.61-35.484c-16.413,2.466-35.484-.936-47.575-3.877,1.664,15.239-.015,35.247-.015,35.247,9.313,7,28.652,6.758,41.529,5.659Z" transform="translate(-311.203 -98.558)"/></g><g transform="translate(154.279 431.308)"><path class="k" d="M345.206,358.14s-42,5.659-48.466,14.541c0,0-41.2,76.746-114.711,90.471,0,0,1.619,31.5,25.845,42s67.849,24.493,64.626,36.078c-2.882,10.338-18,37.846-12.016,64.908a10.681,10.681,0,0,1-6.877,12.581c-10,3.372-24.374,9.669-27.969,18.923,0,0-28.266,4.04-38.767,0,0,0-4.842-1.619-4.842-8.882,0,0,13.739-2.421,18.581-6.461,0,0-13.739-2.421-18.581-4.842,0,0-3.238-9.7,0-25.844,0,0,44.426,18.581,56.546-7.263s21-29.885-8.882-38.767c-22.666-6.743-82-25.547-115.365-53.62-14.007-11.793-13.858-33.241-.1-45.332,10.145-8.912,21.567-21.507,29.038-37.564,16.16-34.742,6.55-78.232,66.29-118.692C209.537,290.335,475.855,312.407,345.206,358.14Z" transform="translate(-103.866 -290.38)"/><path class="l" d="M284.918,343.324c-15.165-4.916-56.264,83.831-116.211,78.425-24.6-2.213-30.167,14.125-30.167,14.125,13.294-8.719,26.661,1.678,26.661,1.678,73.508-13.739,114.711-90.471,114.711-90.471a14.3,14.3,0,0,1,5.006-3.758Z" transform="translate(-87.038 -264.781)"/><path class="l" d="M226.927,538.952a10.681,10.681,0,0,0,6.877-12.581c-5.986-27.048,9.135-54.556,12.016-64.908.609-2.169-.446-4.426-2.688-6.743-2.57,2.837-5.228,5.733-6.535,8.763-6.327,14.734-13.68,60.408-15.447,63.512s-25.919,11.585-39.108,21.641c-6.907,5.258-15.8,7.323-23.171,8.451a5.652,5.652,0,0,0,1.337.758c10.5,4.04,38.767,0,38.767,0C202.553,548.622,216.931,542.324,226.927,538.952Z" transform="translate(-77.172 -210.623)"/><path class="m" d="M200.391,539.24c-3.966-13.888-4.6-29.335-4.367-40.4-17.23,3.446-39.064-5.659-39.064-5.659-3.238,16.16,0,25.844,0,25.844,4.842,2.421,11.259,4.961,11.259,4.961a42.653,42.653,0,0,1-11.259,6.342c0,7.263,4.842,8.882,4.842,8.882C171.932,543.1,198.475,539.507,200.391,539.24Z" transform="translate(-78.797 -191.958)"/></g><path class="l" d="M385.277,229.12s-.891,13.026,8.585,18.359c0,0-.1-9.4,4.367-10.085,0,0,7.887,15.8,17.868,20.453,0,0-12.18-16.9,14.675-4.575C430.787,253.286,407.334,233.457,385.277,229.12Z" transform="translate(186.976 111.197)"/></g></g></svg>