<svg xmlns="http://www.w3.org/2000/svg" viewBox="0 0 560.501 893.785"><defs><style>.a{fill:#557035;}.b{fill:#b4d134;}.c{fill:#8ea629;}.d{fill:#b6d006;}.e{fill:#f190ac;}.f{fill:#c2192d;}.g{fill:#e52022;}.h{fill:#2a1c3b;}.i{fill:#2b2624;}</style></defs><g transform="translate(-87.958 0.002)"><g transform="translate(230.288 155.189)"><path class="a" d="M241.213,128.747c0-1.447,7.821-31.127,7.821-31.127l-15.516,6.454a7.508,7.508,0,0,0-2.925,11.7Z" transform="translate(-147.182 -97.62)"/><path class="a" d="M240.019,168c-.27-1.86,5.023-41.762,5.023-41.762l-20.428,11.509c-6.12,3.45-7.058,11.335-1.876,15.706Z" transform="translate(-152.792 -80.743)"/><path class="a" d="M242.878,208.644c-.556-2.226,1.017-51.284,1.017-51.284l-23.4,16.453c-7.011,4.928-7.2,14.609-.366,19.283Z" transform="translate(-155.301 -62.391)"/><path class="a" d="M242.614,248.114c-.62-2.464,1.129-56.514,1.129-56.514l-25.785,18.123c-7.726,5.437-7.933,16.1-.4,21.254Z" transform="translate(-157.119 -42.199)"/><path class="a" d="M242.614,288.944c-.62-2.464,1.129-56.514,1.129-56.514l-25.785,18.139c-7.726,5.437-7.933,16.1-.4,21.254Z" transform="translate(-157.119 -18.121)"/><path class="a" d="M242.614,329.144c-.62-2.464,1.129-56.514,1.129-56.514l-25.785,18.139c-7.726,5.437-7.933,16.1-.4,21.254Z" transform="translate(-157.119 5.585)"/><path class="a" d="M242.614,366.454c-.62-2.464,1.129-56.514,1.129-56.514l-25.785,18.139c-7.726,5.437-7.933,16.1-.4,21.254Z" transform="translate(-157.119 27.587)"/><path class="a" d="M216.956,391.288c.858-2.385,32.414-46.308,32.414-46.308l-31.508.7c-9.459.207-15.547,8.95-12.161,17.423Z" transform="translate(-161.412 48.25)"/><path class="a" d="M177.49,401.2c2.21-1.24,54.877-13.592,54.877-13.592l-24.211-20.189c-7.265-6.057-17.6-3.482-20.618,5.135Z" transform="translate(-177.49 59.531)"/><path class="a" d="M192.01,255.79c.795.795,12.241,21.763,12.241,21.763l5.739-12.686a5.619,5.619,0,0,0-4.61-8.171Z" transform="translate(-168.927 -4.346)"/><path class="a" d="M183.22,245.2c.636.429,11.223,12.877,11.223,12.877l2.1-9.3a3.847,3.847,0,0,0-4.229-4.833Z" transform="translate(-174.111 -11.354)"/></g><g transform="translate(274.1 -0.002)"><path class="a" d="M301.037,92.252s-39.3-34.592-34.29-80.439A10.666,10.666,0,0,0,253.139.43c-14.943,4.308-36.452,18-48.089,59.98,0,0,28.488-30.173,44.448-12.447,12.209,13.56,0,31.444,0,31.444s27.041-12.718,45.641,16.5Z" transform="translate(-205.05 0.002)"/><path class="a" d="M302.049,89.106s.938-37.787,30.729-64.94A9.248,9.248,0,0,0,330.6,8.937C318.487,3.23,285.183,1.163,253.77,27.266c0,0,48.5-9.936,46.96,10.731-1.065,14.4-19.394,18.393-19.394,18.393s23.019-.858,15.722,32.732h4.992Z" transform="translate(-176.319 3.148)"/></g><g transform="translate(414.313 621.311)"><path class="b" d="M428.186,561.859s39.711,20.3,45.37-13.131c5.675-33.432-37.024-51.046-89.866-25.976C383.706,522.736,395.358,564.546,428.186,561.859Z" transform="translate(-239.917 -320.02)"/><path class="c" d="M421.169,560.19s33.448,19.633,38.232-12.7-31.19-49.376-75.7-25.117C383.7,522.355,393.509,562.781,421.169,560.19Z" transform="translate(-239.911 -320.02)"/><g transform="translate(107.289 189.74)"><path class="d" d="M364.5,557.851s56.975,5.262,74.128,8.664,36.627-7.726,28.742-33.225-46.817-35.689-106.622,0Z" transform="translate(-360.734 -510.187)"/><path class="c" d="M363.745,554.933s45.418,4.737,59.089,7.79,29.187-6.963,22.908-29.9-37.326-32.112-85,0Z" transform="translate(-360.74 -509.098)"/></g><path class="b" d="M298.114,608.587s11.812,30.332,36.611,28.313c24.815-2,76.417-5.5,103.474,0s42.1-10.285,39.091-28.313c-3-18.043-27.756-33.082-48.836-24.052,0,0,57.1-51.125,49.217-118.783-7.9-67.658-89.087-102.9-160.5-47.691C317.175,418.06,280.294,498.07,298.114,608.587Z" transform="translate(-293.25 -390.832)"/><path class="c" d="M446.915,607.24c-8.473-16.771-59.042-6.708-63.382-5.945s45.847-51.586,50.95-99.9c4.547-43.033-3.481-86.178-39.949-105.747,0,0-67.022,147.064-96.925,214.468,4.356,8.314,15.69,25.467,34.56,23.941,24.815-2,76.417-5.5,103.474,0a52.326,52.326,0,0,0,10.619,1.081C450.842,629.894,453.926,621.134,446.915,607.24Z" transform="translate(-290.679 -387.991)"/></g><g transform="translate(502.875 524.368)"><path class="b" d="M364.237,408.922c0,3.577,20.4,25.213,41.173,10.254s16.469-40.967,3.927-62.937-21.954-41.3-60.377-10.015Z" transform="translate(-348.96 -329.851)"/><path class="c" d="M360.9,383.117c5.659-1.526,11.335-3.307,16.867-5.326,2.782-1,5.5-2.13,8.187-3.354a34.068,34.068,0,0,0,7.551-4.483.248.248,0,1,1,.334.366,35.681,35.681,0,0,1-7.344,5.182c-2.607,1.463-5.294,2.814-8.012,4.054-5.437,2.5-10.969,4.706-16.628,6.724a1.654,1.654,0,1,1-1.113-3.116.373.373,0,0,1,.127-.032Z" transform="translate(-342.662 -306.24)"/><path class="c" d="M389.214,343.023c-5.58,1.987-11.1,4.2-16.469,6.645-2.687,1.208-5.326,2.544-7.869,3.958a32.879,32.879,0,0,0-6.931,4.865l-.032.032a1.652,1.652,0,1,1-2.321-2.353c.032-.032.064-.048.079-.079a36.333,36.333,0,0,1,7.933-4.88q4.1-1.955,8.3-3.545c5.6-2.13,11.255-3.99,17.01-5.628a.529.529,0,0,1,.652.366A.535.535,0,0,1,389.214,343.023Z" transform="translate(-345.338 -322.676)"/><path class="c" d="M391.788,356.415l-31.794,16.851a1.657,1.657,0,0,1-1.558-2.925c.032-.016.079-.032.111-.048L391.5,355.859a.315.315,0,0,1,.413.159A.294.294,0,0,1,391.788,356.415Z" transform="translate(-343.89 -314.528)"/></g><g transform="translate(87.958 100.216)"><path class="b" d="M385.046,253.344s108.8,175.2,129.673,241.461,46.435,135.984,28.138,211.511c-7.9,32.573-55.592,150.148-210.732,118.529-49.043-10-165.966-23.067-216.82-139.417-10.985-25.149-78.071-163.39,49.933-219.682s81.7-92.585,51.745-133.44c0,0,98.832,62.317,35.4,141.611-29.41,36.754-87.211,73.381-53.557,91.678,32.827,17.852,114.38,8.171,114.38-87.148s-.572-206.726,2.305-262.509c3.02-58.565,8.028-90.311,26.707-130.69,17.8-38.455,27.852-15.293,27.852-15.293Z" transform="translate(-87.958 -63.04)"/><path class="c" d="M236.791,278.77c20.746,43.59-43.8,61.887-68.818,73.858q-1.979,1.049-4.054,2.1a1.183,1.183,0,0,0-.191.111c-26.6,15.325-43.145,44.019-27.264,81.886,6.915,16.485,23.13,25.26,39.218,29.918-.6-.3-1.224-.572-1.8-.89-33.654-18.3,24.148-54.924,53.557-91.678C257.028,337.049,251.3,303.76,236.791,278.77Zm-44.75-46.34a246.35,246.35,0,0,1,22.145,18A152.891,152.891,0,0,0,192.041,232.43Z" transform="translate(-63.017 36.851)"/><path class="c" d="M258.759,469.612c-33.018-3.688-59.853-17.423-81.568-12.877C117.927,469.151,94.86,428.28,94.86,428.28v.016a384.066,384.066,0,0,0,16.374,41.762C158.4,577.983,262.4,597.044,316.354,607.2,333.348,580.558,332.76,477.879,258.759,469.612Z" transform="translate(-83.888 152.345)"/><path class="c" d="M252.17,135.291s2.337,114.4,74.192,150.752c-21.509-36.6-38.153-63.382-38.153-63.382L279.434,115.07Z" transform="translate(8.879 -32.357)"/></g><g transform="translate(258.108 365.494)"><path class="e" d="M369.254,234.026a51.245,51.245,0,0,0-21.684-4.086c-36.913,1.192-45.45,50.283-32.589,90.025,14.228,43.971,68.946,147.906,6.947,252.048C284.634,634.665,207.66,676.776,194.99,709.492c29.362,9.268,56.18,13.338,74.017,16.978,155.124,31.619,202.831-85.956,210.732-118.529,18.3-75.527-7.265-145.236-28.138-211.511C440.028,359.645,401.366,289.332,369.254,234.026Z" transform="translate(-194.99 -229.912)"/><path class="f" d="M382.393,584.789a394.257,394.257,0,0,1-67.372-2.21c-9.491-1.1-20.11-2.019-30.507-3.943q-2.241,2.695-4.531,5.341c7.964,1.812,16.151,2.941,24.068,4.149a388.67,388.67,0,0,0,72.92,4.308c29.505-1.113,58.835-5.866,86.719-15.007q.811-4.173,1.431-8.33A316.364,316.364,0,0,1,382.393,584.789ZM323.367,507.72a393.363,393.363,0,0,0,140.5-19.283c-.381-2.369-.795-4.721-1.224-7.074-44.989,13.608-90.836,20.46-137.3,19.7C324.734,503.269,324.067,505.494,323.367,507.72Zm8.3-82.379c37.851-4.213,75.75-7.71,113.664-11.351-.763-2.48-1.542-4.944-2.305-7.408-37.406,2.989-74.764,7.472-111.947,12.575C331.3,421.192,331.475,423.274,331.666,425.341ZM229.956,632.623c-1.351,1.176-2.687,2.353-4.006,3.513,60.2,34.56,129.243,40.712,195.026,25.26q4.507-4.888,8.441-9.9C362.792,669.155,291.557,666.023,229.956,632.623ZM315.578,351.96a651.2,651.2,0,0,1,102.234-13.878c-.986-2.114-2.019-4.276-3.052-6.454A610.426,610.426,0,0,0,313.909,347Q314.743,349.456,315.578,351.96Zm67.531-81.377-3.482-6.343a552.629,552.629,0,0,0-87.243,16.914c.27,1.8.588,3.577.938,5.373A612.057,612.057,0,0,1,383.109,270.583Z" transform="translate(-176.733 -209.668)"/></g><g transform="translate(335.564 81.142)"><path class="b" d="M365.333,234.182s10.429,52.222-15.293,59.789c-25.737,7.567-59.026-21.954-82.49-85.51-23.464-63.572-23.83-112.329-23.83-112.329s32.907-15.563,39.727-14.053S365.333,234.182,365.333,234.182Z" transform="translate(-243.71 -32.799)"/><path class="c" d="M353.289,220.108s7.138,35.7-10.46,40.887-49.726-27.407-65.766-70.869-15.341-89.517-15.341-89.517,30.92,14.466,35.562,15.5S353.289,220.108,353.289,220.108Z" transform="translate(-233.096 -21.81)"/><path class="g" d="M351.2,212.547s6.677,33.447-9.793,38.3c-16.485,4.849-46.578-25.674-61.6-66.386S265.432,100.6,265.432,100.6s28.949,13.544,33.32,14.514C303.108,116.1,351.2,212.547,351.2,212.547Z" transform="translate(-230.909 -21.816)"/><path class="b" d="M290.636,51.341s27.311-5.6,36.42,31.508c9.109,37.12,39.918,78.436,84.731,82.633,20.364,1.908,34.656,2.957,44.178,3.513a26.155,26.155,0,0,1,23.13,17.376c4.419,12.463,9.03,30.4,7.615,48.423-2.8,35.721-15.4,60.282-73.524,60.25-77.562-.048-113.442-71.457-122.551-97.37s-13.306-66.529-13.306-66.529-34.306-8.41-33.606-16.8C244.423,105.964,261.227,50.642,290.636,51.341Z" transform="translate(-243.713 -51.041)"/><path class="c" d="M256.12,93.58s5.151,18.822,34.576,9.173c0,0-8.934,12.4-26.039,5.516C255.882,104.74,256.12,93.58,256.12,93.58Z" transform="translate(-236.397 -25.955)"/><ellipse class="h" cx="25.165" cy="13.274" rx="25.165" ry="13.274" transform="translate(157.711 176.551) rotate(-84.595)"/><path class="h" d="M398.219,138.618a26.037,26.037,0,0,0-2.464-4.992,8.888,8.888,0,0,0-6.883-1.351c-7.106,1.844-10.031,14.244-6.534,27.693C385.819,173.416,394.4,182.843,401.51,181a8.249,8.249,0,0,0,4.515-3.227C405.611,163,401.875,148.935,398.219,138.618Z" transform="translate(-162.836 -3.271)"/><path class="i" d="M286.614,65.772a16.509,16.509,0,0,1,7.344-1.208l-4.2-6.534S270.621,64.6,263.42,79.094c0,0,8.918-5.691,13.29-8.378A27.933,27.933,0,0,0,272.7,83.1c-.97,10.317,2.973,19.14,8.823,19.7s11.382-7.36,12.368-17.693C294.8,75.708,291.606,67.584,286.614,65.772Zm28.821,12.956a61.418,61.418,0,0,0-4.737-13.1c-5.341,1.335-8.871,9.681-7.933,19.458.97,10.317,6.518,18.25,12.368,17.693,2.718-.254,5.008-2.305,6.6-5.437A118.911,118.911,0,0,1,315.435,78.728ZM305.8,58.03l-1.828,5.691a26.837,26.837,0,0,1,6.566,1.621A40.344,40.344,0,0,0,305.8,58.03Z" transform="translate(-232.092 -46.919)"/></g><g transform="translate(268.79 447.663)"><path class="c" d="M257.007,355.384c38.614-32.525,43.8-53.684,35.26-64.224-4.944,1.987-8.092,12.447-13.306,10.7a94.608,94.608,0,0,0-37.708-4.578c.016,15.77.032,31.429.032,46.658a129.565,129.565,0,0,1-4.4,34.8A96.116,96.116,0,0,1,257.007,355.384Zm66.052,40.9c-4.308-4.737-21.954-21.159-38.646-21.159-15.706,0-27.709,13.481-35.737,40.092-5.691-4.4-15.977-13.878-15.929-24.482-6.136,14.435-12.5,23.146-22.828,30.65,8.934,25.547,38.5,51.793,59.28,54.766s40.3-2.877,52.619-38.646C327.4,421.262,332.264,406.4,323.06,396.287Z" transform="translate(-196.868 -275.962)"/><path class="b" d="M251.468,281.6s-62.46,93.952-47.421,126.525,47.421,65.146,77.9,66.386c30.459,1.256,51.141-58.247,40.49-70.774S274.2,356.761,255.41,426.279c0,0-26.93-16.915-20.046-36.325s32.573-35.7,43.844-53.859S324.054,282.9,251.468,281.6Z" transform="translate(-201.71 -281.6)"/><path class="c" d="M279.027,404.133a36.917,36.917,0,0,0-5.691-6.963,51.646,51.646,0,0,0-7.17-5.818,57.12,57.12,0,0,0-8.139-4.515,65.375,65.375,0,0,0-8.791-3.243h-.016a.459.459,0,0,1-.3-.572.48.48,0,0,1,.556-.318,68.634,68.634,0,0,1,9.141,2.75,60.105,60.105,0,0,1,8.68,4.117,55.492,55.492,0,0,1,7.885,5.612,38.656,38.656,0,0,1,6.709,7.265,1.656,1.656,0,1,1-2.718,1.892.348.348,0,0,0-.048-.079Z" transform="translate(-173.884 -221.984)"/><path class="c" d="M285.87,392.558a36.926,36.926,0,0,0-5.707-6.947,51.537,51.537,0,0,0-7.17-5.8,57.034,57.034,0,0,0-8.139-4.5,65.3,65.3,0,0,0-8.791-3.227h-.016a.527.527,0,0,1,.27-1.017,69.643,69.643,0,0,1,9.157,2.766,60.193,60.193,0,0,1,8.68,4.133,55.458,55.458,0,0,1,7.869,5.628,39.18,39.18,0,0,1,6.693,7.281,1.658,1.658,0,0,1-2.734,1.876c-.016-.032-.032-.048-.048-.079Z" transform="translate(-169.885 -228.85)"/><path class="c" d="M290.43,380.594a36.291,36.291,0,0,0-5.643-7.011,52.121,52.121,0,0,0-7.138-5.9,57.579,57.579,0,0,0-8.139-4.594,68.278,68.278,0,0,0-8.807-3.338.164.164,0,0,1-.111-.191.147.147,0,0,1,.175-.111,68.007,68.007,0,0,1,9.125,2.655,59.654,59.654,0,0,1,8.68,4.038,53.125,53.125,0,0,1,7.9,5.548,38.97,38.97,0,0,1,6.756,7.2,1.654,1.654,0,0,1-2.7,1.908.4.4,0,0,1-.064-.111Z" transform="translate(-166.989 -235.692)"/></g><g transform="translate(131.169 640.59)"><path class="d" d="M174.2,456.112s-12.3-8.569-22.208-5.993-46.737,15.42-34.322,94.206,42.827,80.5,52.238,80.932,18.409-4.706,18.409-4.706h19.7L229,619.264s2.575-21.413,0-32.112C226.436,576.437,193.465,474.95,174.2,456.112Z" transform="translate(-115.14 -375.435)"/><path class="c" d="M165.414,458.862a28.922,28.922,0,0,0-2.432-2.75s-12.3-8.569-22.208-5.993a47.228,47.228,0,0,0-4.515,1.431c-7.233,40.442,6.55,60.377,6.55,60.377l21.509-30.872Z" transform="translate(-103.924 -375.435)"/><g transform="translate(79.804 201.194)"><ellipse class="c" cx="19.999" cy="23.575" rx="19.999" ry="23.575" transform="translate(0 3.577)"/><ellipse class="d" cx="19.999" cy="23.575" rx="19.999" ry="23.575"/></g><g transform="translate(53.065 201.829)"><circle class="c" cx="23.575" cy="23.575" r="23.575" transform="translate(0.811 4.213)"/><circle class="d" cx="23.575" cy="23.575" r="23.575"/></g><g transform="translate(18.057 204.77)"><path class="c" d="M185.892,555.339c0,13.02-11.033,23.575-24.641,23.575S134.338,565.18,127.3,550.634c-5.675-11.716,20.348-18.854,33.956-18.854S185.892,542.32,185.892,555.339Z" transform="translate(-126.499 -531.764)"/><path class="d" d="M183.555,554.153c-2.1,12.845-9.284,20.11-22.3,21.191-13.56,1.113-26.914-10.158-33.956-24.72-5.675-11.716,20.348-18.854,33.956-18.854S185.988,539.273,183.555,554.153Z" transform="translate(-126.499 -531.77)"/></g><path class="c" d="M221.071,583.834s-.175,2.7-.413,4.769c-14.753.874-67.022-8.171-82-105.143l82.347,98.832Z" transform="translate(-101.27 -355.488)"/><ellipse class="c" cx="113.187" cy="116.557" rx="113.187" ry="116.557" transform="translate(36.834)"/><ellipse class="b" cx="110.898" cy="109.595" rx="110.898" ry="109.595" transform="translate(34.227)"/></g><g transform="translate(197.334 373.396)"><ellipse class="c" cx="27.613" cy="11.573" rx="27.613" ry="11.573" transform="translate(0 367.935) rotate(-65.242)"/><ellipse class="c" cx="12.384" cy="6.979" rx="12.384" ry="6.979" transform="matrix(0.539, -0.843, 0.843, 0.539, 4.953, 402.791)"/><ellipse class="c" cx="7.678" cy="4.34" rx="7.678" ry="4.34" transform="matrix(0.539, -0.843, 0.843, 0.539, 30.01, 370.871)"/><ellipse class="c" cx="10.508" cy="5.453" rx="10.508" ry="5.453" transform="translate(129.082 47.821) rotate(-84.595)"/><path class="c" d="M248.839,243.629c-3.481-.254-3.036,6.55-1.574,8.3a3.019,3.019,0,0,0,3.609.493c1.447-.763,1.892-2.75,1.939-4.229a7.484,7.484,0,0,0-1.463-5.039c-.843-1-2.067-1.749-3.259-.827-2.623,2.019-2.385,8.108-.064,10.126.747.652,1.463-.858,1.59-1.288a6.94,6.94,0,0,0,.032-3.863c-.493-1.765-.238,1.494-.111,2.035a.464.464,0,0,1,.334.238q.525.668-.191-.811c.032-.938.064-1.892.1-2.83.175-.763.477-.445-.191-.445-.207,0-.97.032-.827.382.175.827.334,1.637.509,2.464q-.31,2.146.334.668c.572-1.049,1.176-5.23-.763-5.373Z" transform="translate(-104.033 -230.741)"/><path class="c" d="M240.112,238.01c-2.671,2.718-3.688,7.424-3.8,11.112-.079,2.766.429,7.98,3.625,9.061,2.877.97,5.612-2.989,6.645-5.167a20.8,20.8,0,0,0,1.59-11.494c-.382-2.718-2.019-7.281-5.6-6.565-3.386.684-4.149,6.6-4.721,9.268-.54,2.528-2.273,9.125.938,10.762,2.766,1.415,6.359-3.911,7.154-5.914.954-2.4,2.1-10.508-1.606-11.525-4.022-1.1-4.578,8.457-4.419,10.635.1,1.335,1.86,5.993,3.084,2.639a15.985,15.985,0,0,0,1.017-4.8c.032-.763.016-5.135-1.8-4.817-1,.175-1.319.684-1.733,1.574-.874,1.892.525,9.125,2.544,5.373.064-.111.127-.238.191-.35-.4.382-.795.763-1.192,1.16.127-.016.254-.048.382-.064-.6-1.606-1.208-3.211-1.8-4.817a6.882,6.882,0,0,1-.493,2.178c1.081.286,2.162.556,3.243.843.636-1.017.429-1.765-.6-2.241a5.791,5.791,0,0,1-.954,1.113c-.223.223-1.908,1.908-2.21,1.447.318,1.081.636,2.178.938,3.259-.048-1.828.413-5.8,1.574-7.376.986-1.319,2.544-.986,2.846.684a6.293,6.293,0,0,1-.588,3.036c-.493,1.24-2.925,5.294-4.547,3.529-1.59-1.733,1.208-6.629,1.86-8.33.318-.89.175-5.977-1.574-4.213Z" transform="translate(-109.853 -234.883)"/></g><g transform="translate(155.365 438.554)"><path class="a" d="M185.789,394.827l-7.424-23.13c-2.337-7.662-10.874-10.635-17.01-5.93L144.17,378.612A110.378,110.378,0,0,0,185.789,394.827Z" transform="translate(-122.216 -224.188)"/><path class="a" d="M136.324,369.08a41.991,41.991,0,0,0,7.964,12.273l9.538-13.958c4.245-6.2,1.415-14.18-5.612-15.913L130.49,347.11A77.844,77.844,0,0,0,136.324,369.08Z" transform="translate(-130.283 -233.859)"/><path class="a" d="M187.791,301.528l-2.559,14.021a164.3,164.3,0,0,0,24.338-13.1l-10.985-5.961A7.307,7.307,0,0,0,187.791,301.528ZM219.569,276.2c-5.008.143-7.98,4.547-5.946,8.759l5.023,10.365c6.089-5.612,10.572-12.034,12.241-19.458Zm-73.3,43.383-.4,15.372a82.489,82.489,0,0,1,8.648-5.755,1.182,1.182,0,0,0,.191-.111q2.075-1.049,4.054-2.1c4.483-2.146,10.222-4.5,16.517-7.154l-16.835-7.376C152.531,309.89,146.426,313.451,146.267,319.587Z" transform="translate(-121.214 -275.87)"/><path class="a" d="M130.36,352.38l18.9-4.9c7.074-1.828,9.936-9.125,5.707-14.546L144.334,319.33A56.754,56.754,0,0,0,130.36,352.38Z" transform="translate(-130.36 -250.241)"/></g></g></svg>