<svg xmlns="http://www.w3.org/2000/svg" width="211.438" height="113.445" viewBox="0 0 211.438 113.445">
  <g id="hiv_footer_logo" transform="translate(-343.305 -79.581)">
    <path id="Path_432" data-name="Path 432" d="M368.145,84.581c-.049.085-.1.173-.146.267-.029.055-.056.115-.084.172-.048.1-.1.209-.143.321-.023.053-.045.106-.067.162-.071.174-.141.359-.21.559-.056.175-.114.384-.172.61a17.544,17.544,0,0,0-.459,4.347c0,.38.005.773.022,1.176.008.18.021.368.032.551.015.224.026.445.044.673.022.266.05.543.079.816.016.155.029.306.047.464.038.327.084.659.131,1,.014.111.029.22.045.332.056.376.117.76.185,1.15.012.075.025.148.038.224.073.422.154.851.241,1.287.009.045.018.088.028.131q.136.693.3,1.405c.005.022.01.042.014.063q.166.741.356,1.508h0c0-.119-.006-.246-.006-.363a13.265,13.265,0,0,1,.531-4.058,5.017,5.017,0,0,1,2.2-2.982c1.115-.7,3.124-1.37,6.483-1.374h.011a15.67,15.67,0,0,1,5.065.69,5.178,5.178,0,0,1,3.08,2.349,10.719,10.719,0,0,1,1.109,5.347c0,.13-.007.271-.007.4a45.48,45.48,0,0,0,1.531-10.82c0-3.673-.778-5.557-1.25-6.359a5.28,5.28,0,0,0-3.268-2.446,17.673,17.673,0,0,0-4.928-.805c-.38-.012-.76-.026-1.148-.029-.06,0-.117,0-.18,0l-.033,0c-.145,0-.281.005-.42.006-.162,0-.324.005-.484.009-4.026.123-6.061,1.017-6.945,1.57a4.681,4.681,0,0,0-1.547,1.508v.005c-.027.041-.052.088-.077.132" transform="translate(-3.249 -0.244)" fill="#fff"/>
    <path id="Path_433" data-name="Path 433" d="M406.938,181.451c-2.219-3.06-12.436-17.345-22-33.855q-1.1-1.906-2.19-3.837l-6.66-12.687c-.36-.738-.708-1.472-1.057-2.21-1.528-3.229-2.958-6.423-4.247-9.543-4.587-10.986-7.33-21.18-7.286-27.962a17.992,17.992,0,0,1,.722-5.5,9.806,9.806,0,0,1,.9-1.98,16.686,16.686,0,0,0-7.322,6.712,22.1,22.1,0,0,0-2.663,11.211c.059,8.248,2.966,17.327,7.007,26.839,2.154,5.012,4.658,10.118,7.322,15.136l6.661,11.862c2.882,4.891,5.775,9.529,8.47,13.714,7.424,11.523,13.347,19.561,13.4,19.627l-.152-9.714,9.544,2.792s-.145-.2-.441-.606" transform="translate(-1.631 -0.592)" fill="#fff"/>
    <path id="Path_434" data-name="Path 434" d="M372.969,166.378l-.008-.017-6.139-10.932c-3.54,6.254-7.222,12.265-10.591,17.525-3.6,5.622-6.845,10.4-9.182,13.773-1.17,1.682-2.112,3.014-2.759,3.922s-.986,1.365-.986,1.367l9.186-3.035.228,9.929c.07-.1,10.327-14.1,20.755-31.687-.163-.273-.333-.554-.495-.829Z" transform="translate(0 -10.461)" fill="#fff"/>
    <path id="Path_435" data-name="Path 435" d="M387.233,141.859c2.28-4.409,4.428-8.869,6.3-13.261,4.014-9.526,6.895-18.609,6.929-26.861a24.889,24.889,0,0,0-1.111-7.635,16.8,16.8,0,0,0-7.178-9.306,18.133,18.133,0,0,0-1.742-.932c.043.067.087.134.131.205a14.525,14.525,0,0,1,1.505,7.251c.075,7.238-3.037,18.348-8.133,30.2-1.05,2.47-2.182,4.981-3.373,7.512.2.416.394.828.595,1.245Z" transform="translate(-5.138 -0.591)" fill="#fff"/>
    <path id="Path_436" data-name="Path 436" d="M445.73,112.791H429.564l-3.1,7.437h-6.326l17.455-40.647h.35l17.513,40.647h-6.617Zm-13.881-5.506h11.6l-5.74-13.94Z" transform="translate(-10.596)" fill="#fff"/>
    <path id="Path_437" data-name="Path 437" d="M465.249,106.3V80.532h6.268v25.419c0,6.384,3.164,9.254,8.96,9.254,5.741,0,8.9-2.871,8.9-9.254V80.532h6.269V106.3c0,9.723-6.562,14.583-15.173,14.583-8.667,0-15.229-4.86-15.229-14.583" transform="translate(-16.818 -0.131)" fill="#fff"/>
    <path id="Path_438" data-name="Path 438" d="M516.157,94.086v26.179H510.3V79.852h.466l25.539,26.767V80.438h5.857v40.415H541.7Z" transform="translate(-23.032 -0.037)" fill="#fff"/>
    <path id="Path_439" data-name="Path 439" d="M565.684,86.095H553.854V80.531h29.929v5.564H571.951v34.264h-6.266Z" transform="translate(-29.039 -0.131)" fill="#fff"/>
    <path id="Path_440" data-name="Path 440" d="M427.038,172.831h-6.266V133H433.54c9.312,0,14.642,5.1,14.642,12.65,0,5.565-2.752,9.548-7.732,11.361l9.609,15.817H443.2l-8.9-14.7h-7.262Zm6.267-20.09c5.916,0,8.374-2.342,8.374-7.088,0-4.8-2.518-7.085-8.374-7.085h-6.267v14.173Z" transform="translate(-10.684 -7.368)" fill="#fff"/>
    <rect id="Rectangle_32" data-name="Rectangle 32" width="6.269" height="39.828" transform="translate(445.29 125.635)" fill="#fff"/>
    <path id="Path_441" data-name="Path 441" d="M487.57,138.568H475.74V133h29.93v5.566H493.836v34.263H487.57Z" transform="translate(-18.265 -7.368)" fill="#fff"/>
    <path id="Path_442" data-name="Path 442" d="M533,165.261H516.834l-3.106,7.439H507.4l17.456-40.648h.353L542.721,172.7H536.1Zm-13.882-5.505h11.6l-5.742-13.94Z" transform="translate(-22.632 -7.237)" fill="#fff"/>
    <path id="Path_443" data-name="Path 443" d="M546.757,139.947a4.134,4.134,0,0,1-2.46-3.63,3.954,3.954,0,0,1,7.907-.059,7.592,7.592,0,0,1-1.347,4.1l-3.105,4.979h-2.987Z" transform="translate(-27.721 -7.284)" fill="#fff"/>
    <path id="Path_444" data-name="Path 444" d="M561.528,162.262a9.667,9.667,0,0,0,9.021,5.389c4.218,0,7.027-1.992,7.027-5.216,0-3.746-2.869-5.152-6.383-6.735l-2.752-1.23c-5.859-2.576-9.9-5.506-9.9-11.711,0-6.093,4.63-10.369,11.424-10.369,5.505,0,9.195,2.051,11.714,6.269l-4.745,3.1a7.331,7.331,0,0,0-6.853-3.866c-3.4,0-5.448,1.873-5.448,4.627,0,3.163,1.992,4.276,6.328,6.209l2.752,1.229c6.035,2.695,10.073,5.565,10.073,12.3,0,7.322-5.622,11.011-13.178,11.011-6.795,0-11.654-3.279-14.348-8.375Z" transform="translate(-29.37 -7.284)" fill="#fff"/>
    <path id="Path_445" data-name="Path 445" d="M421.361,191.926h10.2v2.281h-7.623v5.146h6.951v2.289h-6.951v6.635h-2.574Z" transform="translate(-10.765 -15.494)" fill="#fff"/>
    <path id="Path_446" data-name="Path 446" d="M435.5,200.064a8.442,8.442,0,1,1,8.442,8.4,8.274,8.274,0,0,1-8.442-8.4m14.213,0a5.779,5.779,0,1,0-5.771,6.068,5.725,5.725,0,0,0,5.771-6.068" transform="translate(-12.716 -15.46)" fill="#fff"/>
    <path id="Path_447" data-name="Path 447" d="M458.183,202.51V191.926h2.573v10.438c0,2.618,1.3,3.8,3.679,3.8,2.357,0,3.655-1.184,3.655-3.8V191.926h2.575V202.51c0,3.989-2.695,5.984-6.23,5.984-3.557,0-6.253-1.995-6.253-5.984" transform="translate(-15.844 -15.495)" fill="#fff"/>
    <path id="Path_448" data-name="Path 448" d="M479.083,197.485v10.756h-2.407V191.648h.194l10.486,10.994V191.887h2.405v16.6h-.194Z" transform="translate(-18.394 -15.456)" fill="#fff"/>
    <path id="Path_449" data-name="Path 449" d="M495.954,191.926h4.615c5.341,0,8.611,3.341,8.611,8.173s-3.247,8.179-8.611,8.179h-4.615Zm4.474,14.068c4.233,0,6.083-2.426,6.083-5.9s-1.85-5.891-6.083-5.891h-1.9v11.787Z" transform="translate(-21.053 -15.495)" fill="#fff"/>
    <path id="Path_450" data-name="Path 450" d="M522.139,205.171h-6.633l-1.278,3.052h-2.6l7.167-16.69h.143l7.192,16.69h-2.723Zm-5.7-2.263H521.2l-2.348-5.721Z" transform="translate(-23.215 -15.44)" fill="#fff"/>
    <path id="Path_451" data-name="Path 451" d="M532.057,194.207h-4.866v-2.281h12.288v2.281h-4.855v14.07h-2.567Z" transform="translate(-25.361 -15.494)" fill="#fff"/>
    <rect id="Rectangle_33" data-name="Rectangle 33" width="2.58" height="16.352" transform="translate(516.549 176.431)" fill="#fff"/>
    <path id="Path_452" data-name="Path 452" d="M550.544,200.064a8.442,8.442,0,1,1,8.438,8.4,8.274,8.274,0,0,1-8.438-8.4m14.212,0a5.778,5.778,0,1,0-5.774,6.068,5.728,5.728,0,0,0,5.774-6.068" transform="translate(-28.582 -15.46)" fill="#fff"/>
    <path id="Path_453" data-name="Path 453" d="M575.744,197.485v10.756h-2.409V191.648h.193l10.484,10.994V191.887h2.409v16.6h-.193Z" transform="translate(-31.726 -15.456)" fill="#fff"/>
    <rect id="Rectangle_34" data-name="Rectangle 34" width="145.157" height="1.222" transform="translate(409.539 170.374)" fill="#fff"/>
  </g>
</svg>
