<svg xmlns="http://www.w3.org/2000/svg" viewBox="0 0 603.65 403.34"><defs><style>.a{fill:#80cabb;}.b{fill:#ceb341;}.c{fill:#b6d131;}</style></defs><path class="a" d="M135.87,42.9c.72,42.73.97,95.6,2.17,140.02,0,0,7,3.14,14.73,7.24-14.48,1.93-31.87,4.11-49.01,6.28,7.73-7,14-12.07,14-12.07-.24-19.07-.24-39.59-.24-60.84-5.55.24-15.21.97-24.38,1.45,0,23.9.24,47.8.48,69.53,0,0,5.79,5.07,12.07,11.35-12.79-.72-32.83-1.93-48.52-3.14,8.93-5.79,16.66-10.14,16.66-10.14.24-42.97,1.69-86.91,1.93-138.81-7-3.86-14.97-7.97-14.97-7.97,13.28-1.69,30.42-3.86,44.9-5.31-6.52,7-13.04,13.04-13.04,13.04,0,16.9.24,35.49.24,54.56,4.1-.48,13.76-1.69,24.62-2.66,0-21,0-42.73-.24-65.18-6.76-4.35-13.04-8.69-13.04-8.69,14.73-.24,33.31-.24,49.73,0C153.97,31.55,143.83,38.31,135.87,42.9Z"/><path class="b" d="M178.24,48.69c-.24,42.97-1.69,87.15-2.17,139.05,4.1,1.45,13.04,4.34,13.04,4.34-13.28,5.31-28,11.11-40.07,14.97,5.55-8.69,10.38-15.69,10.38-15.69-.48-42.73-.48-94.15-1.21-138.57,0,0-6.52-2.9-15.69-6.52,12.31-3.38,32.59-8.93,48.04-12.55C184.03,42.41,178.24,48.69,178.24,48.69Z"/><path class="c" d="M271.67,43.38c-7.48,37.9-21.49,107.91-29.45,152.09,5.79,4.59,11.11,9.41,11.11,9.41-12.55,0-31.63-.48-47.32-1.21,7.48-6.52,14.24-11.35,14.24-11.35-7.73-42.01-18.59-97.53-27.04-141.23,0,0-7-3.14-13.52-6.28,15.45-3.38,31.63-6.52,48.04-9.9-6.76,8.69-12.07,14.24-12.07,14.24,4.35,31.38,10.14,74.36,15.93,113.22,5.79-39.35,12.79-86.67,18.11-123.36,0,0-6.52-5.31-12.79-11.35,17.38,1.69,36.21,4.35,50.21,6.76C278.91,39.52,271.67,43.38,271.67,43.38Z"/><path class="a" d="M394.54,42.9c.72,42.73.97,95.6,2.17,140.02,0,0,7,3.14,14.73,7.24-14.48,1.93-31.87,4.11-49.01,6.28,7.73-7,14-12.07,14-12.07-.24-19.07-.24-39.59-.24-60.84-5.55.24-15.21.97-24.38,1.45,0,23.9.24,47.8.48,69.53,0,0,5.79,5.07,12.07,11.35-12.79-.72-32.83-1.93-48.52-3.14,8.93-5.79,16.66-10.14,16.66-10.14.24-42.97,1.69-86.91,1.93-138.81-7-3.86-14.97-7.97-14.97-7.97,13.28-1.69,30.42-3.86,44.9-5.31-6.52,7-13.04,13.04-13.04,13.04,0,16.9.24,35.49.24,54.56,4.1-.48,13.76-1.69,24.62-2.66,0-21,0-42.73-.24-65.18-6.76-4.35-13.04-8.69-13.04-8.69,14.73-.24,33.31-.24,49.73,0C412.65,31.55,402.51,38.31,394.54,42.9Z"/><path class="b" d="M432.9,62.45c-.24,42.97-1.45,73.39-1.69,125.29,4.1,1.45,12.79,4.34,12.79,4.34-13.28,5.31-27.76,11.11-39.83,14.97,5.31-8.69,10.14-15.69,10.14-15.69-.24-42.73-.72-88.6-1.45-133.02a160.79,160.79,0,0,1-10.38-13.28c12.31,2.9,32.83,7.48,48.04,11.59C441.11,59.8,432.9,62.45,432.9,62.45Z"/><path class="c" d="M523.78,43.38c-7.48,37.9-21.49,107.91-29.45,152.09,5.79,4.59,11.11,9.41,11.11,9.41-12.55,0-31.63-.48-47.32-1.21,7.48-6.52,14.24-11.35,14.24-11.35-7.73-42.01-18.59-97.53-27.04-141.23,0,0-7-3.14-13.52-6.28,15.45-3.38,31.63-6.52,48.04-9.9-6.76,8.69-12.07,14.24-12.07,14.24,4.35,31.38,10.14,74.36,15.93,113.22,5.79-39.35,12.79-86.67,18.11-123.36,0,0-6.52-5.31-12.79-11.35,17.38,1.69,36.21,4.35,50.21,6.76C531.02,39.52,523.78,43.38,523.78,43.38Z"/><path class="b" d="M132.03,236.04c.72,42.73.97,95.6,2.17,140.02,0,0,7,3.14,14.73,7.24-14.48,1.93-31.87,4.11-49.01,6.28,7.73-7,14-12.07,14-12.07-.24-19.07-.24-39.59-.24-60.84-5.55.24-15.21.97-24.38,1.45,0,23.9.24,47.8.48,69.53,0,0,5.79,5.07,12.07,11.35-12.79-.72-32.83-1.93-48.52-3.14,8.93-5.79,16.66-10.14,16.66-10.14.24-42.97,1.69-86.91,1.93-138.81-7-3.86-14.97-7.97-14.97-7.97,13.28-1.69,30.42-3.86,44.9-5.31-6.52,7-13.04,13.04-13.04,13.04,0,16.9.24,35.49.24,54.56,4.1-.48,13.76-1.69,24.62-2.66,0-21,0-42.73-.24-65.18-6.76-4.35-13.04-8.69-13.04-8.69,14.73-.24,33.31-.24,49.73,0C150.13,224.69,139.99,231.45,132.03,236.04Z"/><path class="c" d="M182.59,393.2c-20.76-.48-39.11-30.42-39.83-77.49-.72-51.18,15.93-85.22,37.66-84.98,21.24.24,42.25,50.7,36.21,107.43C213.25,368.09,199.97,393.44,182.59,393.2Zm-4.34-143.89c-6.03.72-14.48,27.76-14.24,63.01.24,37.18,11.59,62.04,18.35,62.53,9.9.24,14.73-33.8,14-63.25C195.39,281.18,186.45,248.35,178.25,249.31Z"/><path class="b" d="M262.08,393.2c-20.76-.48-39.11-30.42-39.83-77.49-.72-51.18,15.93-85.22,37.66-84.98,21.24.24,42.25,50.7,36.21,107.43C292.74,368.09,279.46,393.44,262.08,393.2Zm-4.34-143.89c-6.03.72-14.48,27.76-14.24,63.01.24,37.18,11.59,62.04,18.35,62.53,9.9.24,14.73-33.8,14-63.25C274.88,281.18,265.94,248.35,257.74,249.31Z"/><path class="a" d="M352.38,403.34c-15.45-9.66-24.38-29.45-15.45-55.28,6.04-17.62,6.28-36.94-14-38.63.72,26.55,1.21,53.59,2.17,77.98,0,0,5.79,5.79,11.35,11.59-12.55-.72-32.35-1.93-48.28-3.38,8.93-5.79,16.42-10.14,16.42-10.14-.48-42.97,0-88.12-.72-140.02-7.24.72-14.97,1.93-14.97,1.93,10.38-14.73,35.97-26.07,60.11-14.97,27.52,12.8,28.73,54.32-6.76,71.22,7,2.41,14.24,7.97,15.69,21.48,2.17,19.55-10.86,40.32,3.38,51.18,0,0,6.76-1.45,14-3.38C362.76,390.06,352.38,403.34,352.38,403.34Zm-30.9-155.72c.24,14.48.72,29.93.97,46.11,16.42-2.9,25.35-14.97,24.62-26.07C346.58,255.83,337.65,247.14,321.48,247.62Z"/><path class="b" d="M420.46,393.92c6.28-7.97,11.59-14.73,11.59-14.73-1.69-10.62-3.62-21.48-5.55-32.83-6.03.97-20.04,3.62-31.38,6.03-2.66,12.8-4.83,25.11-6.76,35.25,6.52,6.04,12.79,13.04,12.79,13.04-14.24-1.93-29.45-3.86-43.21-6.04,7.97-4.59,14.48-7.97,14.48-7.97,7.24-46.35,17.62-111.53,24.14-152.81-4.83-3.38-14-10.14-14-10.14,19.07.72,43.7,1.69,57.94,2.41,0,0-6.76,5.31-11.59,9.17,7.97,57.21,13.28,97.53,20.04,138.57,0,0,7.24,2.9,14.48,6.52C451.36,384.75,435.67,389.57,420.46,393.92Zm-7.72-136.64c-3.62,20.04-8.93,48.76-14.24,76.53,4.1-.97,13.76-3.38,25.11-6.04C419.98,306.04,416.36,282.63,412.74,257.28Z"/><path class="a" d="M526.65,236.28s-11.83,34.04-28.73,81.11c.72,22.69,1.69,45.14,2.66,65.67,0,0,8.21,6.52,15.45,13.04-17.62-1.21-37.18-3.14-53.84-4.83,8.45-5.31,17.14-9.9,17.14-9.9v-58.9c-16.9-42.49-29.94-75.56-29.94-75.56s-6.28-3.14-15.45-7.73c12.79-2.9,33.07-7.73,46.11-10.62-5.55,6.76-10.14,12.07-10.14,12.07s8.21,25.83,18.11,56.97c10.38-38.63,18.11-66.87,18.11-66.87s-5.07-5.07-10.86-11.35c13.28,2.17,33.56,6.28,46.59,8.69C532.93,232.9,526.65,236.28,526.65,236.28Z"/><path class="b" d="M552.91,285.15l2.48,28.2,28.19,2.47-28.19,2.48-2.48,28.19-2.48-28.19-28.19-2.48,28.19-2.47Z"/><path class="b" d="M565.74,302.99l-10.76,12.83,10.76,12.84L552.91,317.9l-12.84,10.76,10.76-12.84-10.76-12.83,12.84,10.76Z"/><path class="b" d="M587.34,265.64l1.32,15,14.99,1.31-14.99,1.32-1.32,15-1.32-15-15-1.32,15-1.31Z"/><path class="b" d="M594.16,275.13l-5.72,6.82,5.72,6.83-6.82-5.72-6.83,5.72,5.73-6.83-5.73-6.82,6.83,5.72Z"/><circle class="b" cx="2.1" cy="2.1" r="2.1" transform="translate(527.85 342.57)"/><circle class="b" cx="2.1" cy="2.1" r="2.1" transform="translate(521.92 336.65)"/><circle class="b" cx="1.12" cy="1.12" r="1.12" transform="translate(521.92 344.53)"/><path class="b" d="M31.18,0l2.49,28.37,28.37,2.49-28.37,2.5L31.18,61.73,28.69,33.36.32,30.86l28.37-2.49Z"/><path class="b" d="M44.09,17.95,33.27,30.86,44.09,43.78,31.18,32.95,18.27,43.78,29.09,30.86,18.27,17.95,31.18,28.78Z"/><circle class="b" cx="2.12" cy="2.12" r="2.12" transform="translate(5.95 57.77)"/><circle class="b" cx="2.12" cy="2.12" r="2.12" transform="translate(0 51.81)"/><circle class="b" cx="1.13" cy="1.13" r="1.13" transform="translate(0 59.75)"/></svg>