<svg xmlns="http://www.w3.org/2000/svg" viewBox="0 0 594.558 799.802"><defs><style>.a{fill:#e81b7c;}.b{fill:#8f1553;}.c{fill:#b39dc8;}.d{fill:#9a89af;}.e{fill:#d77512;}.f{fill:#ef860f;}.g{fill:#04a9a4;}.h{fill:#118579;}.i{fill:#b1dee6;}.j{opacity:0.6;}.k{fill:#fff;}.l{fill:#f6faf8;}.m{fill:#e54360;}.n{fill:#bc2423;}.o{fill:#231f20;}</style></defs><g transform="translate(-0.013 0.002)"><g transform="translate(322.028 -0.002)"><path class="a" d="M464.912,63.231c-.065-.21-.113-.4-.178-.614-.55-2-.921-3.119-.921-3.119h0C456.216,35.091,435.851-.371,381.688,0c-82.48.566-77.179,79.684-77.179,79.684s12.769-2.812,33.943-4.089c-5.592,13.3-8.615,26.621-10.975,34.912-8.4,29.5-49.039,37.789-99.71,49.394s-18.394,63.182-18.394,63.182c-6.045-37.741,29.045-34.767,52.837-16.2s50.477,24.94,50.477,24.94,14.5-6.384,23.21-9.278c8.7-2.893,12.187,0,43.3,5.124s42.557-9.763,42.557-9.763C490.4,172.478,470.2,82.5,464.912,63.231Z" transform="translate(-199.242 0.002)"/><path class="b" d="M405.834,197.93c53.08-31.518,42.315-138.324,42.315-138.324C387.6,39.823,347.437,46.934,347.437,46.934c43.349,28.673,11.831,146.438-45.806,102.846-21.578-16.325-72.556-15.484-88.3.5-16.244,16.5-6.789,44.642-6.789,44.642-6.045-37.741,29.045-34.767,52.837-16.2s50.477,24.94,50.477,24.94,14.5-6.384,23.21-9.278c8.7-2.893,12.187,0,43.3,5.124a79.156,79.156,0,0,0,9.342.97c11.314-1.39,19.056-2.392,19.978-2.505Z" transform="translate(-196.428 28.162)"/></g><g transform="translate(229.912 137.969)"><path class="c" d="M506.776,212.095c-8.049-11.007-27.122-20.947-27.122-20.947,4.558-28.188-18.264-27.655-28.722-28.463-10.474-.808-13.69-4.558-21.206-20.139C422.211,126.98,430,85.36,430,85.36l-27.655,35.446c11.282,42.428-15.452,42.962-34.508,44.836s-56.7,39.244-75.223,55.084-76.258,64.442-81.349,65.509c-5.108,1.067-9.666-12.09-9.666-12.09-19.606-4.558-40-32.763-40-32.763-1.713,3.427-1.422,5.285-.905,6.271L153,239.233c-1.342,20.947,25.231,40,25.231,40-16.115-2.683-35.979-23.356-35.979-23.356,2.15,22.548,32.763,32.213,32.763,32.213,5.108.533,19.331,16.648,19.331,16.648-20.4,9.132-15.42,26.475-15.42,26.475,20.64-34.072,79.054-60.272,105.691-70.811a45.922,45.922,0,0,0,19.945-14.967c15.565-20.7,45.273-36.9,66.2-33.425,34.072,5.657,43.349,55.536,43.349,55.536C357.656,285.8,337.4,309.09,320.5,358.064c19.04,41.474,30.548,85.955,49.039,127.882,6.95,15.743,15.177,32.472,22.208,49.718,2.053-2.667,4.089-5.35,6.126-8.017,98.886-130.048,81.284-280.414,81.284-280.414C504.336,234.917,506.776,212.095,506.776,212.095Z" transform="translate(-142.25 -85.36)"/><path class="d" d="M366.121,190.571a56.9,56.9,0,0,0,6.966-4.089c-10.441-6.53-27.025-9.132-27.025-9.132,16.147,5.738,15.371,68.4,12.3,87.329-3.055,18.911-32.763,38.743-32.763,38.743l6.8,16.115,24.665-7.613C372.2,242.6,366.121,190.571,366.121,190.571Z" transform="translate(-29.25 -28.666)"/><path class="d" d="M358.06,149.323c-9.2-.824-17.6-9.423-17.6-9.423-1.115,7.985,17.084,17.65,17.084,17.65A40.723,40.723,0,0,0,358.06,149.323Z" transform="translate(-20.122 -51.746)"/><path class="d" d="M327.285,119.431a204.476,204.476,0,0,1,2.279-29.191L311.672,106.9l-8.5,10.894c2.069,7.774,2.845,14.143,2.635,19.363C311.445,133.412,320.06,127.286,327.285,119.431Z" transform="translate(-43.073 -82.352)"/><path class="d" d="M342.3,230.119s2.441-4.267.21-7.225c-4.493-5.948-4.768,6.53-2.231,14.159C340.282,237.053,339.523,231.929,342.3,230.119Z" transform="translate(-21.191 -1.556)"/></g><g transform="translate(486.647 244.907)"><path class="e" d="M408.882,171.319c-4.752-6.481-13.3-12.591-19.541-16.519-7.774.921-15.258,3.7-20.107,9.989,0,0-20.22-20.737-39.212-10.361-12.284,6.708-21.3,20.753-28.932,36.286,5.124,7.193,8.55,15.484,10.959,22.03,11.977-5.867,37.951-16.47,52.239-14.919a30.951,30.951,0,0,1,17.5,8.372C406.457,193.77,408.882,171.319,408.882,171.319Z" transform="translate(-301.09 -151.521)"/><path class="f" d="M311.386,211.009c14.11-11.524,38.323-25.505,58.381-19.9,0,0,24.649-6.659,23.582,7.322,13.916-12.235,15.533-27.106,15.533-27.106-4.752-6.481-13.3-12.591-19.541-16.519-7.774.921-15.258,3.7-20.107,9.989,0,0-20.22-20.737-39.212-10.361a49.652,49.652,0,0,0-14.4,12.526c-5.512,6.756-10.231,15.016-14.531,23.76C305.794,197.3,309.01,204.754,311.386,211.009Z" transform="translate(-301.09 -151.515)"/></g><g transform="translate(0.013 247.038)"><path class="g" d="M508.645,494.112c35.931-62.357,51.189-127.43,51.189-177.115a67.918,67.918,0,0,1-23.857,9.423c-5.188-14.272-28.544-38.921-64.863-54.486-12.591-5.4-19.719-11.88-24.309-18.264-35.785,29.789-50.962,72.734-78.181,168.048-41.943,146.906-97.043,221.774-185.2,225.588C96.76,651.055,69.639,551.119,79.11,490.168s100.244-12.187,172.04-40.634,59.61-123.276,59.61-123.276c-12.187,119.219-111.089,39.293-136.821,25.732-25.732-13.545-59.61,8.13-59.61,8.13,32.52-46.065-47.406-77.211-73.154-101.6-25.732-24.39-1.358-105.658-1.358-105.658C-44.166,265.307,27.453,367.926,49.305,423.8c2.344,5.98,4.348,11.54,6.061,16.664a126.54,126.54,0,0,1,3.6,67.788c-9.633,43.075-18.1,134.3,67.109,177.907C258.731,754.047,428.621,632.969,508.645,494.112Z" transform="translate(-0.013 -152.828)"/><path class="h" d="M455.211,231C512.8,366.948,253.318,791.132,49.76,600.65c10.878,14.224,25.651,27.089,45.628,37.321,132.667,67.917,302.557-53.16,382.581-192.034,35.931-62.357,51.189-127.43,51.189-177.115a67.919,67.919,0,0,1-23.857,9.423C500.856,266.042,483.044,246.226,455.211,231Z" transform="translate(30.646 -104.669)"/><g transform="translate(8.061)"><path class="i" d="M15,310.608c31.583,76.258,54.7,118.621,57.767,134.8,0,0,19.25-39.276,18.491-36.981-.776,2.311-4.623,44.675-4.623,44.675s20.8-19.25,73.17-11.557c52.385,7.71,147.036,10.474,147.844-115.308-12.187,119.219-111.089,39.292-136.821,25.732-25.732-13.545-59.61,8.13-59.61,8.13,32.52-46.065-47.406-77.211-73.154-101.6-25.732-24.39-1.358-105.658-1.358-105.658S-16.578,234.351,15,310.608Z" transform="translate(-5 -152.84)"/><path class="i" d="M368.58,298.525s-18.733-28.5-36.286-34.233S264.1,232.224,272.539,198.12c0,0,17.295,15.371,31.615,11.912,0,0-5.609,2.942-6.287,7,0,0,63.456,36.125,70.73,74.609,0,0,30.435-13.141,30.322-48.263C398.9,243.377,440.651,281.118,368.58,298.525Z" transform="translate(159.306 -124.933)"/></g><g class="j" transform="translate(8.076 39.357)"><path class="k" d="M161.162,333.5a670.209,670.209,0,0,1-47.212,93.261c1.309-.259,2.683-.485,4.105-.711a612.072,612.072,0,0,0,46.42-91.677C163.376,334.053,162.277,333.746,161.162,333.5Zm55.827,30.273a255.191,255.191,0,0,1-35.72,65.186c1.439.113,2.893.194,4.348.275a244.993,244.993,0,0,0,34.3-64.087C218.929,364.714,217.959,364.246,216.989,363.777Zm55.213,10.2a189.491,189.491,0,0,1-19.832,45.289c1.729-.776,3.427-1.616,5.108-2.505a188.662,188.662,0,0,0,17.941-43.883C274.352,373.3,273.285,373.652,272.2,373.976ZM190.595,349a365.07,365.07,0,0,1-47.1,75.934c1.39.065,2.8.162,4.235.275a360.891,360.891,0,0,0,45.919-74.334C192.615,350.248,191.6,349.618,190.595,349Zm22.9,79.927c1.778-.162,3.54-.356,5.318-.566a223.876,223.876,0,0,0,32.957-53.128c-1.164-.145-2.327-.339-3.507-.533A231.554,231.554,0,0,1,213.5,428.93Zm-90.61-89.786a95.393,95.393,0,0,0-9.552,4.72,222.661,222.661,0,0,0-28.027,61.113c3.475-6.982,6.239-12.446,5.932-11.54-.178.55-.55,3.443-1,7.484C98.271,378.809,109.294,358.6,122.887,339.144ZM93.859,283.963A291.518,291.518,0,0,0,56.91,390.672c.679,1.5,1.342,2.958,1.988,4.4A295.678,295.678,0,0,1,96.865,286.517C95.9,285.661,94.877,284.8,93.859,283.963ZM58.785,259.072a295.343,295.343,0,0,0-22.515,86.02c.663,1.487,1.309,2.942,1.956,4.4A295.032,295.032,0,0,1,61.742,261.06C60.74,260.382,59.754,259.735,58.785,259.072ZM16.777,299.884c.6,1.455,1.212,2.893,1.81,4.316a272.008,272.008,0,0,1,16.939-63.537,29.014,29.014,0,0,1-2.166-3.184A278.64,278.64,0,0,0,16.777,299.884ZM28.317,177.19A281.117,281.117,0,0,0,5.01,245.641c.048,3.346.242,6.724.517,10.1A282.016,282.016,0,0,1,27.04,188.035C27.4,184.366,27.816,180.73,28.317,177.19Z" transform="translate(-5.01 -177.19)"/><path class="k" d="M392.661,251.331c-.42,1.228-.889,2.392-1.39,3.524a169.533,169.533,0,0,1,7.467,19.234c.792-.679,1.536-1.341,2.2-2.02A159.747,159.747,0,0,0,392.661,251.331ZM383,268c-.727.84-1.439,1.632-2.182,2.376a33.221,33.221,0,0,1,5.754,11.185c.647-.291,1.245-.6,1.859-.889-.7-2.1-1.439-4.186-2.3-6.239A40.194,40.194,0,0,0,383,268Zm-31.066-13.06a101.551,101.551,0,0,0-12.753,5.043c1.293.937,2.554,1.972,3.8,3.039,3.087-1.39,6.239-2.651,9.472-3.734.7-.226.905-1.471.808-2.586C352.835,256.1,352.382,255.517,351.93,254.935Zm-37.143-34.476c-3.281-2.376-6.336-4.477-9.051-6.287a79.852,79.852,0,0,0-28.706,5.059c1.228,1.649,2.57,3.233,3.992,4.8A92.439,92.439,0,0,1,314.787,220.459Zm-8.809,23.129c1.616.954,3.2,1.843,4.768,2.7a74.245,74.245,0,0,1,26.346-7.516c-1.536-1.455-3.087-2.861-4.655-4.235A69.333,69.333,0,0,0,305.978,243.589Z" transform="translate(162.639 -154.401)"/></g></g><g transform="translate(430.617 74.981)"><path class="c" d="M271.09,49.267C272.335,72.8,279.285,137.55,318.076,153c38.468-11.88,62.034-66.948,66.22-99.742C332.93,42.948,290.243,46.584,271.09,49.267Z" transform="translate(-263.549 -46.389)"/><g transform="translate(31.437 61.55)"><path class="l" d="M289.28,91.338s9.455,6.578,5.56,13.836c0,0,14,1.859,22.1-5.738S327.215,85.6,327.215,85.6,324.208,93.035,289.28,91.338Z" transform="translate(-283.775 -83.774)"/><path class="m" d="M326.862,86.29s-8.146,21.739-34.912,17.343c0,0-3.1-.647-1.713,1.826,1.39,2.457,5.786,4.073,13.819,2.893s23.566-9.633,25.069-23.873Z" transform="translate(-283.407 -84.464)"/><path class="n" d="M286.061,91.873s27.51,11.573,45.531-7.4c0,0-14.418,8.534-30.726,3.8L296.5,90.353l-1.519-3.039C294.983,87.331,284.348,83.339,286.061,91.873Z" transform="translate(-285.874 -84.47)"/></g><g transform="translate(0 20.456)"><path class="o" d="M298.856,66.564a4.251,4.251,0,0,0-2.279-2.861,7.314,7.314,0,0,0-3.637-.42c-2.764.323-5.77.679-8.68.889a65.44,65.44,0,0,1-8.906.081,33.109,33.109,0,0,1-4.509-.582A9.353,9.353,0,0,1,266.53,61.8a.332.332,0,0,1-.016-.469.31.31,0,0,1,.323-.1l.081.016c2.618.679,5.576.194,8.421.048l8.68-.663c2.942-.145,5.8-.356,8.89-.226a8.377,8.377,0,0,1,4.8,1.6,4.885,4.885,0,0,1,1.778,4.574.325.325,0,0,1-.63.032Z" transform="translate(-266.425 -58.232)"/><path class="o" d="M304.285,65.421a4.956,4.956,0,0,1,2.279-4.817,10.153,10.153,0,0,1,5.2-1.487c3.313-.162,6.514-.016,9.746.081l9.6.5c1.584.081,3.184.162,4.752.178a15.35,15.35,0,0,0,4.59-.4l.065-.016a.323.323,0,0,1,.4.226.362.362,0,0,1-.113.356,10.973,10.973,0,0,1-4.736,1.94,42.992,42.992,0,0,1-4.93.679,79.293,79.293,0,0,1-9.795.1c-3.233-.162-6.481-.436-9.633-.743-2.861-.291-6.061.242-6.821,3.378l.016.048a.329.329,0,0,1-.388.242A.385.385,0,0,1,304.285,65.421Z" transform="translate(-243.131 -59.045)"/><circle class="o" cx="5.495" cy="5.495" r="5.495" transform="translate(65.841 1.527)"/><path class="o" d="M276.795,61.57a5.464,5.464,0,0,0-4.235,2.037c.388,2.618.84,5.334,1.342,8.114a5.489,5.489,0,1,0,2.893-10.15Z" transform="translate(-262.644 -57.489)"/></g><g transform="translate(8.122 5.876)"><path class="o" d="M301.42,61.881a3.349,3.349,0,0,1,.356-1.115l.226-.372q.242-.388.485-.727a13.817,13.817,0,0,1,1.018-1.293,28.134,28.134,0,0,1,2.279-2.327,25.074,25.074,0,0,1,5.447-3.507,27.84,27.84,0,0,1,12.591-2.505,39.846,39.846,0,0,1,12.349,2.635c1.907.824,3.8,1.681,5.657,2.586l5.285,3.168a1.5,1.5,0,0,1-1.422,2.635l-.129-.065-5.285-2.586c-1.794-.743-3.6-1.471-5.415-2.15-3.685-1.067-7.4-2.2-11.169-2.166a24.837,24.837,0,0,0-10.862,1.923,21.527,21.527,0,0,0-4.8,2.764,22.515,22.515,0,0,0-2.1,1.81,10.747,10.747,0,0,0-.937.986,5,5,0,0,0-.4.5l-.194.242a.485.485,0,0,0,.032-.436,1.5,1.5,0,0,1-3.006,0Z" transform="translate(-252.979 -50.025)"/><path class="o" d="M299.461,60.661a7.588,7.588,0,0,0-.533-.647,15.235,15.235,0,0,0-1.115-1.164,27.046,27.046,0,0,0-2.441-2.069,25.1,25.1,0,0,0-5.657-2.942A27.3,27.3,0,0,0,277.139,52.5l-3.119.5-2.57.743c.081,1.018.178,2.085.291,3.184a25.5,25.5,0,0,1,5.786-1.245A25.172,25.172,0,0,1,288.712,56.7a21.582,21.582,0,0,1,5.091,2.408,25.7,25.7,0,0,1,2.279,1.665c.372.291.7.614,1.034.937a4.133,4.133,0,0,1,.453.485l.21.242a.3.3,0,0,1-.016-.275,1.193,1.193,0,1,0,2.376-.21,2.8,2.8,0,0,0-.4-.921Z" transform="translate(-271.45 -48.627)"/></g></g><g transform="translate(58.743 383.299)"><g transform="translate(217.842 331.537)"><ellipse class="h" cx="9.229" cy="7.16" rx="9.229" ry="7.16" transform="translate(0 12.335) rotate(-39.897)"/><ellipse class="g" cx="9.229" cy="6.368" rx="9.229" ry="6.368" transform="translate(1.835 11.839) rotate(-39.897)"/></g><g transform="translate(29.552 342.984)"><ellipse class="h" cx="7.16" cy="9.229" rx="7.16" ry="9.229" transform="translate(0 11.254) rotate(-51.806)"/><ellipse class="g" cx="6.368" cy="9.229" rx="6.368" ry="9.229" transform="translate(1.847 11.694) rotate(-51.806)"/></g><g transform="translate(0 269.405)"><ellipse class="h" cx="5.124" cy="6.595" rx="5.124" ry="6.595" transform="matrix(1, -0.025, 0.025, 1, 0, 0.253)"/><ellipse class="g" cx="4.542" cy="6.595" rx="4.542" ry="6.595" transform="matrix(1, -0.025, 0.025, 1, 0.614, 1.467)"/></g><g transform="translate(9.957 268.79)"><ellipse class="h" cx="5.124" cy="6.595" rx="5.124" ry="6.595" transform="matrix(1, -0.025, 0.025, 1, 0, 0.253)"/><ellipse class="g" cx="4.542" cy="6.595" rx="4.542" ry="6.595" transform="matrix(1, -0.025, 0.025, 1, 0.614, 1.467)"/></g><g transform="translate(3.887 217.426)"><ellipse class="h" cx="6.595" cy="5.124" rx="6.595" ry="5.124" transform="translate(0 13.171) rotate(-86.928)"/><ellipse class="g" cx="6.595" cy="4.542" rx="6.595" ry="4.542" transform="translate(0.515 14.429) rotate(-86.928)"/></g><g transform="translate(338.812 106.3)"><ellipse class="h" cx="13.044" cy="10.118" rx="13.044" ry="10.118" transform="translate(0 27.254) rotate(-75.066)"/><ellipse class="g" cx="13.044" cy="8.987" rx="13.044" ry="8.987" transform="translate(1.707 25.205) rotate(-75.066)"/></g><g transform="translate(222.982 319.869)"><ellipse class="h" cx="9.229" cy="7.16" rx="9.229" ry="7.16" transform="translate(0 12.347) rotate(-39.897)"/><ellipse class="g" cx="9.229" cy="6.368" rx="9.229" ry="6.368" transform="translate(1.825 11.839) rotate(-39.897)"/></g><g transform="translate(229.311 332.282)"><ellipse class="h" cx="9.229" cy="7.16" rx="9.229" ry="7.16" transform="translate(0 12.335) rotate(-39.897)"/><ellipse class="g" cx="9.229" cy="6.368" rx="9.229" ry="6.368" transform="translate(1.835 11.839) rotate(-39.897)"/></g><g transform="translate(335.521 89.921)"><ellipse class="h" cx="13.044" cy="10.118" rx="13.044" ry="10.118" transform="translate(0 27.25) rotate(-75.066)"/><ellipse class="g" cx="13.044" cy="8.987" rx="13.044" ry="8.987" transform="translate(1.723 25.205) rotate(-75.066)"/></g><g transform="translate(353.856 98.477)"><ellipse class="h" cx="13.044" cy="10.118" rx="13.044" ry="10.118" transform="translate(0 27.266) rotate(-75.066)"/><ellipse class="g" cx="13.044" cy="8.987" rx="13.044" ry="8.987" transform="translate(1.727 25.205) rotate(-75.066)"/></g><g transform="translate(363.795 0)"><ellipse class="h" cx="11.185" cy="8.68" rx="11.185" ry="8.68" transform="translate(0 21.818) rotate(-65.329)"/><ellipse class="g" cx="11.185" cy="7.71" rx="11.185" ry="7.71" transform="translate(1.756 20.327) rotate(-65.329)"/></g></g></g></svg>