<svg xmlns="http://www.w3.org/2000/svg" viewBox="0 0 721.36 707.037"><defs><style>.a{fill:#90c7eb;fill-rule:evenodd;}.b{fill:#da82b2;}.c{fill:#f6e0ec;}.d{fill:#a867a4;}.e{fill:#0face1;}.f{fill:#ffe600;}.g{fill:#20a753;}.h{fill:#f5951d;}.i{fill:#e52022;}.j{fill:#e81463;}.k{fill:#863186;}.l{fill:#e37dae;}.m{fill:#cf4a91;}.n{fill:#f2bccb;}.o{fill:#fff;}.p{fill:#5e2e85;}.q{fill:#231f20;}</style></defs><g transform="translate(-1359 -85.577)"><g transform="translate(1358.998 136)"><path class="a" d="M131.49,70.87C98.23,124.35,46.06,231.96,18.34,292.29s-30.98,73.37,40,128.2S274.56,571.93,355.32,621.55s97.07,52.22,144.46-29.02S625.64,346.19,667.82,258.75s48.04-97.22-37.07-124.29S369.54,63.04,274.32,40.54,164.76,17.39,131.49,70.87"/><path class="b" d="M416.59,630.36c-16.1,0-34.75-8.32-60.93-20.94C287.12,576.39,163.02,511.21,97.84,475c-69.46-38.59-81.5-49.44-89.23-58.74-8.65-10.42-11.09-19.1-2.66-42.94,9.04-25.58,30.32-67.4,65.06-127.85,36.37-63.28,90.67-152.54,123.96-198.96C227.36,1.34,239.06-2.04,259.9.7c17.97,2.37,44.19,8.18,128.51,47.48,78.19,36.44,211.97,104.4,280.68,142.56,29.87,16.6,48.26,27.75,51.66,42.63,3.61,15.77-8.84,34.35-35.06,71.55-48.06,68.17-144.32,201.48-198,268.97-26.88,33.79-42.83,50.67-60.81,55.22A41.482,41.482,0,0,1,416.59,630.36ZM74.5,247.47C39.89,307.72,18.7,349.32,9.75,374.66c-8.47,23.98-4.91,30.74,1.96,39.02,7.46,8.99,19.24,19.54,88.09,57.79,65.12,36.19,189.13,101.32,257.6,134.31,31.11,14.99,51.25,23.78,68.49,19.42,16.85-4.27,32.34-20.75,58.64-53.82,53.63-67.42,149.83-200.64,197.86-268.78,24.83-35.23,37.64-54.26,34.43-68.33-2.8-12.23-16.94-21.81-49.69-40.01C598.5,156.13,464.84,88.25,386.72,51.83,302.91,12.77,277.05,7.02,259.38,4.7,241.19,2.31,231,3.19,198.24,48.86,165.03,95.16,110.82,184.27,74.5,247.47Z"/></g><g transform="translate(1379.166 85.577)"><g transform="translate(72.788 112.016)"><path class="c" d="M56.929,86.28,85.6,143.21S50.126,152.648,56.929,86.28Z" transform="translate(-56.062 -86.28)"/><path class="d" d="M72.075,130.634a11.546,11.546,0,0,1-3.622,6.388c-7.011-5.362-13.269-17.2-12.269-42.662C61.819,101.851,74.568,120.248,72.075,130.634Z" transform="translate(-56.057 -83.87)"/></g><g transform="translate(55.868)"><path class="e" d="M97.142,117.575A85.594,85.594,0,0,1,68.8,106.942l.4,1.662.091.351L63.4,84.56A132,132,0,0,0,87.977,95.842Z" transform="translate(-36.954 25.223)"/><path class="f" d="M59.54,68.5l.1.428h0L54.71,48.48a114.854,114.854,0,0,0,13.944,6.115l9.724,23.084-.221-.532A96.245,96.245,0,0,1,59.54,68.5Z" transform="translate(-39.546 14.461)"/><path class="g" d="M58.79,65.42l.13.558a93.838,93.838,0,0,0,18.955,8.335l-.156-.377L88.391,99.253A133.2,133.2,0,0,1,64.139,87.582L58.79,65.42Z" transform="translate(-38.329 19.514)"/><path class="h" d="M69.013,57.894a119.365,119.365,0,0,1-13.541-6.232L50.11,29.41A89.28,89.28,0,0,0,58.7,33.435Z" transform="translate(-40.918 8.773)"/><path class="i" d="M49.93,14.759,58.914,36.09a90.416,90.416,0,0,1-8.179-4.064l.013.065L46.1,12.76l.052.221C47.4,13.591,48.658,14.188,49.93,14.759Z" transform="translate(-42.114 3.806)"/><path class="j" d="M49.794,16.047c-1.091-.519-2.207-1.026-3.272-1.584L43.03,0Z" transform="translate(-43.03)"/><path class="k" d="M96.331,113.285l.351.818h0Zm.338.818a84.477,84.477,0,0,1-28.51-9.776l8.114,33.691c20.072,8.309,28.03-5.79,28.03-5.79ZM67.951,103.431l-.091-.351m.013,0,.078.351" transform="translate(-35.624 30.747)"/></g><g transform="translate(-0.01 82.039)"><path class="l" d="M372.391,313.915c-.169,1.3-.221,2.038-.221,2.038l9.322,17.008,3.934-13.866c35.833-20.617,52.035,10.308,35.833,65.291-.545,1.844-1.026,3.648-1.48,5.44l-.156.623c-.13.506-.221,1-.338,1.493-.247,1.065-.493,2.116-.7,3.155-.078.4-.156.8-.234,1.194-.091.493-.182.974-.26,1.454-.143.831-.286,1.649-.415,2.454-.091.571-.169,1.143-.247,1.714-.052.4-.117.818-.169,1.22-.091.688-.156,1.363-.221,2.038-.065.61-.13,1.233-.169,1.831-.039.428-.091.87-.117,1.285a1.734,1.734,0,0,1-.013.26c-.039.506-.039.987-.065,1.493-.026.545-.052,1.1-.078,1.636s-.026,1.039-.026,1.558c0,.467.013.935.013,1.389v.26c0,.415,0,.857.013,1.272.013.649.052,1.272.091,1.909.026.48.052.961.091,1.441.026.273.026.545.052.8a.486.486,0,0,0,.013.143c.078.857.195,1.688.3,2.519.039.338.078.688.13,1.026.039.26.065.519.117.766a1.38,1.38,0,0,0,.052.247c.182,1.142.389,2.259.636,3.363.013.052.026.091.039.143a1.569,1.569,0,0,0,.065.234c.065.286.143.545.208.831.234.974.493,1.934.779,2.869.052.156.091.312.13.467.065.208.143.4.208.6.3.935.623,1.857.974,2.752.065.182.13.363.195.532.078.208.169.4.26.61.338.818.714,1.636,1.091,2.428.117.247.234.493.351.727.078.156.156.325.234.48.4.792.844,1.545,1.285,2.311.091.156.169.3.26.454.844,1.4,1.753,2.752,2.713,4.051.156.208.325.415.493.636.662.857,1.35,1.675,2.064,2.48.182.208.364.4.545.61.831.909,1.688,1.779,2.584,2.623a2,2,0,0,0,.169.156c1.013.948,2.077,1.857,3.181,2.726h0c7.907,6.245,17.955,10.542,29.64,12.9h0c1.74.351,3.531.649,5.336.922l1.324.195c1.831.247,3.687.467,5.583.636,1.272.1,2.493.169,3.7.195.286.013.584.013.87.013,1.168.013,2.311,0,3.427-.052l.48-.039c.974-.052,1.908-.143,2.843-.247.3-.039.6-.065.883-.1.987-.13,1.96-.286,2.9-.48.3-.052.571-.13.87-.195.688-.156,1.363-.312,2.038-.493.338-.091.688-.182,1.026-.286.792-.234,1.571-.493,2.324-.766.4-.143.792-.3,1.181-.454.428-.169.857-.35,1.272-.532.688-.3,1.363-.61,2.012-.948.247-.13.506-.247.753-.376.013,0,.026-.013.039-.013.078-.039.156-.078.221-.117.48-.26.935-.519,1.389-.792.156-.091.3-.182.454-.273.091-.052.182-.117.273-.169.623-.376,1.22-.779,1.818-1.181.078-.052.156-.117.247-.169a43.8,43.8,0,0,0,8.348-7.738c.026-.039.065-.065.091-.1.454-.558.9-1.1,1.324-1.675.013-.026.026-.039.039-.065a55.386,55.386,0,0,0,5.427-8.841c.013-.026.026-.039.026-.065.286-.571.545-1.13.8-1.7L524.9,444a67.634,67.634,0,0,0,2.986-7.842c.026-.065.039-.13.065-.195.13-.416.247-.8.351-1.194.026-.091.052-.182.078-.26.1-.377.208-.74.3-1.078a.956.956,0,0,1,.052-.182c.286-1.1.519-2.077.675-2.869a.669.669,0,0,0,.026-.143c.039-.208.078-.389.117-.584.013-.091.039-.182.052-.26.026-.156.052-.286.078-.415a1.523,1.523,0,0,1,.052-.26c.013-.091.026-.169.039-.247s.026-.156.039-.221c0-.039.013-.078.013-.1a.587.587,0,0,0,.013-.1c-.571,1.22-1.168,2.389-1.779,3.544-.169.325-.338.636-.506.961-.493.909-1,1.8-1.506,2.674-.13.234-.273.467-.4.7-.636,1.052-1.272,2.077-1.934,3.064-.156.234-.325.467-.48.7q-.779,1.168-1.6,2.259c-.195.26-.389.532-.584.792-.675.9-1.363,1.779-2.064,2.61l-.26.3c-.623.74-1.246,1.454-1.883,2.142-.234.247-.454.493-.688.74-.558.584-1.117,1.156-1.688,1.7-.182.182-.364.363-.545.532q-1.052.993-2.142,1.908c-.247.208-.506.415-.753.623-.506.415-1.026.818-1.532,1.194-.286.208-.558.428-.844.623-.7.506-1.415.987-2.116,1.441-.26.169-.519.312-.792.467-.493.3-.987.584-1.48.87-.338.195-.688.376-1.039.545-.441.234-.883.441-1.337.649s-.948.428-1.415.636q-.779.331-1.558.623c-.4.143-.8.273-1.207.4-.351.117-.688.221-1.039.325-.428.117-.844.247-1.272.351-.286.065-.571.13-.857.182q-1.207.273-2.415.428c-.26.039-.506.065-.753.1-.48.052-.961.091-1.428.13-.195.013-.4.013-.6.026a29.349,29.349,0,0,1-3.025-.039.982.982,0,0,1-.195-.013c-.519-.039-1.026-.1-1.545-.169-.156-.026-.312-.039-.467-.065a25.7,25.7,0,0,1-4.726-1.181c-.1-.039-.208-.065-.3-.1-.519-.182-1.026-.389-1.532-.61l-.078-.039a25.656,25.656,0,0,1-3.129-1.636c-6.764-4.129-12.243-11.5-15.229-22.045a32.461,32.461,0,0,1-1.259-8.374,25.878,25.878,0,0,1,.1-2.674v-.013c1.649-18.475,22.564-28.835,37.754-48.829.052-.078.1-.143.156-.221a2.63,2.63,0,0,0,.169-.234c.156-.208.3-.415.454-.61.467-.636.935-1.272,1.389-1.934.169-.234.325-.48.493-.727.156-.221.312-.454.454-.688.117-.169.234-.338.351-.519.26-.4.519-.818.792-1.233.208-.338.416-.688.623-1.026.351-.584.7-1.155,1.039-1.753l.312-.584c.221-.4.441-.8.662-1.22.4-.753.792-1.506,1.168-2.285.065-.143.143-.273.221-.415l.156-.312c.1-.221.195-.454.3-.675.35-.766.688-1.545,1.026-2.337.208-.493.415-.987.623-1.493.078-.182.156-.363.234-.558.234-.623.454-1.272.688-1.908.195-.532.389-1.065.558-1.623.13-.415.26-.818.389-1.246s.247-.844.363-1.272a.4.4,0,0,0,.026-.1c.156-.545.325-1.078.467-1.649.182-.714.35-1.467.519-2.207.1-.467.221-.935.325-1.415.065-.3.13-.584.195-.883.3-1.532.571-3.116.792-4.739,8.66-63.512-52.178-93.568-94.749-79.377-1.142.376-2.246.779-3.337,1.207-.091.039-.169.065-.26.1-.351.143-.688.286-1.039.428-.623.26-1.259.506-1.87.779-.169.078-.325.156-.48.221-.376.169-.74.351-1.117.532-.467.221-.935.441-1.389.675-.234.117-.454.247-.688.364-.351.182-.7.376-1.052.571s-.727.389-1.091.6c-.3.169-.584.351-.87.519-.325.195-.636.376-.948.571-.286.169-.571.351-.844.519-.351.234-.7.467-1.039.688-.286.182-.571.376-.844.558-.208.143-.428.3-.636.441-.364.26-.714.519-1.065.779-.13.1-.273.195-.4.3s-.3.221-.441.325-.3.234-.454.363c-.338.273-.662.545-1,.818s-.662.532-.974.8c-.091.078-.169.156-.26.234-.312.273-.61.545-.922.818-.351.312-.7.636-1.039.961-.091.091-.182.169-.273.26-.247.234-.467.467-.7.7-.364.364-.714.714-1.065,1.078-.273.286-.545.584-.818.87-.338.364-.675.74-1,1.1-.156.169-.312.338-.454.519l-.312.389c-.312.364-.61.74-.909,1.1-.182.234-.376.454-.545.688-.091.117-.182.234-.273.364-.247.325-.493.649-.74.987l-.623.857-.234.312c-.208.286-.389.571-.584.857s-.4.584-.584.883c-.247.389-.493.779-.74,1.155-.182.3-.364.584-.545.883-.13.221-.273.441-.4.662l-.195.35c-.026.039-.052.091-.078.13-.169.286-.338.584-.493.87s-.3.545-.441.818c-.078.156-.156.3-.234.454l-.389.74c-.169.325-.325.649-.48.961-.078.156-.156.3-.221.454-.091.182-.182.376-.273.558-.182.389-.351.766-.519,1.142-.065.13-.13.273-.182.4s-.117.273-.169.4q-.253.565-.467,1.129c-.1.26-.221.519-.312.779-.143.376-.286.74-.415,1.1-.091.247-.195.506-.286.753a.013.013,0,0,1-.013.013c-.13.351-.247.7-.364,1.052-.078.247-.169.493-.247.727-.026.078-.052.143-.078.221a.729.729,0,0,1-.052.156c-.078.234-.143.454-.221.675s-.143.454-.208.675c-.026.1-.065.208-.091.312-.052.169-.1.338-.143.506-.013.052-.039.117-.052.169l-.195.662c-.039.13-.065.26-.1.389-.052.208-.1.4-.156.6-.091.364-.182.714-.273,1.065-.052.195-.091.389-.143.584-.026.117-.065.247-.091.351-.052.208-.091.4-.13.61-.039.182-.078.364-.117.532-.013.065-.026.143-.039.208-.052.234-.091.454-.13.675-.026.156-.065.325-.091.48,0,.026-.013.052-.013.078-.052.247-.091.48-.13.727-.026.156-.052.325-.078.467-.039.221-.065.428-.1.623a9.087,9.087,0,0,0-.247,1.207ZM4.08,120.068c.091.195.169.389.26.571.325.675.662,1.337,1.026,2,12.71,23.927,49.335,43.051,118.313,28.77-.221-.013-.428-.013-.649-.026,1.934-.4,3.882-.818,5.868-1.285,0,0,30.224-5.57,35.365,53.9s11.49,106.94,21.487,112.094a8.038,8.038,0,0,0,1.039.441c.052.013.1.039.156.052s.143.039.208.065l.273.078c.156.039.312.091.48.117.1.026.208.039.312.065a2.635,2.635,0,0,0,.338.052c.1.013.195.039.3.052a.581.581,0,0,1,.143.013h.078l.48.039h.039a1.769,1.769,0,0,1,.26.026h.428c.091,0,.182.013.286.013.052,0,.1-.013.156-.013h.065c.143,0,.273-.013.415-.013l.364-.039.48-.039c.091-.013.182-.013.273-.026l.273-.039h.013c.143-.026.286-.039.428-.065a2.608,2.608,0,0,0,.312-.052c.221-.039.441-.091.662-.143.1-.026.221-.039.325-.065a1.081,1.081,0,0,0,.195-.052h.013c.039-.013.065-.013.1-.026.441-.1.883-.234,1.324-.363.026-.013.052-.013.065-.026s.026-.013.039-.013a2.919,2.919,0,0,0,.312-.1c.325-.1.636-.208.961-.325a1.141,1.141,0,0,1,.195-.065c.1-.039.208-.078.3-.117.117-.039.234-.091.351-.13.169-.065.351-.13.519-.208.117-.052.247-.091.364-.143s.221-.091.338-.143c.143-.052.273-.117.415-.182.1-.052.221-.091.325-.143s.234-.1.364-.156c.325-.143.649-.3.987-.454.078-.039.169-.078.247-.117a1.691,1.691,0,0,1,.221-.1l.389-.195c.117-.052.234-.117.351-.182.091-.039.182-.091.26-.13s.117-.065.182-.091c.143-.078.273-.143.415-.221.1-.052.221-.117.325-.169a2.226,2.226,0,0,0,.3-.169l1.129-.623c.078-.052.156-.091.247-.143h0c.48-.273.948-.558,1.415-.831.039-.026.078-.039.117-.065h0c.1-.065.195-.117.3-.182.312-.195.623-.39.922-.571.065-.039.117-.078.182-.117.091-.065.195-.117.286-.182.026-.013.039-.026.065-.039.286-.182.571-.376.857-.558h.013c.182-.13.364-.247.545-.364a1.083,1.083,0,0,1,.156-.1c3.246-2.181,5.4-3.947,5.4-3.947,1.766-.584,47.206-23.252,29.977-90.1-10.127-39.286-28.277-60.89-54.087-71h0a101.408,101.408,0,0,0-22.629-5.8c-.195-.026-.389-.052-.584-.091-1.194-.169-2.389-.325-3.6-.454-.273-.026-.545-.052-.8-.091q-1.792-.195-3.622-.351l-.61-.039c-3.648-.286-7.4-.428-11.243-.48-.649-.013-1.3-.013-1.96-.026-.9,0-1.792.013-2.687.026l-2.519.039-2.493.078-2.908.117c-.753.039-1.506.065-2.272.117-1.142.065-2.3.143-3.466.221-.623.039-1.246.078-1.883.13-1.8.143-3.622.286-5.466.467-14.2,1.22-25.875.493-35.5-1.636a41.627,41.627,0,0,1-7.154-2.636c-.013,0-.026-.013-.039-.013-.571-.286-1.13-.571-1.662-.87C57.478,120.626,66.683,94,59.685,81.132a43.3,43.3,0,0,0-5.648-8.114h0a34.411,34.411,0,0,0-3.077-3.077c-.091-.091-.195-.169-.286-.26-.286-.247-.584-.493-.883-.727-.13-.1-.26-.208-.4-.312-.286-.221-.584-.441-.87-.662-.143-.1-.286-.195-.428-.3-.3-.208-.6-.415-.909-.61-.117-.078-.247-.143-.364-.221a25.5,25.5,0,0,0-3.168-1.675c-.195-.078-.377-.169-.571-.247-.013,0-.013-.013-.026-.013h0c-.273-.117-.545-.221-.831-.312-.221-.078-.441-.156-.649-.234-.273-.091-.558-.182-.844-.26-.234-.065-.467-.13-.714-.195-.273-.078-.545-.143-.831-.208l-.792-.156c-.26-.052-.519-.1-.779-.143-.156-.026-.312-.039-.467-.052L36.8,63.32l-.7-.078c-.234-.013-.467-.013-.7-.026-.13,0-.273-.013-.4-.013a.741.741,0,0,1-.169-.013h-.389c-.247,0-.506.013-.753.026-.286.013-.584.026-.87.052-.052,0-.117.013-.169.013-.221.013-.441.039-.649.065-.325.039-.649.091-.974.143-.247.039-.493.078-.74.13-.364.065-.74.156-1.1.247-.208.052-.415.091-.623.156-.078.026-.169.052-.247.078a1.141,1.141,0,0,0-.195.065c-.428.13-.857.247-1.285.4-.156.052-.312.117-.467.182-.052.013-.091.039-.143.052-.156.065-.312.117-.467.182-.234.091-.467.182-.714.286-.221.091-.454.208-.675.312-.377.169-.753.364-1.142.558-.234.117-.48.247-.714.377-.325.182-.649.364-.974.558-.117.078-.247.143-.364.221-.169.1-.325.208-.493.312-.351.221-.7.467-1.065.7-.091.065-.182.13-.273.182l-.506.351c-.312.221-.636.467-.948.714-.117.091-.234.182-.364.273-.182.143-.364.273-.545.415l-.234.195c-.013.013-.026.026-.039.026-.169.13-.325.286-.493.415a.283.283,0,0,0-.065.052c-.143.117-.273.234-.415.351-.208.182-.415.351-.623.532s-.415.389-.623.584l-.026.026c-.169.156-.338.3-.506.467l-.026.026c-.234.221-.467.454-.714.688l-.662.662-.428.428c-.117.13-.234.247-.364.377s-.247.273-.377.415a.784.784,0,0,1-.1.1.84.84,0,0,0-.1.117h0c-.182.195-.364.389-.545.6-.1.117-.208.221-.312.338-.26.3-.519.61-.779.909-.169.195-.338.389-.506.6-.026.026-.052.065-.078.091-.091.1-.169.208-.26.312-.052.065-.117.13-.169.195-.6.727-1.181,1.48-1.779,2.259A32.838,32.838,0,0,0,1.613,91.077v-.013c-.013.026-.013.052-.026.078A40.66,40.66,0,0,0,4.08,120.068Z" transform="translate(0.01 -63.19)"/><path class="m" d="M137.953,143.884c15.709-1.558,31.263.052,46.037,5.8C212.734,160.865,231.3,184.468,238,214.3c7.673,34.21,4.323,74.483-29.8,92.711-.519.286-.389,2.025.195,1.727,1.207-.61,2.376-1.272,3.531-1.947,1.818-1.324,2.934-2.246,2.934-2.246a18.1,18.1,0,0,0,2.038-1.039c11.8-8.7,19.617-21.318,23.239-35.963,4.167-16.826,2.83-34.7-.61-51.529-3.35-16.345-9.607-32.2-20.786-44.791-19.656-22.149-51.438-33.535-80.727-29.406C137.355,141.91,137.381,143.936,137.953,143.884ZM4.19,82.76c3.414,10.958,7.491,21.8,14.658,30.86,8.244,10.438,19.838,17.54,31.964,22.642a166.754,166.754,0,0,0,42.934,11.386c14,1.818,29.38,3,42.428-3.389.558-.273.415-2.376-.182-2.09-13.191,6.076-28.147,5.089-42.194,3.259a166.6,166.6,0,0,1-42.714-11.243c-12-5.011-23.616-12-31.808-22.292-7.011-8.8-11.113-19.306-14.5-29.964C4.579,82.2,4.372,82.475,4.19,82.76Zm140.488,53.554c-18.617,6.388-40.39,5.466-59.89-.623-.454-.143-.909-.286-1.35-.428a104.175,104.175,0,0,1-21.162-9.529C41.087,113.049,25.456,87.6,32.051,63.39c-.273.013-.558.026-.831.052-5.1,20.565,4.167,43.259,20.344,57.06,11.866,10.114,26.784,16.2,41.883,19.526,16.969,3.726,34.885,4.388,51.425-1.519C145.483,138.288,145.392,136.081,144.678,136.315ZM459.655,441.646c-.519-1.272-.987-2.6-1.415-3.973a36.809,36.809,0,0,0,2.908,14.878,39.1,39.1,0,0,0,16.969,19.267c1.649.1,3.246.13,4.791.091a39.539,39.539,0,0,1-17.449-14.515A35.127,35.127,0,0,1,459.655,441.646ZM372.5,318.724v.052l1,1.818c.221-1.026.4-2.051.649-3.064,5.764-11.711,16.462-19.669,28.316-24.849,12.814-5.609,27.913-10.334,42.039-9.114,23.668,2.051,46.673,25.213,48.842,48.855,2.558,27.913-21.045,49-35.976,69.562C445.582,418.238,436.792,438.3,443.5,458.42A45.077,45.077,0,0,0,445.828,464c.74.351,1.493.675,2.246,1-6.907-12.2-7.218-26.758-2.012-40.1,9.374-24.005,31.094-40.208,42.1-63.279,8.945-18.734,8.114-38.429-4.1-55.476-6.388-8.919-14.943-16.683-25.031-21.136-10.841-4.791-22.447-4.622-33.846-2.012-18.942,4.336-39.728,12.606-49.828,29.952,3.7-12.658,9.841-24.447,19.552-33.885,27.874-27.108,71.068-16.8,92.191,13.255,14.865,21.149,18.124,45.6,15.878,70.134.623-1.324,1.207-2.674,1.766-4.077a134.366,134.366,0,0,0-.234-19.124c-3.272-37.91-28.017-77.4-69.744-78.481-19.02-.493-36.04,9.452-47.3,24.421-7.257,9.659-11.762,20.747-14.437,32.353C372.878,317.932,372.67,318.322,372.5,318.724Zm52.931,101.111c-.441.364-.208,2.025.428,1.506,12.606-10.451,25.394-20.928,35.313-34.08a87.424,87.424,0,0,0,17.085-41.935c1.519-11.84.857-25.615-7.024-35.287-9.452-11.607-25.563-11.633-39.221-10.971-.688.039-.7,2.077-.052,2.051,13.152-.325,28.77-.61,38.183,10.256,9.555,11.035,8.608,27.744,5.725,41.091C469.587,381.678,447.438,401.542,425.432,419.835Z" transform="translate(1.263 -63.13)"/><path class="m" d="M374.105,309.14l7.193,13.126,3.934-13.866c35.833-20.617,52.035,10.308,35.833,65.291-10.373,35.223-3.012,59.552,15.618,73.535-15.307-34.457,38.676-69.562,37.832-124.96-.974-64.239-58.254-46.829-66.589-43.142C387.465,288.2,377.247,298.909,374.105,309.14ZM168.444,144.011c-6.258-1.766-16.073-1.558-27.589-2.168,9.023,4.635,20.227,17.319,23.252,51.373,3.843,43.181,8.322,80.013,14.307,98.916l13.217-2.61c7.244,21.4,47.349-3.674,40.117-59.721S186.334,149.061,168.444,144.011ZM.64,99.09c5.3,28.5,47.478,57.125,128.063,40.312C62.153,148.8,24.295,131.08.64,99.09Z" transform="translate(0.204 -52.482)"/></g><g transform="translate(19.581 389.421)"><path class="n" d="M156.347,359.554s-22.837,44.116-59.6,49.153c0,0-28.225-16.255-45.843-80.494,0,0-11.814,3.479-16.462,14.32A28.357,28.357,0,0,1,18.572,325.5l3.09-8.906H15.08v-3.869s10.841-8.517,21.292-12.775c0,0,9.516,10.945,24.992,2.324,0,0,33.067,43.35,39.26,57.28,0,0-14.71-45.271-18.578-53.788C82.033,305.766,155.97,275.179,156.347,359.554Z" transform="translate(-15.08 -299.95)"/><path class="c" d="M21.662,316.6H15.08v-3.869s10.841-8.517,21.292-12.775c0,0,9.516,10.945,24.992,2.324,0,0,33.067,43.35,39.26,57.28,0,0-14.71-45.271-18.578-53.788A78.423,78.423,0,0,1,94.3,302.167c17.916,27.264,81.039,74.08,1.727,94.84,0,0-14.268-12.515-23.421-29.666C63.065,349.464,58.456,326.912,49.77,326c-2.778-.3-13.866.078-21.824,12.723a28.966,28.966,0,0,1-9.374-13.2Z" transform="translate(-15.08 -299.947)"/><path class="d" d="M45.46,329.8a25.654,25.654,0,0,0-11.022,11.853,28.357,28.357,0,0,1-15.865-17.034l3.09-8.906H15.08v-3.869A118.558,118.558,0,0,1,28.6,302.89C31.867,315.029,42.435,326.662,45.46,329.8Z" transform="translate(-15.08 -299.073)"/></g><g transform="translate(241.549 370.635)"><path class="c" d="M186.063,365.338s36.547,32.86,43.869,40.052,9.27,16.54,3.739,24.654c-18.955,27.8-40.052,44.674-44.168,52.373s-3.3,16.943-3.453,18.488a9.986,9.986,0,0,0,3.726,2.194l4.959-9.283.428,9.283s11.762,1.467,21.694-1.986c0,0,1.61-21.941,10.451-32.094s40.39-41.273,39.533-46.232-10.789-13.814-10.153-19.643a26.56,26.56,0,0,1,13.165-20.513s33.028-36.7,5.4-62.175-64.343-34.976-64.343-34.976Z" transform="translate(-186.05 -285.48)"/><path class="d" d="M186.06,455.173c.13-1.4-.506-9.218,2.48-16.423,11.542,2.519,22.928,1.87,31.146.7a94.855,94.855,0,0,0-2.817,15.917c-9.932,3.453-21.694,1.986-21.694,1.986l-.428-9.283-4.959,9.283A9.861,9.861,0,0,1,186.06,455.173Z" transform="translate(-186.047 -239.761)"/><path class="n" d="M255.186,416.716c-8.634-16.774-31.237-60.9-49.906-70.211l36.612-8.595,22.915,11.139,2.389,14.1c-1.8,2.415-3.064,3.817-3.064,3.817a26.506,26.506,0,0,0-13.165,20.513c-.649,5.829,9.283,14.684,10.153,19.643C261.366,408.55,258.964,412.12,255.186,416.716Z" transform="translate(-180.314 -269.841)"/></g><g transform="translate(78.645 198.054)"><path class="c" d="M89.482,190.642s16.917,7.154,8.1,30.094S54.4,302.489,61.543,331.9s46.583,78.884,72.405,89.647,131.958-8.608,170.686-30.834,82.467-40.883,81.753-50.919-19.357-79.6-75.3-75.3S201.9,276.679,180.115,267.357c0,0-9.387-83.778-28.822-114.807Z" transform="translate(-60.573 -152.55)"/><path class="n" d="M90.017,216.184c5.894-15.346.286-23.616-4.077-27.42L143,167.81c-.831,1.1,2.194,32.094-56.229,56.034C88.056,221,89.16,218.417,90.017,216.184Z" transform="translate(-53.007 -147.998)"/><path class="n" d="M62.709,270.99c4.349,21.72,17.475,60.072,56.748,77.677,56.462,25.291,142.279-1.35,167.128-9.036,20.825-6.439,79.39-31.587,99.137-39.3a33.808,33.808,0,0,1,.662,4.129c.714,10.036-43.025,28.692-81.753,50.919s-144.863,41.6-170.686,30.834-65.265-60.241-72.405-89.647C59.814,289.452,60.541,280.61,62.709,270.99Z" transform="translate(-60.572 -117.221)"/></g><g transform="translate(285.427 334.806)"><path class="c" d="M223.343,323.469s-19.89,50.893,35.21,83.233,80.779,18.254,94.45,49.737,7.452,39.351,7.452,39.351S346.5,498.231,344.434,506.1s-4.142,24.356-4.142,24.356,2.687.532,4.635,1.052a62.232,62.232,0,0,0,2.168-6.725s5.232,4.7,5.712,8.322c7.089.779,15.281.428,20.487-3.765,0,0-3.726-21.123.415-23.616a20.834,20.834,0,0,1,2.051-1.078,9.557,9.557,0,0,0,5.7-9.374c-1.207-16.1-4.4-52.892-8.582-59.968,0,0-26.926-13.671-30.237-39.351s7.309-86.777-15.19-121.065C327.453,274.9,260.215,213.685,223.343,323.469Z" transform="translate(-219.847 -257.883)"/><path class="d" d="M328.936,456.317a70.677,70.677,0,0,0,15.164-1.6,106.5,106.5,0,0,0,1.532,15.9c-5.193,4.194-13.4,4.531-20.487,3.765-.48-3.622-5.712-8.322-5.712-8.322a62.217,62.217,0,0,1-2.168,6.725c-1.947-.519-4.635-1.052-4.635-1.052s1.117-8.88,2.532-16.722A71.64,71.64,0,0,0,328.936,456.317Z" transform="translate(-192.171 -199.169)"/></g><g transform="translate(13.136 100.15)"><path class="o" d="M22.91,200l7.712,20.656s15.657-.221,26.784-11.8a93.539,93.539,0,0,0,16.8-24.732L65.13,178.67S50.823,200.91,22.91,200Z" transform="translate(-6.299 -46.855)"/><path class="c" d="M169.2,180.146S122.691,97.9,121.925,77.14c0,0-15.372,38.819,3.843,68.8,0,0-39.13,9.932-64.564,4.609,0,0-17.683,12.295-6.53,34.21,0,0-19.6,18.838-34.586,18.838,0,0-7.3-.766-7.3,7.686s-.766,15.372-2.311,18.449c0,0-2.311,6.53,5,5.764s41.9.389,52.269-17.683c0,0,2.687,1.155,4.609.389,0,0-11.529,28.445-41.9,31.133,0,0-1.921,8.075,9.607,6.154S65.047,239.348,75.043,237.8,191.279,221.38,169.2,180.146Z" transform="translate(-10.11 -77.14)"/><path class="d" d="M98.485,138.323c-9.568-19.085-6.972-40.507-4.051-52.983C123.633,139.894,98.771,138.336,98.485,138.323Z" transform="translate(14.238 -74.694)"/><path class="n" d="M88.79,132.944c7.868-1.7,13.5-2.8,13.5-2.8s3.012,4.959,14.956,8.205C117.261,138.332,99.955,143.331,88.79,132.944Z" transform="translate(13.352 -61.331)"/><path class="n" d="M54.617,199.76a19.564,19.564,0,0,1,3.57,7.089c-7.452,4.726-15.5,10.841-22.772,12.048-11.529,1.921-9.607-6.154-9.607-6.154A47.686,47.686,0,0,0,54.617,199.76Z" transform="translate(-5.471 -40.564)"/><path class="n" d="M44.292,174.774c8.647,2.22,5.985,18.656,3.609,27.8-13.152,3.934-27.952,3.687-32.444,4.155-7.3.766-5-5.764-5-5.764,1.532-3.077,2.311-10,2.311-18.449s7.3-7.686,7.3-7.686C39.553,175.709,32.257,171.671,44.292,174.774Z" transform="translate(-10.116 -48.373)"/><path class="n" d="M45.3,167.768c-11.139-21.9,5.842-33.678,5.842-33.678,2.908.9,6.7.4,9.919.818l.013.584c-.922,11.62,2.051,17.5,2.051,17.5C57.011,161.016,45.3,167.768,45.3,167.768Z" transform="translate(-0.75 -60.153)"/><path class="n" d="M64.151,185.3s-3.726,4.1-7.517,3.181-4.8-6.582-4.8-6.582S54.011,186.3,64.151,185.3Z" transform="translate(2.327 -45.891)"/><ellipse class="p" cx="9.218" cy="4.453" rx="9.218" ry="4.453" transform="matrix(0.407, -0.913, 0.913, 0.407, 15.325, 146.993)"/><path class="p" d="M18.227,196.051s-2.389,2.48-3.116-3.8-1.026-12.256.779-12.554,2.246,5.154,2.973,7.257C19.784,189.6,22.277,192.857,18.227,196.051Z" transform="translate(-8.795 -46.553)"/><g transform="translate(29.931 78.728)"><path class="q" d="M105.964,151.892c-.156-.467-4.492-9.452-19.994-7.907s-20.617-.467-21.85-6.206c0,0,1.091,2.636,23.252,2.636S105.964,151.892,105.964,151.892Z" transform="translate(-23.938 -137.78)"/><ellipse class="q" cx="8.53" cy="7.128" rx="8.53" ry="7.128" transform="translate(50.27 4.959)"/><path class="q" d="M65.614,151.892c-.117-.467-3.479-9.452-15.5-7.907s-15.982-.467-16.943-6.206c0,0,.844,2.636,18.02,2.636S65.614,151.892,65.614,151.892Z" transform="translate(-33.17 -137.78)"/><path class="q" d="M49.936,148.668c0,3.778-3.531,6.842-7.971,7.076A24.356,24.356,0,0,1,43.588,141.8C47.236,142.618,49.936,145.37,49.936,148.668Z" transform="translate(-30.657 -136.581)"/></g></g><g transform="translate(113.434 350.081)"><path class="c" d="M119.2,278.894s-59.215-7.517-16.125,76.183c10.036,19.5,37.352,43.96,35.028,80.078-2.713,42.324-42.259,97.865-42.259,97.865a22.7,22.7,0,0,0,2.687,1.3,21.861,21.861,0,0,1,5.362-4.726s1.13,4.1,1.7,6.738a27.6,27.6,0,0,0,18.6-3.311s28.355-57.826,38.364-72.847,36.793-56.488,35.132-72.613-17.332-34.7-7.322-53.606C190.376,333.955,215.407,240.53,119.2,278.894Z" transform="translate(-87.369 -269.648)"/><path class="d" d="M130.535,460.406c-4.869,9.7-8.27,16.644-8.27,16.644a27.687,27.687,0,0,1-18.6,3.311c-.571-2.635-1.7-6.738-1.7-6.738a21.86,21.86,0,0,0-5.362,4.726,20.423,20.423,0,0,1-2.687-1.3s5.544-7.79,12.632-19.76C112.125,461.925,124.524,461.12,130.535,460.406Z" transform="translate(-85.419 -213.677)"/></g><path class="l" d="M274.018,310.668s-20.682-5.18-24.161-13.7c-4.336-10.594,10.815-15.54,16.917-8.763.766-7.517,15.2-13.23,18.89-.182C288.013,296.348,274.018,310.668,274.018,310.668Z" transform="translate(74.303 83.596)"/><path class="m" d="M1.634,84.65c.4,11.165-10.7,36.43,47.946,58.1,28.848,10.659,60.786,3.389,79.286.961C24.782,167.74-7.766,117.237,1.634,84.65Z" transform="translate(0.031 25.25)"/></g></g></svg>