<svg xmlns="http://www.w3.org/2000/svg" viewBox="0 0 386.233 613.508"><defs><style>.a{fill:#92c8eb;}.b{fill:#1482c1;}.c{fill:#fff;}.d{fill:#b6cfdd;}.e{fill:#f6faf8;}.f{fill:#bec6c4;}.g{fill:#231f20;}</style></defs><g transform="translate(2.293 527.403)"><path class="a" d="M6.677,510.318S1.312,546.941,3.5,551.085s28.967,17.232,51.51,17.4c24.8.174,70.312.174,70.312.174s-1.461-35.871-9.03-52.23S62.583,494.94,62.583,494.94Z" transform="translate(-2.023 -482.55)"/><path class="b" d="M112.231,497.278c.916.611,10.35,29.239,10.35,29.239l-26.688,9.434s-18.072,8.158-18.988,8.954l-.916.8-3.043,1.57L56.5,541.8l-10.655,8.834-7-19.849s-14.614,17.363-15.836,23.143c0,0-9.75-9.946-10.045-14.113l-7.613,7.46s-7.307-9.477,0-22.423,14.309-24.212,14.309-24.212l74.6-17.057Z" transform="translate(-2.102 -483.58)"/></g><g transform="translate(221.789 462.759)"><path class="a" d="M203.36,510.906s7.689,35.805,41.585,41.629,37.07,4.93,47.922-7.732,41.585-46.112,46.559-48.827S356.6,478.8,356.6,478.8s-67.357-38.423-82.724-39.786c0,0-39.328-22.609-53.342-11.757S203.36,510.906,203.36,510.906Z" transform="translate(-203.36 -424.308)"/><path class="b" d="M268.743,436.79s.393,36.983,6.358,44.541c0,0-11.135,3.577-15.509,0,0,0,2.388,21.878,7.754,25.848,0,0-15.552,4.908-22.87-1.985,0,0-3.185,13.524,3.577,22.271,0,0-28.171,15.8-44.694-5.693,0,0,3.337-52.775,18.453-64.7s26.644-20.286,26.644-20.286Z" transform="translate(-203.36 -423.177)"/></g><g transform="translate(257.804 263.003)"><path class="a" d="M238.43,336.939s43.559-4.123,44.094-46.755c.556-44.737-34.595-48.282-45.621-49.034C236.914,241.139,235.006,312.989,238.43,336.939Z" transform="translate(-236.383 -241.15)"/><g transform="translate(0.57 15.933)"><path class="b" d="M268.015,301.938a41.941,41.941,0,0,0-6.642-2.465,44.273,44.273,0,0,0-6.991-1.374,34.169,34.169,0,0,0-7.242-.065,30.623,30.623,0,0,0-7.231,1.614,2.1,2.1,0,0,0,1.331,3.992.943.943,0,0,0,.185-.076l.12-.055a26.876,26.876,0,0,1,6.1-2.029,32.088,32.088,0,0,1,6.576-.611,41.811,41.811,0,0,1,13.251,2.312l.044.011a.682.682,0,0,0,.862-.414A.7.7,0,0,0,268.015,301.938Z" transform="translate(-236.764 -251.942)"/><path class="b" d="M272.734,281.919a72.479,72.479,0,0,0-16.163-4.177,60.175,60.175,0,0,0-8.43-.622,51.591,51.591,0,0,0-8.561.687,2.107,2.107,0,0,0,.633,4.166,1.269,1.269,0,0,0,.2-.044l.087-.022a48.527,48.527,0,0,1,7.787-1.429,58.177,58.177,0,0,1,8.049-.218,71.448,71.448,0,0,1,16.1,2.465l.022.011a.42.42,0,0,0,.524-.294A.413.413,0,0,0,272.734,281.919Z" transform="translate(-236.825 -253.823)"/><path class="b" d="M268.178,260.363a72.458,72.458,0,0,0-14.32-3.839,58.531,58.531,0,0,0-7.471-.731,48.409,48.409,0,0,0-7.623.349,2.1,2.1,0,1,0,.491,4.177c.076-.011.153-.022.218-.033l.076-.022a45.219,45.219,0,0,1,6.915-1.091,55.538,55.538,0,0,1,7.133-.087,69.659,69.659,0,0,1,14.265,2.181l.022.011a.482.482,0,0,0,.295-.916Z" transform="translate(-236.905 -255.759)"/></g></g><path class="c" d="M53.168,188.179C78.394,86.468,113.152,15.436,194.087,25.6c79.125,9.936,72.036,126.109,72.679,244.168.174,31.181,4.581,171.435,29.338,204.437l6.369,4.842c-8.714,1.647-19.751,3.37-19.751,3.37-2.836,8.856,4.962,30.09,4.962,30.09-4.253.349-18.061-9.565-18.061-9.565-2.476,9.2,8.5,35.4,8.5,35.4-4.962-.709-22.663-14.167-22.663-14.167-2.127,6.02,4.6,35.4,4.6,35.4L234.571,552.5V577.75a17.229,17.229,0,0,1-3.555-4.548c-11-21.082-53.168-63.256-55.927-87.1,0,0-55.011-12.837-51.336,73.344l-.36,17.973c-12.4-8.529-34.813-24.932-34.813-24.932-5.453,2.094-11.332,24.332-11.332,24.332C70.956,571.784,64.238,557.1,64.238,557.1,59.2,560.038,50.387,580.6,50.387,580.6c-3.359-2.934-8.812-23.492-8.812-23.492L23.11,588.154l-6.718-23.078L2.345,588.841A42.242,42.242,0,0,1,0,574.139C0,543.886,27.593,291.3,53.168,188.179Z" transform="translate(0 2.232)"/><path class="d" d="M41.6,541.921l-18.464,31.05-6.718-23.078L2.345,573.636A42.242,42.242,0,0,1,0,558.934c0-28.5,24.452-254.224,48.7-366.514.676,35.871.011,80.946-2.748,116.915C30.3,513.39,45.861,533.676,49.143,563.7,45.839,557.909,41.6,541.921,41.6,541.921Z" transform="translate(0 17.437)"/><path class="c" d="M140.879,32.2s-14.691-16.5-5.235-32.2c0,0,16.5,8.856,13.48,31Z" transform="translate(12.005)"/><path class="c" d="M154.553,30.487A30.868,30.868,0,0,0,157.367,3.32S143.079,9.755,146.5,28.481Z" transform="translate(13.228 0.301)"/><path class="d" d="M51.26,178.349c3.992-16.087,8.3-31.563,13.011-46.2,19.588,8.7,39.022,23.514,44.421,41.073,0,0,6,55.316,5.333,65.317,0,0-1.331,13.327,29.327,2.661l-3.337,16.665s10.666,39.993,12.662,39.993,2.661,23.328,2.661,23.328l-1.331,12-2,10.666,3.3,3.086,5.682-68.4s29.032-3.054,28.727,30.865c-.24,26.328-21.093,37.561-30.417,41.269l2.7,2.519s-16.665,16.665-38.663,19.991C106.4,375.74,52.285,377.9,20.09,360.155,29.371,291.555,40.485,221.723,51.26,178.349Z" transform="translate(1.821 11.976)"/><g transform="translate(296.922 454.124)"><g transform="translate(44.356 25.51)"><circle class="b" cx="22.478" cy="22.478" r="22.478"/><ellipse class="a" cx="20.296" cy="20.624" rx="20.296" ry="20.624" transform="translate(0.938 3.697)"/></g><g transform="translate(28.531 15.825)"><circle class="b" cx="22.478" cy="22.478" r="22.478"/><ellipse class="a" cx="20.296" cy="20.624" rx="20.296" ry="20.624" transform="translate(0.949 3.697)"/></g><circle class="b" cx="25.51" cy="25.51" r="25.51"/><ellipse class="a" cx="23.034" cy="23.416" rx="23.034" ry="23.416" transform="translate(1.069 4.188)"/></g><g transform="translate(41.869 553.741)"><g transform="translate(56.832)"><circle class="b" cx="29.861" cy="29.861" r="29.861"/><circle class="a" cx="27.876" cy="27.876" r="27.876" transform="translate(0 3.97)"/></g><g transform="translate(29.447 10.197)"><circle class="b" cx="24.768" cy="24.768" r="24.768"/><circle class="a" cx="23.121" cy="23.121" r="23.121" transform="translate(0 3.294)"/></g><g transform="translate(0 14.92)"><circle class="b" cx="22.412" cy="22.412" r="22.412"/><circle class="a" cx="20.918" cy="20.918" r="20.918" transform="translate(0.011 2.977)"/></g></g><g transform="translate(2.807 106.99)"><path class="a" d="M117.158,348.522s47.606-13.665,59.384-32.053,6.217-54.564-8.016-65.514c-12.259-9.423-37.943-8.529-61.893-1.461l-1.734.523C80.394,257.564,117.158,348.522,117.158,348.522Z" transform="translate(5.936 -84.875)"/><path class="b" d="M143.142,257.866a.446.446,0,0,0,.524.273,93.3,93.3,0,0,1,14.167-2.29c2.378-.207,4.766-.349,7.144-.414,1.4-.033,2.814-.044,4.21-.022a26.653,26.653,0,0,0-3.021-3.512c-.491.065-.982.12-1.472.185q-3.632.523-7.231,1.254A93.954,93.954,0,0,0,143.4,257.3.432.432,0,0,0,143.142,257.866Zm1.014,25.182a.443.443,0,0,0,.491.327,148.463,148.463,0,0,1,18.246-1.538c5.126-.131,10.3-.065,15.378.218-.142-1.32-.316-2.617-.524-3.915-5.05.185-10.045.589-15.04,1.167a149.024,149.024,0,0,0-18.235,3.217A.427.427,0,0,0,144.157,283.048Zm3.621,25.608a.454.454,0,0,0,.5.316,92.607,92.607,0,0,1,14.3-1.156q3.583-.033,7.154.164c2.029.109,4.079.284,6.064.5.469-1.32.873-2.683,1.221-4.079-2.5-.022-4.875.065-7.3.207q-3.664.229-7.307.676a93.832,93.832,0,0,0-14.331,2.836A.428.428,0,0,0,147.778,308.656Z" transform="translate(10.162 -84.162)"/><path class="c" d="M80.08,98.1S28.646,187.138,9.975,254.07C1.5,284.444-11.816,334.23,49.663,356.8s100.228,1.44,100.228,1.44l-9.783-8.191,10.819-14.254-18.333-13.742,14.571-15.018-18.835-11.244,9.27-17.581L125.363,275.1l10.677-23.35s-50.583,19.239-30.352-18.791C105.7,232.944,140.01,143.579,80.08,98.1Z" transform="translate(-2.574 -98.1)"/></g><g transform="translate(133.921 35.631)"><path class="a" d="M124.033,88.464c-6.478,26.807,13.077,54.422,43.614,61.9,50.7,12.422,65.3-7.645,67.062-35.173,1.9-29.512-13.055-54.52-43.614-61.9S130.511,61.656,124.033,88.464Z" transform="translate(-122.793 -30.966)"/><g transform="translate(37.121 74.523)"><path class="e" d="M158.02,111.372l8.616,5.54,3.283-7.918a5.077,5.077,0,0,0-2.748-6.642h0a5.077,5.077,0,0,0-6.642,2.748Z" transform="translate(-156.722 -100.914)"/><path class="f" d="M156.83,111.873l2.836-7.089a6.127,6.127,0,0,1,11.321,4.69l-3.763,9.085Zm4.777-6.293-2.192,5.464,6.827,4.4,2.8-6.762a4.029,4.029,0,0,0-7.438-3.1Z" transform="translate(-156.83 -101.001)"/></g><g transform="translate(46.239 82.222)"><path class="e" d="M166.43,117.079l9.467,3.675,2.029-5.235a4.418,4.418,0,0,0-2.519-5.715l-1.232-.48a4.418,4.418,0,0,0-5.715,2.519Z" transform="translate(-165.078 -107.972)"/><path class="f" d="M165.19,117.767l2.41-6.217a5.473,5.473,0,0,1,7.078-3.119l1.232.48a5.47,5.47,0,0,1,3.13,7.078l-2.41,6.206Zm4.362-5.453-1.647,4.253,7.514,2.912,1.647-4.253a3.361,3.361,0,0,0-1.92-4.362l-1.232-.48a3.366,3.366,0,0,0-4.362,1.93Z" transform="translate(-165.19 -108.06)"/></g><path class="b" d="M197.852,127.161a77.71,77.71,0,0,0,20.275-2.585,2.1,2.1,0,0,0-1.232-4.014c-.4.12-40.855,12.051-63.431-18.2a2.1,2.1,0,1,0-3.359,2.508C163.727,123.115,183.227,127.161,197.852,127.161Z" transform="translate(-120.356 -26.431)"/><path class="b" d="M153.953,97.312c-.087,0-.109-.175-.142-.109l-.1.142-.207.327c-.153.229-.284.458-.447.676-.294.447-.622.883-.938,1.3a16.308,16.308,0,0,1-2.018,2.192,12.609,12.609,0,0,1-2.312,1.669c-.84.524-1.8.862-2.868,1.418l-.12.065a.958.958,0,0,0-.414,1.287.98.98,0,0,0,.589.48,7.282,7.282,0,0,0,4.1.011,8.253,8.253,0,0,0,3.675-2.138,9.222,9.222,0,0,0,2.214-3.512,7.889,7.889,0,0,0,.491-3.021c-.022-.185-.022-.349-.055-.545l-.065-.305a2.054,2.054,0,0,0-.174-.545.678.678,0,1,0-1.211.611Z" transform="translate(-120.846 -26.901)"/><path class="b" d="M172.19,53.074s16.447,4.232,19.577,22.249a10.462,10.462,0,0,0,6.435-8.8s10.219,5.006,10.394,12.455c0,0,7.089-3.25.491-17.472S187.819,42.68,187.819,42.68Z" transform="translate(-118.317 -31.763)"/><path class="c" d="M162.92,53.948S189.466,50.48,192.6,72.412c0,0,5.933-2.639,6.435-10.721,0,0,10.219,6.1,10.394,15.171,0,0,7.089-3.959.491-21.267A40.794,40.794,0,0,0,188.648,32.67Z" transform="translate(-119.157 -32.67)"/><ellipse class="g" cx="14.985" cy="14.396" rx="14.985" ry="14.396" transform="translate(33.853 58.117) rotate(-74.431)"/><ellipse class="g" cx="9.129" cy="8.769" rx="9.129" ry="8.769" transform="matrix(0.924, -0.382, 0.382, 0.924, 83.152, 58.182)"/><ellipse class="a" cx="4.799" cy="12.967" rx="4.799" ry="12.967" transform="translate(36.025 65.649) rotate(-83.229)"/></g><g transform="translate(29.88 129.938)"><path class="d" d="M245.9,429.272l-10.743-1.341a1.039,1.039,0,0,0-1.167.916.731.731,0,0,0,0,.218v.033l2.094,22.892,2.094-1.778-17.614-4.461a1.087,1.087,0,0,0-1.309.774,1.3,1.3,0,0,0-.033.349l1.44,17.515,2.018-1.756-18.6-4.144a1.048,1.048,0,0,0-.523,2.029l18.312,5.257a1.6,1.6,0,0,0,1.974-1.08,1.58,1.58,0,0,0,.044-.676l-2.585-17.385-1.331,1.123,17.286,5.606a1.606,1.606,0,0,0,2.029-1.036,1.638,1.638,0,0,0,.065-.72v-.022l-3.283-22.75L234.907,430l10.743,1.341a1.039,1.039,0,0,0,1.167-.916A1.054,1.054,0,0,0,245.9,429.272Z" transform="translate(-11.501 -91.159)"/><path class="d" d="M245.165,348.275l-4.635,6.031-2.29,2.966a1.8,1.8,0,0,1-2.181.425,1.9,1.9,0,0,1-.851-.916l-.905-1.669-1.821-3.337-3.643-6.675v-.011a1.034,1.034,0,0,0-1.745-.153l-.044.055-6.511,8.79-3.228,4.373c-.545.709-1.1,1.429-1.647,2.061a4.216,4.216,0,0,1-.349.371s-.044.033.033-.022l.044-.022a1.649,1.649,0,0,1,.2-.1l.109-.033a1.914,1.914,0,0,1,.414-.055,1.255,1.255,0,0,1,.447.087,1.464,1.464,0,0,1,.556.36,1.392,1.392,0,0,1,.371.687c.033.142.033.36.022.251l-.033-.2c-.022-.131-.065-.273-.1-.4a3.663,3.663,0,0,0-.447-.949c-.131-.229-.262-.469-.393-.654-2.094-3.163-4.275-6.053-6.555-8.943-2.247-2.89-4.581-5.715-6.947-8.507a1.054,1.054,0,0,0-1.658,1.3l6.4,8.867c2.094,2.956,4.352,5.889,6.227,8.856a4.58,4.58,0,0,1,.305.523c.065.109.262.491.164.273a.185.185,0,0,1,.011-.076l.022-.044a2.4,2.4,0,0,0,.044.327,1.409,1.409,0,0,0,.4.763,1.434,1.434,0,0,0,.589.382,1.406,1.406,0,0,0,.491.087,1.382,1.382,0,0,0,.458-.055l.153-.055a1.274,1.274,0,0,0,.273-.131l.12-.076a3.794,3.794,0,0,0,.305-.24,7.255,7.255,0,0,0,.589-.633c.643-.763,1.189-1.494,1.745-2.247,1.091-1.494,2.159-2.988,3.2-4.5,2.061-3.043,4.035-6.107,5.944-9.248l-1.789-.087v.011l3.643,6.675,1.821,3.337.916,1.669a4,4,0,0,0,1.734,1.778,3.9,3.9,0,0,0,4.733-.916l2.367-3.054,4.635-6.031a1.046,1.046,0,0,0-.2-1.472A1.115,1.115,0,0,0,245.165,348.275Z" transform="translate(-11.648 -98.971)"/><path class="d" d="M102.511,401.649c-2.912,2.192-5.878,4.362-8.878,6.424-1.494,1.036-3.01,2.039-4.548,2.977-.763.469-1.538.916-2.29,1.32a10.8,10.8,0,0,1-1.1.513l-.5.2a.1.1,0,0,0-.12.022h0l1.658,1.189-8.278-22.15h0a1.036,1.036,0,0,0-1.276-.7,1.046,1.046,0,0,0-.469.294l-.065.065L62.147,407.9h0l3.25.425-9.859-19.151h0a1.012,1.012,0,0,0-1.32-.556.829.829,0,0,0-.284.174l-.076.065L37.936,402.881h0l3.283.556L29.363,381.985a1.049,1.049,0,0,0-1.876.938l10.045,22.358a1.988,1.988,0,0,0,3.141.676l.131-.12h0L55.342,390.35l-1.68-.316h0L61.9,409.927a1.9,1.9,0,0,0,2.465,1.025,1.98,1.98,0,0,0,.676-.469l.109-.131h0l13.12-17.232-1.8-.327h0L83.426,415.4l.033.1a1.537,1.537,0,0,0,1.625,1.08h0a8.973,8.973,0,0,0,1.222-.251l.763-.349a14.193,14.193,0,0,0,1.352-.742c.829-.513,1.625-1.036,2.388-1.581,1.538-1.08,3.01-2.2,4.472-3.348,2.912-2.29,5.748-4.635,8.55-7.045a1.052,1.052,0,0,0,.109-1.483A1.071,1.071,0,0,0,102.511,401.649Z" transform="translate(-27.397 -95.371)"/><path class="d" d="M77.067,263.587a7.837,7.837,0,0,0-1.331.774l-1.047.753-2.007,1.549c-1.32,1.047-2.607,2.127-3.883,3.228s-2.519,2.236-3.741,3.414c-.611.589-1.211,1.211-1.789,1.843-.284.349-.578.654-.862,1.047l-.414.6a6.681,6.681,0,0,0-.382.894h0a.856.856,0,0,0,.338,1.014l.175.109,15.738,9.848h0l-.055-3.392L60.184,297h0a1.01,1.01,0,0,0-.4,1.374,1.069,1.069,0,0,0,.262.316l.076.065,15.672,12.182h0L75.7,307.8c-2.7,2.334-5.377,4.679-8.038,7.067l-3.959,3.621-1.952,1.876-.96.992a5.942,5.942,0,0,0-1.069,1.472,1.052,1.052,0,0,0,2,.665c.022.087.349-.316.633-.567l.971-.84,2.039-1.658,4.2-3.228c2.825-2.127,5.693-4.232,8.55-6.3a1.89,1.89,0,0,0,.425-2.65,1.762,1.762,0,0,0-.371-.382l-.142-.109h0L61.307,297.08l-.065,1.756h0L79.8,288.671a1.919,1.919,0,0,0,.763-2.6,1.98,1.98,0,0,0-.665-.709l-.153-.1h0l-16.632-8.245.513,1.123h0a.893.893,0,0,0,.131-.251l.294-.425c.207-.294.491-.589.731-.883.545-.589,1.1-1.178,1.69-1.745q1.767-1.7,3.654-3.326c1.254-1.08,2.519-2.138,3.817-3.174l1.952-1.505.982-.709c.316-.218.7-.447.807-.513l.273-.153a1.031,1.031,0,0,0,.371-1.407A.951.951,0,0,0,77.067,263.587Z" transform="translate(-24.474 -106.059)"/><path class="d" d="M96.891,121.408c-3.152,2.116-6.206,4.308-9.216,6.631-1.505,1.156-2.977,2.367-4.428,3.654a27.135,27.135,0,0,0-4.144,4.384h0l3.1.175a48.541,48.541,0,0,1-3.381-7.8,23.657,23.657,0,0,1-.992-4.057,8.88,8.88,0,0,1,.131-3.85l.011-.033a1.035,1.035,0,0,0-.676-1.32,1.053,1.053,0,0,0-1.3.6,10.955,10.955,0,0,0-.633,4.853,26.377,26.377,0,0,0,.709,4.581c.349,1.483.774,2.945,1.265,4.373s1.014,2.825,1.647,4.264A1.74,1.74,0,0,0,82,138.16l.076-.12h0a24.5,24.5,0,0,1,3.348-4c1.287-1.3,2.639-2.563,4.024-3.8,2.781-2.454,5.682-4.831,8.627-7.111l.011-.011a1.044,1.044,0,0,0,.185-1.472A1,1,0,0,0,96.891,121.408Z" transform="translate(-23.053 -119.142)"/><path class="d" d="M190.711,184.984c-2.8,2.476-5.748,4.864-8.779,7.056a45.869,45.869,0,0,1-9.478,5.551h0l2.007.894c-1.341-3.294-2.781-6.478-4.4-9.619-.807-1.571-1.669-3.119-2.617-4.635a23.888,23.888,0,0,0-3.326-4.352h0a1.021,1.021,0,0,0-1.451-.044,1.1,1.1,0,0,0-.174.218l-.055.1a70.373,70.373,0,0,1-6.653,9.478c-2.443,2.9-5.246,5.628-8.256,7.1h0l3.326,2.029c-.087-1.93-.251-3.73-.48-5.584s-.534-3.675-.916-5.508a35.336,35.336,0,0,0-1.581-5.431,14.127,14.127,0,0,0-3.032-5.039l-.011-.011a1.019,1.019,0,0,0-1.44-.087,1.677,1.677,0,0,0-.131.142l-.065.087c-2.116,2.759-4.319,5.486-6.6,8.1-1.134,1.309-2.312,2.574-3.5,3.784a24.806,24.806,0,0,1-3.643,3.163h-.011l3.021.262a30.237,30.237,0,0,1-3.512-4.406,37.4,37.4,0,0,1-2.868-5.071,38.506,38.506,0,0,1-3.337-11.266v-.022a1.053,1.053,0,0,0-2.094.185,42.141,42.141,0,0,0,4.919,18.192,33.5,33.5,0,0,0,3.577,5.5l.022.033a2.066,2.066,0,0,0,2.912.305l.087-.076.011-.011a29.023,29.023,0,0,0,3.861-4.188q1.685-2.143,3.185-4.352c2.018-2.945,3.9-5.922,5.726-8.976l-1.636.142v.011a11.923,11.923,0,0,1,2,4.45,32.616,32.616,0,0,1,.883,5.1c.175,1.734.273,3.49.284,5.257.022,1.745-.022,3.544-.131,5.235l-.011.1a2.155,2.155,0,0,0,2,2.29,2.115,2.115,0,0,0,1.341-.36h.011a23.2,23.2,0,0,0,4.951-4.221,42.993,42.993,0,0,0,3.8-4.864,72.321,72.321,0,0,0,5.889-10.535l-1.68.273h0a21.639,21.639,0,0,1,2.8,4.068q1.243,2.209,2.3,4.57c1.429,3.108,2.7,6.337,3.839,9.554l.022.055a1.468,1.468,0,0,0,1.865.894l.131-.055h0a34.761,34.761,0,0,0,5.2-2.912c1.636-1.069,3.174-2.236,4.69-3.425,3.021-2.388,5.878-4.919,8.66-7.6a1.046,1.046,0,0,0-1.418-1.538Z" transform="translate(-18.945 -114.445)"/></g></svg>